<?xml version="1.0" encoding="UTF-8"?>
<svg enable-background="new 0 0 310.33 234.82" version="1.1" viewBox="0 0 310.33 234.82" xml:space="preserve" xmlns="http://www.w3.org/2000/svg">
<style type="text/css">.st0{fill:#58595B;}.st1{fill:#BE1E2D;}.st2{fill:#BE1E2D;stroke:#58595B;stroke-width:1.745;stroke-miterlimit:10;}</style>
<path d="m239.94 65.49c-0.05-0.27 0.01-0.66-0.16-0.79-1.48-1.17-2.99-2.31-4.51-3.42-0.22-0.16-0.56-0.15-0.84-0.22l0.12-0.09c1.16 1.25 2.3 2.53 3.5 3.75 0.52 0.53 1.21 0.77 1.99 0.66 0 0.01-0.1 0.11-0.1 0.11z"/>
<path d="m152.37 59.3c-1.3 0.02-2.35 0.41-2.75 1.75l-0.1-0.08c1.46 0.2 2.41-0.33 2.74-1.76l0.11 0.09z"/>
<path d="m256.51 53.1c-0.29 0.07-0.59 0.09-0.85 0.21-0.46 0.21-0.55 0.61-0.27 1.01 0.26 0.39 0.62 0.57 1.11 0.47l-0.12 0.11v-1.9l0.13 0.1z"/>
<path d="m246.35 173.93c0.61-0.02 0.94-0.31 0.94-0.92l0.09 0.08c-0.36 0-0.72 0-1.08 0.01l0.13-0.08c0 0.34 0.01 0.67 0.01 1.01l-0.09-0.1z"/>
<path d="m245.49 173.92c0.07 0.33 0.17 0.69 0.62 0.58 0.12-0.03 0.17-0.37 0.24-0.57 0 0 0.09 0.1 0.09 0.1-0.35 0-0.7 0-1.06 0.01l0.11-0.12z"/>
<path d="m129.51 180.11c-0.07 0.32 0.03 0.44 0.29 0.36 0.01 0 0-0.22-0.04-0.24-0.09-0.05-0.22-0.03-0.33-0.03-0.01 0 0.08-0.09 0.08-0.09z"/>
<polygon points="153.16 182.91 153.11 182.69 153.28 182.8"/>
<path d="m124.77 184.71c0.1 0.06 0.19 0.13 0.3 0.16 0.03 0.01 0.15-0.13 0.15-0.14-0.17-0.21-0.34-0.18-0.52 0.09 0 0.01 0.07-0.11 0.07-0.11z"/>
<path d="m148.69 61.96c-0.6 0-0.9 0.3-0.92 0.87l-0.09-0.09c0.68 0.07 0.94-0.27 0.91-0.88l0.1 0.1z"/>
<path d="m149.61 61.05c-0.6 0.02-0.91 0.32-0.92 0.91 0 0-0.09-0.1-0.09-0.1 0.63 0.02 0.99-0.23 0.92-0.89l0.09 0.08z"/>
<path d="m170.57 102.55c-0.18-0.39-0.36-0.84-0.9-0.79-0.52 0.05-0.67 0.48-0.74 0.93-0.02 0.14-0.05 0.28-0.08 0.42-0.04 0.14-0.09 0.27-0.14 0.41l-0.09-0.15c0.68-0.32 1.35-0.63 2.03-0.95l-0.08 0.13z"/>
<path d="m147.83 97.15c-0.36 0-0.73 0.01-1.09 0.01 0.62 0.82 0.62 0.82 1.09-0.01z"/>
<path d="m139.58 92.73c-0.35 0-0.7 0.01-1.06 0.01 0.06 0.61 0.53 0.82 1.04 1.01 0.01-0.34 0.01-0.68 0.02-1.02z"/>
<path d="m155.89 156.39 0.08-0.07s-0.13 0.2-0.13 0.21c0.01 0 0.05-0.14 0.05-0.14z"/>
<polygon points="151.44 159.8 151.55 160.02 151.33 159.9"/>
<path d="m226.36 83.18c0-0.65-0.01-1.3-0.01-1.94-0.25 0.14-0.52 0.25-0.74 0.43-0.39 0.32-0.39 0.7 0.02 1.08 0.2 0.19 0.48 0.29 0.73 0.43z"/>
<path d="m230 78.75c0-0.64-0.01-1.28-0.01-1.92-0.12 0.07-0.26 0.12-0.36 0.21-0.86 0.85-0.82 1.02 0.37 1.71z"/>
<path d="m235.49 161.57c-0.35 0-0.69 0.01-1.04 0.01 0 0.14 0.04 0.29 0 0.41-0.29 0.9 0.28 1.23 1.01 1.47l0.03-1.89z"/>
<path d="m231.96 160.03c-0.1-0.03-0.29-0.11-0.3-0.09-0.14 0.26-0.07 0.25 0.2-0.03 0.01 0 0.1 0.12 0.1 0.12z"/>
<path class="st0" d="m144.09 168.62c1.92 2.49 4.59 4.21 6.96 6.23 1.16 0.98 2.53 1.59 4.09 1.75l-0.14 0.1c-0.16-0.24-0.27-0.55-0.49-0.7-1.84-1.25-3.63-2.54-5.28-4.03-1.08-0.98-2.35-1.78-3.59-2.59-0.47-0.31-1.08-0.44-1.62-0.66l0.07-0.1z"/>
<path class="st1" d="m206.24 100.7c-0.32-0.05-0.72-0.24-0.95-0.12-0.75 0.38-1.24 0.12-1.78-0.39-0.42-0.39-0.9-0.25-1.07 0.21-0.15 0.41-0.24 0.85-0.42 1.24-0.07 0.16-0.32 0.31-0.5 0.33-0.19 0.02-0.5-0.07-0.58-0.21-0.22-0.37-0.32-0.81-0.53-1.19-0.08-0.16-0.33-0.37-0.47-0.35-0.41 0.07-0.42 0.43-0.4 0.76 0.01 0.11 0.03 0.22 0.04 0.34-0.01 0.18-0.01 0.35-0.01 0.52h0.05v-0.61c-0.57 0.06-1.16 0.06-1.72 0.19-0.44 0.1-0.86 0.33-0.97 0.85-0.14 0.66-0.27 1.32-0.45 1.96-0.22 0.78-0.51 0.91-1.6 0.82-0.22-0.02-0.45 0-0.79 0-0.11 0.37-0.18 0.8-0.36 1.19-0.13 0.28-0.38 0.67-0.64 0.72-1.02 0.21-2 0.5-2.97 0.84-0.13 0.05-0.44-0.16-0.54-0.32-0.17-0.28-0.33-0.61-0.34-0.93-0.03-0.67 0.05-1.34 0.06-2 0.01-0.64-0.59-0.97-1.22-0.66-0.2 0.1-0.35 0.3-0.54 0.41-0.4 0.23-0.94 0-1.05-0.44-0.08-0.32-0.19-0.65-0.19-0.98 0-0.45 0.1-0.89 0.12-1.34 0.01-0.35-0.16-0.63-0.51-0.78-0.3-0.12-0.73 0.07-0.85 0.4-0.16 0.42-0.27 0.86-0.42 1.28-0.09 0.25-0.68 0.24-0.9 0.03-0.46-0.43-0.47-0.99-0.56-1.54-0.15-0.89-0.33-1.01-1.06-0.58-0.46 0.27-0.8 0.29-1.27 0.09-1.06-0.46-1.07-0.44-1.79 0.57 0-0.01 0.15-0.11 0.15-0.11l-0.1 0.01c-0.12 0-0.23 0.02-0.34 0-2.08-0.4-2.14-0.41-2.44 1.5-0.13 0.86-0.64 1.09-1.36 1.22l0.06-0.09c-0.37 0.54-0.67 1.2-1.55 0.72l0.07 0.11c-0.94 0.13-1.45 0.63-1.43 1.56 0.01 0.74-0.63 0.78-1.22 1.05 0.04 1.07 0.06 2.18 0.13 3.29 0.11 1.67 0.32 3.33 0.04 5.01-0.07 0.45 0.01 0.93 0.39 1.23 0.82 0.64 0.89 1.5 0.9 2.41 0 0.3 0.12 0.72 0.34 0.89 0.68 0.51 0.85 1.34 1.35 1.89 0.74 0.81 1.01 2.03 2.19 2.46 0.63 0.8 1.25 1.6 1.91 2.44 0.29-0.31 0.56-0.66 0.89-0.93 0.08-0.07 0.52 0.06 0.54 0.15 0.11 0.54 0.18 1.1 0.21 1.65 0.04 0.64 0.48 0.98 0.96 1.29 0.61 0.39 1-0.31 1.58-0.31 0.2 0.52 0.39 1.02 0.59 1.52 0.72-0.37 1.02-0.4 1.12-0.09 0.38 1.11 0.99 1.97 2.31 2.11 0.42 0.04 0.52 0.37 0.72 0.64 0.19 0.26 0.45 0.5 0.71 0.7 0.41 0.32 0.88 0.21 1.11-0.22 0.54-1.02 0.54-1.02 1.77-0.81-0.01-0.23-0.44-0.44-0.03-0.67 0.01 0.21 0.01 0.42 0.02 0.63-0.57 1.27-0.57 1.29 0.86 2.05 0.18-0.66 0.33-1.3 0.55-1.92 0.06-0.16 0.36-0.32 0.55-0.32 0.13 0 0.34 0.26 0.38 0.43 0.11 0.43 0.12 0.88 0.24 1.31 0.07 0.27 0.31 0.28 0.58 0.19 0.64-0.22 0.77-0.74 0.97-1.28s0.43-0.54 1.03-0.11c0.17 0.12 0.36 0.23 0.57 0.36l1.26-1.14c0.26-0.24 0.53-0.46 0.91-0.35 0.63 0.18 1.13-0.09 1.62-0.4 0.58-0.37 0.43-0.98 0.53-1.52 0.08-0.46 0.21-0.52 0.91-0.18 0.38 0.18 0.68 0.12 0.91-0.12 1.04-1.04 2.1-2.06 3.19-3.05 0.24-0.22 0.49-0.53 0.53-0.83 0.11-0.76 0.38-1.27 1.28-1.22 0.77-0.81 1.68-1.54 1.64-2.8-0.03-0.79-0.03-1.57 0.01-2.36 0.02-0.41 0.14-0.81 0.23-1.29 0.88 0.77 0.4 1.81 0.88 2.56 0.04 0.07 0.18 0.11 0.27 0.11 0.1 0 0.27-0.05 0.28-0.11 0.3-1.51 1.51-2.77 1.24-4.45-0.09-0.57 0.26-1.08 0.73-1.46 0.31-0.25 0.41-0.59 0.32-0.9-0.24-0.89-0.19-1.72 0.02-2.62 0.25-1.13-0.12-2.19-0.81-3.17-0.58-0.82-1.37-1.56-1.27-2.7 0.03-0.34-0.14-0.64-0.52-0.76-0.33-0.1-0.66-0.2-0.96-0.36-0.4-0.22-0.78-0.49-1.27-0.8-0.04-0.58-0.09-1.23-0.14-1.98-0.64-0.15-1.29-0.3-1.94-0.45 0 0.04 0.01 0.06 0.01 0.08zm-17.12 25.11c0.14-0.01 0.29-0.02 0.43-0.03 0.13 0.51 0.27 1.02 0.38 1.54 0.02 0.07-0.11 0.25-0.13 0.25-0.18-0.05-0.48-0.11-0.5-0.21-0.1-0.51-0.13-1.04-0.18-1.55zm-2.67-4.01c0.04 0 0.08 0 0.12 0.01 0.02 0.32 0.04 0.64 0.05 0.96 0 0.11-0.04 0.21-0.06 0.32-0.06-0.16-0.16-0.32-0.17-0.48-0.02-0.27 0.03-0.54 0.06-0.81zm16.18 3.31c-0.07 0.25-0.27 0.4-0.48 0.27-0.15-0.09-0.26-0.35-0.25-0.53 0-0.25 0.25-0.39 0.47-0.25 0.14 0.08 0.18 0.33 0.26 0.51zm-25.02-21.61c-0.09-0.06-0.25-0.11-0.26-0.18-0.03-0.22-0.08-0.47 0.02-0.65 0.12-0.23 0.4-0.2 0.52 0.06 0.08 0.18 0.04 0.42 0.01 0.63-0.01 0.06-0.19 0.09-0.29 0.14zm20.65 14.05c0.06 0.01 0.18 0.01 0.19 0.04 0.09 0.33 0.01 0.44-0.18 0.27-0.06-0.05-0.01-0.2-0.01-0.31zm-17.26-1.39c0.02 0.1 0.07 0.19 0.06 0.28-0.05 0.33-0.16 0.35-0.28 0.04-0.03-0.08-0.01-0.2 0.02-0.29 0.01-0.02 0.13-0.02 0.2-0.03zm3.92-0.24c0.03-0.18 0.06-0.36 0.1-0.53 0.07 0.04 0.19 0.09 0.19 0.13-0.01 0.18-0.05 0.36-0.08 0.53-0.08-0.05-0.14-0.09-0.21-0.13zm10.57-1.83c0.05 0.08 0.12 0.16 0.13 0.25 0.01 0.1-0.04 0.2-0.06 0.3-0.05-0.08-0.13-0.16-0.14-0.25-0.01-0.1 0.05-0.21 0.07-0.3zm-3.67-4.3c-0.01-0.26 0.1-0.41 0.31-0.38 0.07 0.01 0.18 0.15 0.17 0.22-0.02 0.18-0.1 0.36-0.15 0.53-0.09-0.03-0.2-0.04-0.25-0.1-0.06-0.05-0.05-0.17-0.08-0.27zm-4.05 19.14 0.07-0.26 0.13 0.19-0.2 0.07zm4.24-0.61 0.06-0.24 0.12 0.18-0.18 0.06zm4.12-0.01c0-0.09-0.04-0.22 0.01-0.25 0.18-0.15 0.32-0.08 0.34 0.16 0.01 0.07-0.07 0.17-0.14 0.2-0.05 0.02-0.14-0.07-0.21-0.11zm-11.21-2.09 0.2-0.15v0.3l-0.2-0.15zm-2.75-2.55c-0.01-0.1-0.03-0.21-0.01-0.31 0.01-0.03 0.16-0.02 0.25-0.03 0.01 0.1 0.04 0.21 0.01 0.31-0.01 0.03-0.17 0.02-0.25 0.03zm8.64-0.11-0.22-0.05 0.13-0.21 0.09 0.26zm18.8-14.24-0.12 0.11v-0.22l0.12 0.11zm-21.77 9.3 0.15 0.25-0.22 0.04 0.07-0.29zm5-5.99-0.05 0.21-0.1-0.16 0.15-0.05z"/>
<path class="st0" d="m55.32 133.32c-0.03 0.01-0.05 0.02-0.08 0.03 0.21 0.03 0.33 0.02 0.08-0.03z"/>
<path class="st0" d="m55.32 133.32c0.42-0.08-0.41-0.09 0 0z"/>
<path class="st0" d="m26.19 89.15c0.28-0.13-1.63-0.1-2.11-0.02 0.71 0.38 1.37 0.37 2.11 0.02z"/>
<path class="st0" d="m153.27 182.5c0.04-0.04 0.08-0.07 0.12-0.11l-0.12 0.11z"/>
<path class="st0" d="m151.54 159.39c-0.03 0.02-0.07 0.03-0.1 0.05 0 0.02 0 0.04-0.01 0.06l0.11-0.11z"/>
<path class="st0" d="m155.12 176.29c0.05-0.03 0.09-0.06 0.14-0.09v-0.01l-0.14 0.1z"/>
<path class="st0" d="m144.2 168.21c-0.03 0-0.06 0.01-0.09 0.02l0.03 0.09 0.06-0.11z"/>
<path class="st0" d="m178.6 210.92 21.15 0.19c-0.04-0.27-0.09-0.55-0.12-0.85l-19.21-0.04c-0.03 0.11-0.06 0.21-0.09 0.32-0.58 0.12-1.18 0.2-1.73 0.38z"/>
<path class="st0" d="m256.62 52.68v-0.01c-0.05-0.03-0.09-0.06-0.14-0.09l0.14 0.1z"/>
<path class="st0" d="m181.22 205.41c0.86-1.16-0.01-2.66 0.73-3.79 0.98-1.47 0.47-2.46-0.83-3.34-0.36-0.24-0.37-0.47-0.04-0.64 0.14-0.03 0.28-0.07 0.42-0.08 0.3-0.01 0.61 0.04 0.9-0.01 0.59-0.09 1.01-0.77 0.82-1.33-0.09-0.27-0.2-0.57-0.39-0.77-0.65-0.7-0.53-1.21 0.23-1.76 0.33-0.24 0.71-0.8 0.63-1.11-0.32-1.34 0.64-2.57 0.26-3.87-0.16-0.55-0.47-1.07 0.24-1.7 4.39-0.01 8.91-0.03 13.44-0.01l-0.16-1.38c-3.38 0.05-6.75 0.09-10.13 0.1-1.11 0-2.06-0.94-2.02-1.96 0.06-1.3-0.01-2.65 0.38-3.86 0.28-0.86 0.69-1.66 0.33-2.49-0.48-1.13 0.99-1.38 0.94-2.26-0.02-0.43 0.02-0.9-0.16-1.27-0.27-0.56-0.5-1.06-0.06-1.6 0.81-1 0.59-2.11 0.6-3.26 0.01-0.81 0.59-1.59 0.25-2.52-0.44-1.21 1.04-1.67 1.24-2.65 0.09-0.42 0.05-0.87 0.15-1.29 0.26-1.15-0.5-2.24-0.18-3.41 0.1-0.37-0.2-0.83-0.26-1.26-0.04-0.26-0.07-0.61 0.08-0.78 1.09-1.24 2.17-2.46 4.19-2.03 0.38 0.08 0.79 0.24 1.17 0.46l-0.22-1.9c-0.61 0.09-1.22 0.18-1.83 0.28-0.01-0.06-0.01-0.12-0.02-0.18-0.91 0-1.84 0.09-2.73-0.03-0.73-0.1-1.42-0.49-2.15-0.68-0.57-0.15-1.18-0.19-1.77-0.25s-1.21-0.01-1.78-0.14c-4.61-1.08-8.93-2.81-12.89-5.39-1.02-0.66-1.99-1.32-2.78-2.23-1.85-2.14-3.72-4.26-5.54-6.43-0.86-1.02-1.6-2.12-2.13-3.37-1.26-2.99-2.59-5.95-3.93-8.9-0.56-1.23-0.85-2.48-0.85-3.84 0-1.17 0.04-2.4-0.32-3.48-0.82-2.49-0.6-4.94-0.03-7.39 0.5-2.14 1.23-4.23 1.66-6.37 0.39-1.92 1.18-3.61 2.36-5.18 1.44-1.9 2.59-3.98 3.61-6.11 0.65-1.36 1.34-2.61 2.95-3.18 0.5-0.18 0.82-0.82 1.21-1.26s0.68-1.03 1.16-1.34c2.15-1.34 3.9-3.33 6.59-3.82 0.43-0.08 0.84-0.35 1.23-0.57 2.52-1.46 5.52-1.59 8.16-2.71 0.26-0.11 0.62-0.08 0.9-0.01 1.09 0.3 2.12-0.02 3.13-0.32 2.84-0.86 5.65-0.75 8.52-0.13 2.05 0.44 4.04 1.11 6.21 1.23 1.77 0.1 3.58 0.69 5.23 1.37 2.09 0.86 4.08 1.98 6.03 3.12 1.29 0.75 2.51 1.65 3.63 2.63 0.77 0.68 1.24 1.68 1.99 2.39 0.86 0.82 1.92 1.43 2.82 2.21 0.56 0.48 1.09 1.05 1.48 1.66 1.77 2.75 3.24 5.66 4.07 8.82 0.78 2.98 1.37 6.01 2.26 8.96 0.43 1.45 0.98 2.92 0.41 4.29-0.59 1.41-0.14 3-0.94 4.28-1.23 1.95-1.76 4.12-2.31 6.27l2.51 0.43c0.15-0.49 0.3-0.98 0.46-1.47 1.1-0.41 2.11-0.01 3.13 0.09 0.44 0.04 0.94 0.2 1.3 0.06 0.75-0.3 1.28-0.38 1.96 0.26 0.56 0.53 1.46 0.02 2.17 0.11 0.86 0.11 1.66 0.58 2.51 0.75 0.4 0.08 0.87-0.19 1.31-0.3 0.5-0.12 0.74 0.22 1.09 0.49 1.16 0.88 1.52 0.79 3.05-0.49 1.42 2.12 1.65 2.18 3.73 0.97 1.53 0.93 2.98 2.11 5.01 1.3 0.2-0.08 0.62 0.08 0.78 0.27 1.05 1.23 2.15 0.66 3.26 0.16 0.73 0.68 1.46 1.36 2.18 2.03-0.05 0.43-0.15 0.85-0.22 1.28l1.49 0.26c0.23-0.96 0.77-1.38 1.75-1.53 0.58-0.09 1.13-0.33 1.7-0.51 0.26-0.08 0.58-0.32 0.78-0.25 0.94 0.36 1.63 1.55 2.8 1.05 1.09-0.47 1.69 0.21 2.44 0.62 0.57 0.31 1.11 0.33 1.7 0.02 0.25-0.13 0.75-0.26 0.82-0.17 1.18 1.63 3.06 0.88 4.59 1.25 1.46 0.36 2.93 0.56 4.35 1.14 1.23 0.5 2.63 0.62 3.96 0.9 0.37 0.08 1.23-0.67 1.29-1.08 0.06-0.43 0.16-0.87 0.16-1.3 0.01-6.45 0.02-12.9 0.02-19.35 0-4.25-0.03-8.5-0.05-12.75 0-0.58-0.03-1.17-0.06-1.75-0.03-0.53-0.67-1.08-1.26-1-1.17 0.16-2.27 0.5-3.52 0.23-0.69-0.15-1.39 0.46-1.62 1.27-0.1 0.37-0.23 0.73-0.36 1.16-1.01-0.81-1.85-1.71-3.27-1.22-0.4 0.14-0.93 0.13-1.33 0-1.75-0.53-2.55 0.17-2.8 1.8-0.04 0.27-0.46 0.3-0.69 0.05-0.2-0.21-0.28-0.53-0.47-0.74-0.53-0.6-1.41-0.71-2-0.23-0.45 0.37-0.81 0.84-1.21 1.25-1.9-1.16-2.19-1.11-3.65 0.57-0.53-0.39-0.54-1.48-1.64-1.11-0.85 0.29-1.47-0.04-1.8-0.82-0.28-0.67-0.46-1.38-0.76-2.05-0.08-0.18-0.33-0.3-0.55-0.44-0.26-1.8-0.4-3.63-0.84-5.39-0.3-1.23-0.95-2.4-1.58-3.53-0.63-1.14-0.44-2.11 0.29-3.06 0.3 0.02 0.59 0.04 0.89 0.08 0.65 0.09 1.19-0.06 1.55-0.62 0.22-0.35 0.26-0.98 0.83-0.88 1.16 0.21 2.04-0.41 2.99-0.8 0.97-0.4 1.28-1.17 1.09-2.15-0.02-0.12 0.11-0.27 0.23-0.5 0.38 0.11 0.77 0.21 1.15 0.35 1.99 0.71 2.95 0.39 4.11-1.38 0.15-0.23 0.33-0.43 0.52-0.66 0.59 0.08 1.18 0.16 1.78 0.24 1.8-0.78 3.61-1.55 5.41-2.33 0.54-0.23 0.78-0.95 0.5-1.5-0.2-0.39-0.38-0.8-0.65-1.14-1.65-2.1-3.31-4.2-4.98-6.28-1.67-2.09-3.21-4.26-4.62-6.53-1.95-3.15-4.41-5.96-6.42-9.09-1.19-1.84-2.93-3.35-4.43-5-0.4-0.44-1.14-0.27-1.49 0.27-0.51 0.81-0.27 2.09-1.67 2.39-0.22 0.05-0.29 0.75-0.42 1.16 0.57 0.35 1.15 0.7 1.72 1.05-0.49 0.54-1.17 0.65-1.86 0.77l0.12-0.11c-0.61 0.63-1.21 0.52-1.99 0.19-1-0.42-1.43 0.07-1.37 1.37-0.01 0-0.17 0.2-0.17 0.2l0.07-0.3c-1.15 0.51-1.86 1.42-2.41 2.47 0.06-0.01 0.11-0.02 0.15-0.02l0.03 0.12c-0.38-0.14-0.76-0.39-1.13-0.39-0.74 0-0.94 0.37-0.93 1.39h-0.12c0.01-0.04 0.02-0.09 0.03-0.13-0.06 0.04-0.11 0.1-0.17 0.14-0.04 0.01-0.05 0.02-0.05 0.04-0.94 0.65-1.72 1.46-2.41 2.35-0.01 0-0.03-0.01-0.04-0.01 0 0.02 0.01 0.03 0.01 0.05-0.03 0.04-0.07 0.07-0.1 0.11 0.04-0.02 0.08-0.03 0.12-0.05 0.01 0.05 0.03 0.09 0.04 0.14-0.85 0.21-1.31 1.06-2.26 1.18-0.73 0.09-1.39 0.5-1.84 1.13-0.47 0.67-1.26 0.52-1.92 0.71 0 0.26-0.01 0.52 0 0.77 0.02 0.89-0.13 1.7-1.06 2.17-1.27 0.63-1.77 1.83-2.35 2.94-0.24-0.02-0.61-0.14-0.7-0.03-0.64 0.71-1.23 1.48-1.82 2.22 0.01 0 0.32-0.1 0.32-0.1l-0.22 0.13c-0.28 0.08-0.72 0.09-0.82 0.26-0.29 0.51-0.43 0.99-1.15 1.2-1.02 0.29-1.94 0.84-2.38 1.89 0.37 0.17 0.77 0.3 1.09 0.53 0.19 0.14 0.36 0.47 0.33 0.68-0.02 0.15-0.39 0.3-0.62 0.37-0.26 0.09-0.55 0.09-0.82 0.13-0.1 1.3-0.19 1.39-0.97 0.89-0.12-0.08-0.22-0.2-0.34-0.27-0.68-0.41-1.18-0.39-1.46 0.16-0.33 0.63-0.56 1.3-0.83 1.96 0.3-0.05 0.57-0.16 0.81-0.32 0.02 0.03 0.02 0.02 0.04 0.04-0.04 0.02-0.09 0.04-0.13 0.07 0.31 0.85-0.33 1.38-0.71 1.99-0.28 0.44-0.73 0.54-1.15 0.36-1.12-0.49-2.01-0.39-2.71 0.69-0.62 0.95-1.31 1.87-1.95 2.78-0.57 0.06-1.15 0.08-1.71 0.18-0.92 0.16-1.77 0.1-2.52-0.5-0.35-0.27-0.69-0.54-1.06-0.79-0.5-0.35-0.84-0.78-0.91-1.4-0.07-0.59 0.08-1.1 0.42-1.56 0.58-0.48 0.78-1.05 0.38-1.76-0.13-0.24-0.17-0.52-0.25-0.78 0 0-0.33-0.01-0.33-0.01l0.22-0.06c0.77 0.18 1.38 0.02 1.75-0.72 0.3-0.6 0.59-1.2 0.89-1.79 0.46-0.33 1.05-0.59 1.3-1.03 0.63-1.1 1.73-2.14 0.9-3.62-0.06-0.11 0.18-0.5 0.38-0.62 1.52-0.93 1.86-2.59 2.64-3.97 0.28-0.49 0.31-1.1 0.44-1.66 0.18-0.81 1.17-0.83 1.54-1.48 0.64-1.14 1.45-2.2 1.23-3.62-0.04-0.23 0.09-0.57 0.27-0.74 1.03-1.03 1.86-2.32 3.45-2.68 1.37 0.31 2.4 1.19 3.47 1.98 0.43 0.32 0.88 0.5 1.38 0.57-1.37-1.42-2.75-2.84-4.2-4.35-0.25-1.17 0.55-2.4 0.23-3.68 0.75-0.22 1.2-0.76 1.39-1.45 0.25-0.89 0.73-1.45 1.57-1.95 0.87-0.52 0.81-1.32 0.19-2.58-0.24-0.49-0.01-0.66 0.47-0.85 1.62-0.64 1.67-0.79 1.25-2.58 0.01 0.01 0.15-0.15 0.15-0.15l-0.06 0.27c0.41-0.11 0.82-0.19 1.22-0.32 0.47-0.16 0.51-0.54 0.09-0.94-0.16-0.15-0.37-0.25-0.57-0.35 0.04-0.04 0.08-0.08 0.11-0.12 0.04-0.01 0.05-0.03 0.04-0.05 0.43-0.48 0.9-0.94 1.24-1.48 0.62-0.99 1.13-1.97 2.14-2.73 0.98-0.74 0.74-2.09-0.28-2.59-2.84-1.38-5.64-2.88-8.58-4.03-2.8-1.09-5.76-1.79-8.65-2.68-2.02-0.62-4.02-1.3-6.04-1.9-2.75-0.82-5.5-1.6-8.27-2.36-0.42-0.11-0.9-0.03-1.35 0.02-0.66 0.07-1.21 0.47-1.35 1.03-0.29 1.12-0.46 2.29-0.54 3.44-0.03 0.37 0.31 0.79 0.54 1.16 0.75 1.18 0.76 1.18-0.55 1.46-0.69 0.15-0.99 0.59-0.8 1.21 0.08 0.28 0.22 0.54 0.33 0.81s0.21 0.55 0.32 0.82c-0.8 0.46-1.59 0.98-1.34 2.03 0.22 0.92 0.07 1.68-0.52 2.45-0.38 0.5-0.12 1.12 0.08 1.68 0.21 0.56 0.65 0.83 1.18 0.99-0.33 0.25-0.67 0.5-1 0.76-0.62 0.47-1.02 1.07-1.02 1.86 0 0.73 0 1.45-0.42 2.1-0.33 0.51-0.73 1.02-1.35 1.06-4.8 0.29-9.61 0.32-14.54 0.08-0.06-1.06-0.01-1.9-0.17-2.71-0.13-0.69-0.6-1.33-0.18-2.07-0.32-1.54-0.85-3.04-0.87-4.64-1.13-1.13-0.56-2.37-0.25-3.6 0.13-0.5-0.28-0.9-1.06-1.17-0.27-0.1-0.55-0.18-0.92-0.31 0.28-0.33 0.6-0.61 0.78-0.95 0.2-0.37 0.33-0.79 0.41-1.21 0.15-0.73-0.71-1.27-0.46-2.05 0.18-0.55 0.31-1.11 0.41-1.68 0.08-0.47-0.61-1.11-1.2-1.03-0.33 0.05-0.63 0.26-0.93 0.44 0.47-0.71 0.72-1.49 1.16-2.44-2.29 0.24-4.17 0.44-6.06 1.05-4.44 1.44-8.97 2.62-13.46 3.93-2.03 0.59-4.06 1.19-6.06 1.86-1.3 0.43-2.6 0.76-3.99 0.74-2.02-0.02-3.84 0.72-5.6 1.6-0.97 0.48-1.28 1.37-0.7 2.16 0.43 0.59 1 1.1 1.4 1.71 0.57 0.86 1.57 0.61 2.33 0.97-0.8 0.54-1.33 1.22-1.24 2.2 0.02 0.28 0.16 0.76 0.29 0.78 1.13 0.12 1.18 1.17 1.75 1.75 0.27 0.28 0.78 0.34 1.04 0.44-0.11 0.58-0.34 1.14-0.29 1.67 0.06 0.56 0.38 1.1 0.59 1.64 0.48 1.2 1.25 2.29 1.34 3.65 0.04 0.58 0.51 1.15 1.13 1.24 1 0.15 0.98 0.94 1.31 1.54 0.1 0.18 0.38 0.25 0.64 0.36-0.23 1.09-0.45 2.18-0.67 3.26-0.94 0.59-1.83 1.11-2.66 1.7-0.45 0.32-0.77 0.76-0.82 1.32 1.36-0.12 2.43-0.95 3.64-1.44 0.78-0.32 1.45-0.11 2.01 0.5 0.7 0.75 0.76 1.97 1.88 2.41 0.25 0.01 0.49 0.02 0.73 0.03-0.26 0.01-0.51 0.01-0.77 0.02 0.22 1.88 0.57 3.7 2.18 5.09 0.41-0.06 0.85-0.18 1.3-0.19 0.23-0.01 0.48 0.15 0.68 0.28 0.05 0.03 0 0.26-0.07 0.37-0.07 0.12-0.21 0.21-0.3 0.32-0.44 0.48-0.55 1.06-0.31 1.63 0.34 0.8 0.09 1.79 0.88 2.42 0.11 0.09 0.27 0.12 0.42 0.14 0.43 0.07 0.86 0.13 1.3 0.19-0.25 1.03-0.58 1.88 0.01 2.95 0.68 1.24 1.92 2.25 1.83 3.89-0.02 0.43 0.75 0.85 1.02 1.34 0.33 0.61 0.47 1.32 0.8 1.94 0.09 0.16 0.46 0.18 0.75 0.25 0.17 0.53 0.35 1.06 0.52 1.6 0.41 1.36 0.03 2.16-1.3 2.85-1.11 0.58-2.23 0.95-3.49 0.5-1.21-1.27-2.12-2.82-3.98-3.49-0.78-0.28-1.61-1.01-1.95-1.74-1.15-2.47-3.77-3.79-4.99-6.19-0.24-0.48-0.85-0.82-1.36-1.13-0.64-0.39-1.35-0.67-2.02-0.99 0.09 0.26 0.18 0.51 0.26 0.76 0.13 0.39 0.01 0.53-0.32 0.37-0.03-0.01 0.08-0.24 0.08-0.37 0-0.24-0.03-0.49-0.04-0.73 0-1.09-1.29-1.48-1.46-2.49-0.04-0.26-0.26-0.53-0.48-0.7-0.31-0.25-0.69-0.44-1.04-0.65-0.34-0.47-0.61-1-1.04-1.37-0.44-0.38-1.05-0.56-1.57-0.86-0.46-0.27-0.59-1.15-0.21-1.55 0.4-0.42 0.93-0.75 1.28-1.2 0.22-0.29 0.28-0.69 0.39-1.06-1.22 0.05-2.04 0.89-2.87 1.44-0.83 0.04-1.07-0.53-1.45-0.92-2.18-2.27-2.19-2.26-5.17-3.81-0.03 0.02-0.05 0.05-0.07 0.07-0.03 0-0.03-0.01-0.06-0.01 0.05-0.12 0.15-0.35 0.15-0.35-0.93-0.4-1.05-1.72-2.2-1.86-0.26-0.65-0.43-1.37-0.84-1.91-0.7-0.93-1.69-1.65-2.35-2.61-0.59-0.86-1.3-1.57-2.03-2.3s-1.26-1.64-1.83-2.5c-0.87-1.34-2.44-0.97-3.08-0.2-1.79 2.17-3.57 4.35-5.32 6.55-1.74 2.21-3.44 4.45-5.14 6.69-2.6 3.41-5.18 6.84-7.78 10.25-0.81 1.06-1.69 2.06-2.44 3.15-0.19 0.28-0.03 0.8-0.03 1.25 1.41-0.36 2.25-1.66 3.7-1.71-0.19-0.71 0.03-1.33 0.27-1.95-0.08 0.65-0.17 1.31-0.25 1.96-1.26 0.74-1.54 2.02-1.85 3.25-0.04 0.17 0.28 0.51 0.5 0.63s0.62 0.19 0.81 0.07c0.63-0.38 1.2-0.85 1.79-1.27 0 0.01 0.22 0.01 0.22 0.01l-0.32 0.07c0.13 1.01 0.22 2.01 1.33 2.56 0.79 0.4 1.53 0.9 2.28 1.37 0.7 0.45 1.38 0.34 2.12 0.07 0.48-0.18 0.79 0.06 0.8 0.62 0.01 0.27 0.12 0.73 0.28 0.77 1.28 0.35 2.2 1.53 3.64 1.5 0.43-0.01 1.1-0.31 1.25-0.14 0.47 0.54 0.94 0.94 1.63 1.25 0.58 0.26 0.27 1.32 1.12 1.67 0.49 0.2 0.86 0.69 1.27 1.07-0.03 0.57 0.12 1.22-0.11 1.69-1.31 2.66-2.28 5.38-2.62 8.34-0.14 1.27-0.74 2.49-1.13 3.7-0.24 0-0.41 0.05-0.54-0.01-1.35-0.57-2.32-0.33-2.87 1.11-0.19 0.48-0.62 0.42-0.81-0.13-0.19-0.58-0.42-1.07-0.98-1.39-0.72-0.41-1.44-0.25-1.85 0.52-0.14 0.26-0.25 0.53-0.41 0.87-0.41-0.63-0.75-1.27-1.2-1.81-0.67-0.8-1.52-0.69-2.14 0.2-0.15 0.21-0.32 0.39-0.49 0.59-0.09-0.12-0.18-0.24-0.26-0.36-0.88-1.45-1.4-1.62-2.8-0.73-0.29 0.18-0.44 0.45-0.72 0.18-0.2-0.2-0.31-0.48-0.46-0.73-0.42-0.67-1.11-1.16-1.83-1.15-1 0.01-0.8 1.02-1.01 1.66-0.04 0.12-0.2 0.31-0.23 0.29-0.24-0.1-0.59-0.2-0.66-0.38-0.21-0.53-0.31-1.11-0.44-1.62-1.6-0.33-3.07-0.64-4.54-0.93-0.76-0.15-1.59 0.42-1.61 1.16-0.06 2.93-0.09 5.87-0.12 8.8-0.01 0.73 0.03 1.47 0.01 2.2-0.02 0.84-0.55 1.28-1.31 1.59-1.43 0.57-2.93 0.71-4.37 0.26-1.12-0.35-2.07-0.28-3.02 0.31-0.45 0.28-0.87 0.12-1.26-0.11-0.54-0.31-1.1-0.58-1.72-0.4-3.25 0.94-6.19 0.08-9.04-1.38-0.4-0.2-0.81-0.4-1.19-0.63-0.1-0.06-0.16-0.27-0.14-0.4 0.05-0.38 0.29-0.46 0.68-0.36 0.28 0.07 0.6 0.08 0.89 0.05 0.38-0.03 0.66-0.38 0.45-0.61-1.6-1.76-2.83-3.71-3.78-5.86-0.21-0.49-0.77-0.93-1.28-1.18-1.49-0.71-3.04-1.3-4.45-1.89-1.31 0.44-2.39 0.91-3.62 0.16-0.88-0.54-1.95-0.78-2.84-1.12-0.01 0-0.02 0.01-0.03 0.01 0.02-0.04 0.04-0.05 0.03-0.01-1.23-1.4-3.55-1.73-5.53-1.7-0.72 0.01-1.55-0.15-2.16-0.49-1.74-0.98-3.77-1.09-5.57-1.86-0.53-0.23-1.22-0.38-1.77-0.27-1.27 0.26-2.39-0.06-3.51-0.54-0.27-0.12-0.59-0.21-0.88-0.19-0.86 0.08-1.67 0.64-2.6 0.09-0.77-0.45-1.64-1.07-2.47-1.07-1.14 0.01-2.22 0.65-3.47 0.01-1.31-0.67-2.64-1.53-4.29-1.08-1.27-0.47-2.53-0.97-3.82-1.39-0.07-0.02-0.01-0.04 0.09-0.06-0.01-0.01-0.02-0.01-0.03-0.01-0.53-0.29-1.08-0.57-1.65-0.74-0.41-0.12-0.98-0.23-1.31-0.05-1.06 0.58-2.02 0.45-3.02-0.06-0.67-0.34-1.35-0.66-2.04-0.98-0.51-0.23-1.37-0.06-1.64 0.36-0.34 0.54-0.41 1.2 0.02 1.64 0.55 0.55 1.06 0.99 0.7 1.85-0.1 0.24-0.12 0.72 0.02 0.81 1.21 0.81 0.51 2.2 1.03 3.08 0.58 0.98-0.27 2.26 0.88 2.89-0.05 0.56-0.1 1.11-0.15 1.72 0.78 1.32 1.02 0.35 1.98 1.48 0.08 0.09-1.9 0.06 0.38 0.79-0.27 0.08 0.76 0.87 0.52 0.83-0.73-0.13-1.43-0.4-2.16-0.52-0.15-0.03-0.55 0.49-0.53 0.5 1.05 1.17 0.87 1.18 0.9 2.68 0.01 0.64-1.34 2.4-0.84 2.74 0.32 0.22 0.68 0.39 1.02 0.57-0.03 0.03-0.06 0.05-0.09 0.08-0.08 0.01-0.1 0.04-0.08 0.07-0.71 0.64-1.28 1.3-0.88 2.42 0.3 0.82 0.25 1.79 0.66 2.54 0.42 0.76 0.18 1.28 0.01 1.99-0.14 0.6-0.21 1.07-0.79 1.38-0.12 0.06-0.28 0.21-0.28 0.33-0.05 1.13-0.34 2.3 0.51 3.32 0.16 0.19 0.2 0.48 0.29 0.73-0.9 0.03 1.36 0.69 1.16 1.43-0.22 0.81 0.28 1.32 0.91 1.73-0.91 0.36-1.86 0.64-1.92 1.89-0.02 0.41 0.79 1.52 0.64 1.93-0.35 1.01-0.04 1.46 0.49 2.43 0.41 0.76 1.29 0.94 0.35 1.21-1.2 0.34-0.24 0.41 0.2 1.48 0.16 0.4-0.36 0.47-0.31 0.88 0.05 0.39 0.7 1.1 0.59 1.52 0 0-0.12-0.02-0.26-0.05-0.18-0.06-0.34-0.09-0.5-0.1-0.47-0.03-0.83 0.12-0.96 0.5-0.13 0.4-0.3 0.82-0.31 1.23-0.03 1.1 0.09 2.21-0.21 3.29-0.26 0.1-0.54 0.18-0.78 0.32-0.46 0.26-0.6 0.75-0.37 1.05 0.85 1.1 1.86 1.83 3.4 1.47 0.42-0.1 0.93-0.21 1.31-0.08 1.17 0.39 1.42-0.64 2.02-1.1 0 0.01 0.01 0.01 0.02 0.03 0.57-0.17 1.15-0.32 1.71-0.51 0.27-0.09 0.61-0.42 0.78-0.35 1.39 0.6 2.57-0.55 3.9-0.4 0.38 0.04 0.46-0.31 0.25-0.66-0.08-0.13-0.17-0.19-0.26-0.25 0.16-0.04 0.33-0.07 0.48-0.12 0.29-0.09-0.09-0.09-0.74-0.05-0.03-0.02-0.08-0.04-0.18-0.05 0 0.02 0 0.04 0.01 0.07-0.84 0.06-2.02 0.19-2.77 0.28 0.64-0.16 1.27-0.46 1.91-0.51 1.49-0.11 3.04 0.23 4.37-0.73 1.36 0.06 2.53-0.66 3.81-0.56 0.05-0.72 0.08-1.15 0.11-1.61 0.27 0 0.55-0.04 0.81 0.01 0.72 0.13 1.48 0.94 2.09 0.47 0.66-0.51 1.32-0.51 2.02-0.68 0.2-0.05 0.27-0.48 0.46-0.68 0.18-0.19 0.53-0.48 0.65-0.42 1.17 0.55 2.31 0.33 3.5 0.1 0.4-0.08 0.87 0.15 1.31 0.21 0.08 0.01 0.28-0.18 0.27-0.2-0.13-0.24-0.26-0.49-0.45-0.68-0.04-0.05-0.13-0.06-0.22-0.06 0.37-0.11 0.75-0.27 1.11-0.25 1.95 0.11 3.63-0.12 5.8-0.68 0.67-0.17 0.02 0.02 0.67-0.17 0.54-0.16-0.97-0.33-0.36-0.41 0.4-0.06 0.78-0.3 1.18-0.4-0.31-0.05-0.83-0.19-0.51-0.44 0.41-0.32 1.12-0.27 1.54-0.58 0.28-0.2 0.33-0.7 0.45-1.08 0.68 0.2 1.34 0.45 2.03 0.58 0.48 0.09 0.84-0.15 0.83-0.69 0-0.39 0.17-0.55 0.56-0.48 0.71 0.13 1.41 0.3 2.13 0.35 0.31 0.02 0.41-0.33 0.3-0.66 0.01 0.01 0.2-0.13 0.2-0.13l-0.1 0.24c0.69-0.17 1.54 0.16 2.06-0.52 0.42-0.54 0.96-0.68 1.53-0.44 1.27 0.54 2.57 0.38 3.94 0.28 0.45-0.51 0.92-1.06 1.38-1.6-0.01 0-0.23 0.15-0.23 0.15l0.15-0.19c1.41 0.37 1.88 0.31 2.26-0.56 0.29-0.67 0.42-1.35 1.28-1.58 0.09-0.02 0.18-0.58 0.06-0.71-0.48-0.54-1.32-0.74-1.57-1.53 0.57-0.43 1.05 0.02 1.58 0.14 0.78 0.18 1.19 0.01 1.52-0.56 0.07-0.13 0.19-0.24 0.22-0.38 0.42-1.51 1.29-2.62 2.88-3.14 0.4-0.13 0.81-0.88 1.07-0.57 0.8 0.96 1.61-0.44 2.42 0.2 1.33 1.05 2.51 0.69 3.45-0.64 0.08-0.12 0.23-0.19 0.41-0.34 0.26 0.32 0.5 0.65 0.77 0.95 0.43 0.47 1.01 0.63 1.64 0.56 0.29-0.03 0.6-0.14 0.84-0.3 0.95-0.66 2.11 0.28 3.04-0.4 0.77 0.41 1.53 0.83 2.34 1.26 0.13 0.41 0.33 0.81 0.37 1.23 0.18 1.74 0.06 3.47 0.53 5.22 0.41 1.52 0.17 3.2 0.23 4.81 0.03 0.74 0.54 0.98 1.21 0.54 0.12-0.08 0.21-0.21 0.32-0.31 0.44-0.39 0.59-0.18 0.86 0.26 0.66 1.03 1.82 1.15 2.58 0.31 0.28-0.31 0.41-0.76 0.63-1.17 0.26 0.16 0.47 0.28 0.67 0.41 1.32 0.85 1.9 0.71 2.86-0.67 0.08-0.12 0.19-0.23 0.29-0.35 0.13 0.23 0.23 0.48 0.39 0.69 0.9 1.21 2.02 1.17 2.82-0.08 0.16-0.24 0.26-0.52 0.39-0.79 0.72 0.63 1.57 1.1 2.43 0.45 0.96-0.72 1.77-0.65 2.8-0.18 0.74 0.34 1.49 0.05 1.84-0.78 0.2-0.46 0.45-0.67 0.83-0.17 0.52 0.69 1.13 0.75 1.98 0.58 1.4-0.28 1.47-0.14 1.87 1.16 0.55 1.82 0.87 3.69 1.58 5.46 0.41 1.03 0.83 2.04 1.73 2.77-0.23 1.35 0.66 2.51 0.76 3.63-0.43 1.07-1.32 1.44-1.99 2.01-0.65 0.54-0.8 1.11-0.68 1.91 0.08 0.55-0.34 0.73-0.94 0.47-0.41-0.18-0.78-0.51-1.2-0.59-0.71-0.13-1.45-0.27-1.95 0.59-0.35 0.61-0.96 1.08-1.41 1.64-0.33 0.41-0.74 0.45-1.18 0.3-0.77-0.27-1.49-0.16-2.18 0.23-0.52 0.3-1.08 0.56-1.54 0.94-0.6 0.49-1.25 0.68-2.03 0.81-1.92 0.33-3.66 1.33-5.63 1.57-0.13 0.02-0.25 0.16-0.38 0.23-0.46 0.24-0.82 1.16-0.58 1.53 2.6 3.95 5.19 7.91 7.85 11.82 0.56 0.83 1.43 1.46 2.15 2.19 0.26 1.48 1.59 2.43 1.99 3.84 2.71 3.6 5.41 7.21 8.14 10.8 0.16 0.21 0.5 0.3 0.75 0.44l-0.08 0.12c0.28-0.31 0.51-0.68 0.85-0.91 0.66-0.44 3.51-3.12 3.96-3.81l-0.09 0.09c0.24-0.44 0.17-0.81-0.16-1.13 0.24-0.01 0.48-0.03 0.72-0.01 2.06 0.13 2.05 0.13 2.31-1.9 0.03-0.27 0.13-0.54 0.2-0.8 0.8 0.59 0.87 0.55 1.45-0.38 0.05-0.08 0.13-0.15 0.2-0.22 0.12-0.07 0.24-0.16 0.38-0.19 0.89-0.18 0.46-1.4 1.3-1.56 0.74-0.14 0.87-0.69 1.1-1.23 0.11-0.26 0.32-0.49 0.48-0.73-0.02-0.03-0.05-0.05-0.07-0.08 0.03 0 0.06 0.01 0.09 0 0.19 0.2 0.41 0.59 0.56 0.57 0.72-0.11 1.45-0.33 1.7-1.09 0.13-0.41 0.2-0.87 0.68-0.95 1.21-0.21 1.47-1.82 2.85-1.77 0.26 0.01 0.51-0.06 0.77-0.1-0.23-0.78-0.47-1.57-0.7-2.35 0.21 0.11 0.41 0.23 0.63 0.26 0.43 0.07 0.95 0.18 1.29 0.02 1.51-0.73 2.7-1.83 3.42-3.34 0.23-0.47 0.03-0.82-0.47-1 0.01-0.01 0.01-0.03 0.02-0.04 0.03 0.02 0.03 0.05 0.06 0.07 0.25-0.16 0.47-0.4 0.74-0.46 0.77-0.18 1.25-0.52 1.39-1.37 0.04-0.24 0.58-0.4 0.95-0.58 0.06-0.51 0.12-1.01 0.17-1.52 1.97 0.55 1.99 0.52 3.59-1.58 0.15-0.2 0.52-0.24 0.78-0.36l-0.04 0.14c0.43-0.45 0.3-1.31 1.26-1.39 0.69-0.05 0.63-0.67 0.67-1.17 0.7-0.48 1.63-0.54 2.21-1.3 0.6-0.79 1.7-1.2 1.87-2.33 1.61-0.27 1.94-1.57 2.39-2.77 0.69-0.28 1.4-0.53 1.94-1.05h0.01c0.82 0.36 1.67 0.65 2.43 1.09 0.49 0.29 0.88 0.77 1.27 1.2 0.19 0.21 0.43 0.55 0.37 0.75-0.42 1.33-0.03 2.88-1.15 4.01-0.3 0.3-0.62 0.57-0.93 0.86-0.89 0.85-1.33 1.97-1.54 3.08-0.11 0.59 0.46 1.3 0.8 2.14-0.93 0.26-1.92 0.38-2.6 1.26-0.81 1.05-0.9 2.08-0.58 3.25-0.43 0.32-0.85 0.64-1.29 0.95-0.24 0.17-0.58 0.25-0.75 0.46-0.16 0.21-0.26 0.57-0.19 0.8 0.17 0.56 0.39 0.94-0.47 1.24-1.33 0.47-1.16 1.91-1.66 2.92-0.39 0.8 0.26 1.34 0.6 1.96 0.03 0.05-0.3 0.37-0.5 0.43-0.68 0.2-1.3-0.78-2.06-0.12-0.14 0.71-0.27 1.41-0.43 2.22-0.76 0.5-1.57 1.03-2.38 1.57 0.12 0.54 0.26 1.08 0.35 1.62 0.04 0.25 0.1 0.7-0.01 0.75-1.44 0.7-1.08 2.25-1.72 3.31-0.12 0.19-0.31 0.34-0.49 0.5 0.08 0.27 0.11 0.57 0.24 0.82 0.24 0.5 0.07 0.72-0.44 0.87-1.5 0.46-1.5 0.49-0.72 1.65 0.08 0.12 0.22 0.2 0.31 0.33 0.45 0.66 0.24 1.03-0.64 1.1-0.44 0.03-0.88 0.01-1.23 0.01-0.28 0.34-0.51 0.54-0.66 0.79-0.46 0.76-0.8 1.6-1.34 2.3-0.66 0.86-0.22 2.06-0.95 2.81-0.6 0.62-1.53 0.88-1.99 1.74-0.41 0.77-1.07 1.42-1.61 2.13-0.43 0.57-0.19 1.5 0.51 1.89 0.66 0.36 1.32 0.73 2.03 1 3.68 1.38 7.36 2.74 11.05 4.1 1.13 0.42 2.25 0.94 3.43 1.17 2.88 0.55 5.36 2.04 8.06 3 0.94 0.34 1.34 1.17 1.34 2.12l9.64 0.02c0.53-1.64 1.36-3.11 0.89-4.81zm89.05-128.98c-0.12-0.03-0.24-0.16-0.33-0.27-0.39-0.51-0.17-1.03-0.03-1.54-0.02 0.55 0.29 0.95 0.65 1.36 0.3 0.34 0.16 0.55-0.29 0.45zm-0.36-1.87-0.12-0.03c0.04-0.02 0.08-0.03 0.12-0.04-0.01 0.03 0 0.05 0 0.07zm-1.86-0.4c0 0.01 0 0.02-0.01 0.02-0.04-0.01-0.08-0.02-0.11-0.02h0.12zm-3.6 3.07c-0.56 0.06-0.56-0.26-0.53-0.61 0.21 0.08 0.42 0.16 0.61 0.26 0.04 0.02-0.03 0.34-0.08 0.35zm-0.76-1.05c0.03 0.09 0.06 0.17 0.09 0.26-0.32-0.08-0.36-0.17-0.09-0.26zm-3.47 10.8c-0.1 0.03-0.2 0.07-0.29 0.05-0.08-0.02-0.19-0.25-0.17-0.27 0.21-0.19 0.37-0.1 0.46 0.22zm-1.69-33.49-0.11 0.16c-0.01 0.02-0.03 0.03-0.05 0.04l0.16-0.2zm-9.38 14.27c0.01 0.08-0.11 0.17-0.17 0.25-0.1-0.07-0.19-0.13-0.28-0.2 0-0.12-0.05-0.3 0.01-0.35 0.22-0.16 0.4-0.04 0.44 0.3zm-2.99 26.02c0.25-0.03 0.32 0.1 0.27 0.33-0.09-0.02-0.19-0.03-0.27-0.08-0.04-0.03-0.01-0.25 0-0.25zm-6.13-8.48 0.01 0.2c-0.01 0-0.04-0.01-0.04-0.02l0.03-0.18zm-0.23-11.93-0.2 0.14-0.04-0.22 0.24 0.08zm-2.18-2.74c-0.28 0.1-0.56 0.2-0.84 0.3 0.22-0.14 0.42-0.28 0.63-0.39 0.04-0.02 0.14 0.05 0.21 0.09zm-7.07 29.25v0c-0.21 0.07-0.41 0.12-0.61 0.17 0.2-0.05 0.4-0.11 0.61-0.17zm0.03 0.09c0.15 0.36 0.27 0.75 0.5 1.06 0.31 0.41 0.91 0.44 1.19 0.13 0.38-0.44 0.74-0.9 1.1-1.36-0.01 0-0.26 0.15-0.26 0.15l0.2-0.2c0.6 0.39 1.27 0.23 1.63-0.18 0.71-0.82 1.38-1.3 2.55-0.83 0.4 0.16 0.86-0.2 1.01-0.65 0.12-0.37 0.16-0.77 0.23-1.16 0.39 0.09 0.67 0.15 0.95 0.21 1.21 0.28 1.97 0.08 2.47-1.09 0.27-0.62 0.46-0.86 1.13-1 0.58-0.11 1.1-0.32 1.72-0.18 0.63 0.14 1.02-0.29 1.43-0.65 0.51-0.28 1.02-0.57 1.54-0.83s1.01-0.48 1.31-1.06c0.47-0.91 1.29-0.01 1.95-0.23 1.14-0.37 2.18-0.88 3.06-1.66 0.14-0.12 0.02-0.51 0.03-0.76 0.06 0.03 0.07 0.02 0.11 0.04-0.01 0.04-0.03 0.08-0.04 0.12 1.02 0.13 2.04 0.36 3.06 0.35 0.9 0 1.37 0.43 1.7 1.09 0.37 0.77 0.72 1.57 0.98 2.38 0.4 1.22 0.72 2.47 1.06 3.71 0.18 0.67 0.59 1.16 1.09 1.62-0.74 0.74-0.37 1.6-0.24 2.44 0.1 0.66-0.21 1.08-0.8 1.39-0.39 0.2-0.76 0.47-1.06 0.77-0.23 0.23-0.49 0.36-0.73 0.07-0.78-0.92-1.64-0.65-2.37-0.07-0.65 0.51-1.27 0.41-2.01 0.45-1.02 0.05-2 0.28-3.07 0.21-1.11-0.07-2.18 1.03-3.4 0.27-0.53 0.26-1.08 0.49-1.58 0.79-0.44 0.27-0.32 1.05-1.02 1.12-0.81-1.43-1.14-1.55-2.33-0.74-0.48 0.33-0.9 0.74-1.34 1.12-0.14-0.17-0.22-0.29-0.33-0.39-1.39-1.2-2.46-0.94-2.89 0.7-0.08 0.31 0.15 0.83-0.49 0.84-0.1-0.13-0.23-0.23-0.26-0.36-0.22-0.88-0.86-1.19-1.69-1.07-0.41 0.06-0.77 0.38-1.17 0.55-0.22 0.1-0.64 0.24-0.69 0.17-0.97-1.28-2.6-0.45-3.76-1.09-0.37-0.82-0.74-1.63-1.13-2.49 0.19-1.21 0.44-2.46 0.66-3.7zm-8.24-12.96c0.05 0.11 0.01 0.29-0.05 0.4-0.04 0.08-0.25 0.17-0.3 0.14-0.47-0.3-0.92-0.63-1.37-0.95 1.3-0.33 1.42-0.29 1.72 0.41zm13.75-45.51c0 0.02-0.01 0.05-0.01 0.08-0.03-0.02-0.07-0.04-0.11-0.06 0.06-0.01 0.09-0.01 0.12-0.02zm-5.91 10.95c-0.25 0.05-0.53 0.19-0.56-0.29 0.19 0.09 0.37 0.19 0.56 0.29zm-15.57 30.07c-0.08 0.04-0.16 0.07-0.23 0.06-0.12-0.01-0.22-0.12-0.33-0.19 0.18 0.04 0.37 0.09 0.56 0.13zm-10.61-41.71c-0.05 0.01-0.07 0.02-0.11 0.04 0-0.02 0-0.05 0.01-0.07 0.03 0 0.07 0.02 0.1 0.03zm-0.11 4.27-0.25 0.15-0.04-0.23 0.29 0.08zm-17.92 12.15c1.14-0.84 1.49-1.81 0.49-2.97-0.4-0.46-0.07-0.81 0.16-1.16 0.43-0.67 0.51-1.37 0.24-2.1-0.15-0.41-0.41-0.78-0.55-1.2-0.18-0.53 0.29-1.32 0.79-1.39 0.6-0.09 1.2-0.22 1.8-0.22 3.35-0.01 6.69 0 10.04 0.03 0.44 0 0.89 0.16 1.32 0.25 0.47 1.24 0.93 2.44 1.38 3.64-0.43 0.11-1.01 0.09-1.26 0.36-0.39 0.41-0.71 1-0.8 1.56-0.1 0.6 0.42 1.01 0.92 1.38 0.46 0.34 0.41 0.4-0.27 0.67-0.27 0.11-0.73 0.16-0.79 0.33-0.13 0.39-0.11 0.85-0.06 1.27 0.09 0.68 1.04 1.01 0.86 1.82-0.15 0.09-0.27 0.21-0.41 0.23-0.83 0.11-1.48 0.41-1.43 1.34 0.05 0.88 0.13 1.76 0.28 2.62 0.13 0.72-0.32 1.04-0.78 1.42-0.83 0.68-0.92 1.51-0.25 2.32 0.54 0.65 0.1 0.99-0.25 1.47-0.61 0.86 0.01 1.98-0.69 2.92-0.61 0.82-0.6 1.91-0.66 2.96-0.05 1-0.45 1.97-0.71 2.96-0.13 0.5-0.72 0.89-1.38 0.96-0.15 0.01-0.3 0.04-0.45 0.04-1.3 0.07-2.32-0.16-2.92-1.54-0.35-0.82-0.74-1.55-0.61-2.47 0.06-0.41 0.02-1.06-0.24-1.25-1.09-0.78-0.66-1.74-0.6-2.73 0.04-0.68-0.61-1.47-0.42-2.05 0.38-1.13-0.09-1.97-0.4-2.95-0.3-0.96 0.07-2.07-0.58-2.97-0.47-0.65-0.5-1.3-0.37-2.07 0.14-0.83 0.03-1.7 0.03-2.54-0.63-0.19-1.18-0.35-1.77-0.52 0.17-0.19 0.23-0.34 0.34-0.42zm-5.12-31.46c0.03-0.07 0.02-0.08 0.04-0.12 0.03 0.01 0.06 0.03 0.09 0.04-0.04 0.03-0.08 0.06-0.13 0.08zm-23.04 26.67c-0.03 0.07-0.24 0.09-0.37 0.08-0.19-0.01-0.37-0.03-0.55-0.05 0.18-0.13 0.34-0.28 0.54-0.36 0.34-0.15 0.51 0 0.38 0.33zm-139.61 56.37c0-0.02 0.01-0.04 0.01-0.06 0.04 0.02 0.07 0.04 0.11 0.06h-0.12zm2.18 13.85-0.1 0.26c-0.02 0-0.04 0-0.06-0.01l0.16-0.25zm0.08 0.28c0.34-0.07 0.68-0.15 1.02-0.2 0.39-0.06 0.66 0.1 0.86 0.39-0.63-0.06-1.25-0.12-1.88-0.19zm2.32 19.72c-0.06-0.01-0.18-0.18-0.17-0.2 0.14-0.17 0.27-0.11 0.37 0.14-0.07 0.03-0.14 0.07-0.2 0.06zm0.5-38.25 0.09-0.27 0.17 0.23-0.26 0.04zm0.79 32.77c-0.06-0.02-0.07-0.18-0.1-0.28 0.12-0.03 0.24-0.07 0.37-0.1 0.03 0.11 0.06 0.21 0.08 0.32-0.12 0.02-0.25 0.09-0.35 0.06zm4.9 3.28v0.02c-0.03 0.01-0.05 0-0.09 0.01 0.04-0.01 0.06-0.02 0.09-0.03zm7.57-33.46c-0.07-0.03-0.09-0.25-0.06-0.37 0.06-0.25 0.17-0.48 0.22-0.69-1.32 0.53-1.49 0.53-2.19-0.22 0.74 0.06 1.48 0.13 2.23 0.19 0.07 0.25 0.13 0.49 0.2 0.74 0.11 0.39-0.03 0.52-0.4 0.35zm23.55-2.25-0.02 0.15h-0.01l0.03-0.15zm-3.13-7.18c-0.12-0.08-0.23-0.16-0.35-0.23 0.02 0 0.04-0.01 0.04-0.01 0.04 0.02 0.16 0.11 0.31 0.24zm2.29 2.05s0.01-0.03 0.01-0.04c0.11 0.11 0.15 0.16-0.01 0.04zm1.57 5.69c-0.17-0.09-0.34-0.18-0.51-0.28 0.2-0.01 0.41-0.02 0.61-0.02-0.03 0.1-0.06 0.2-0.1 0.3zm50.1 55.83c0.1 0.24 0.17 0.5 0.22 0.75-0.18-0.37-0.36-0.74-0.54-1.11 0.14 0.11 0.26 0.22 0.32 0.36zm-4.28-4.63c-0.31-0.27-0.55-0.68-0.68-1.07-0.06-0.19 0.17-0.56 0.38-0.69 0.2-0.13 0.71-0.17 0.79-0.05 0.74 1.07 1.46 2.17 2.1 3.3 0.31 0.56-0.03 1.1-0.32 1.59-0.5-1.21-1.28-2.2-2.27-3.08zm2.28 3.11c0.02 0.01 0.03 0.02 0.05 0.03h-0.03c-0.01-0.01-0.01-0.02-0.02-0.03zm2.43 2.71h0.01c0.01 0.03 0.02 0.07 0.04 0.1-0.02-0.03-0.04-0.07-0.05-0.1zm2.22-7.25c-0.11-0.23-0.22-0.46-0.33-0.68 0.21 0.17 0.32 0.39 0.33 0.68zm-0.61-1.29c0 0.07 0.01 0.14 0.01 0.21-0.26-0.12-0.28-0.19-0.01-0.21zm0.74 1.56c-0.02-0.04-0.03-0.07-0.05-0.11l0.27-0.08-0.22 0.19zm49.25-9.89c-0.06 0.27-0.1 0.55-0.15 0.82-0.04-0.54-0.09-1.07-0.14-1.61 0.24 0.2 0.36 0.46 0.29 0.79zm-1.95-1.73c0.02 0.01 0.03 0.02 0.05 0.03-0.03 0-0.06-0.01-0.1-0.01 0.03 0 0.03-0.01 0.05-0.02zm-4.21 2.38c-0.37-0.12-0.56-0.37-0.64-0.72 0.36 0.11 0.6 0.33 0.64 0.72zm-2.26-1.46c-0.13-0.39-0.26-0.79-0.38-1.18-0.06-0.2-0.11-0.41-0.16-0.62 0.13 0.04 0.32 0.05 0.37 0.13 0.15 0.23 0.32 0.49 0.34 0.75 0.03 0.27-0.1 0.56-0.15 0.83 0.05 0.03 0.1 0.05 0.15 0.08-0.05 0.01-0.1 0-0.17 0.01zm-18.6-81.32c0.08-0.08 0.29-0.11 0.39-0.06 0.3 0.15 0.35 0.43 0.09 0.66-0.2 0.17-0.49 0.24-0.75 0.31-0.04 0.01-0.15-0.18-0.23-0.29 0.17-0.21 0.31-0.44 0.5-0.62zm-0.93 26.09c-0.02-0.01-0.03-0.01-0.05-0.02 0.03-0.03 0.06-0.05 0.08-0.08-0.02 0.06-0.01 0.06-0.03 0.1zm-2.89-4.78c0.41-0.01 0.52 0.13 0.26 0.36-0.05 0.05-0.24-0.05-0.37-0.08 0.04-0.09 0.07-0.18 0.11-0.28zm-4.95 1.48c-0.03 0.03-0.07 0.05-0.1 0.08v-0.04c0.04-0.02 0.07-0.03 0.1-0.04zm-1.52-5.66c-0.01 0-0.02-0.01-0.03-0.01 0.03-0.03 0.06-0.05 0.08-0.08-0.02 0.03-0.03 0.06-0.05 0.09zm-0.77-1.45c-0.01 0.01-0.02 0.01-0.02 0.02 0-0.01 0.01-0.02 0.02-0.02v0zm-0.81 0.95c0.22-0.29 0.46-0.56 0.69-0.82-0.05 0.63-0.1 1.26-0.16 1.89-0.06-0.07-0.1-0.14-0.21-0.18-0.45-0.18-0.63-0.47-0.32-0.89zm-0.06 19.09c0.35-1.72 0.83-3.41 1.15-5.12 0.22-1.17 0.64-2.24 1.13-3.32 0.72-1.57 1.76-2.72 3.65-3.05 0.76 1.28 2.13 1.9 3.55 2.37 0.52 0.17 1.02-0.07 1.4-0.46 0.06 0.38 0.12 0.77 0.2 1.15 0.1 0.44 0.29 0.8 0.86 0.58 0.65-0.24 1-0.04 1.27 0.6 0.27 0.65 0.93 0.47 1.47 0.43 0.45 0.45 0.53 0.5 0.75 0.15-0.03 0.05-0.06 0.1-0.05 0.15 0.05 0.26 0.17 0.51 0.27 0.77 0.41 0.12 0.83 0.36 1.21 0.31 0.4-0.05 0.74-0.42 1.14-0.6 0.46-0.21 0.84 0.11 0.74 0.6-0.09 0.42-0.27 0.82-0.32 1.24-0.1 0.79 0.59 1.26 1.46 1.01 0.28-0.08 0.51-0.29 0.78-0.39 0.49-0.18 0.78-0.02 0.86 0.5 0.12 0.8 0.79 0.65 1.34 0.71 0.36 0.32 0.7 0.47 0.96-0.1 0.35 0.66 0.79 1.3 1.66 1.15 0.76-0.13 1 0.36 1.46 0.7 0.26 0.19 0.82-0.01 1.24-0.03l0.25-0.01-0.35 0.08c0.15 0.4 0.25 0.83 0.48 1.18 0.11 0.18 0.46 0.22 0.68 0.33 0 0.05 0.01 0.04 0.01 0.08-0.04 0-0.09 0-0.13 0.01 0.3 0.32 0.55 0.71 0.91 0.95 1.29 0.86 1.61 2.07 1.33 3.46-0.08 0.37-0.43 0.74-0.75 1-0.2 0.16-0.58 0.19-0.87 0.16-1.63-0.15-2.55 0.56-2.85 2.09-0.02 0.08-0.23 0.18-0.35 0.19-0.11 0-0.27-0.09-0.34-0.19-0.08-0.11-0.08-0.27-0.12-0.42-0.47-1.82-0.49-1.82-2.44-1.33-0.29 0.07-0.59 0.21-0.86 0.17s-0.54-0.24-0.74-0.43c-0.3-0.29-0.52-0.32-0.74 0.03s-0.42 0.71-0.66 1.13c-0.21-0.31-0.37-0.51-0.48-0.73-0.13-0.26-0.14-0.64-0.35-0.79-0.47-0.33-1.01-0.7-1.56-0.78-0.77-0.1-0.89 0.58-0.99 1.16-0.06 0.36-0.25 0.52-0.54 0.43-0.12-0.04-0.22-0.19-0.28-0.31-0.19-0.39-0.29-0.83-0.55-1.17-0.34-0.46-1.17-0.61-1.65-0.29-0.36 0.24-0.63 0.86-0.94 0.86-0.72 0-0.49-0.89-0.9-1.23-0.33-0.29-0.71-0.7-1.09-0.73-1.31-0.12-2.64-0.02-3.94-0.35-0.23-0.06-0.57 0.15-0.81 0.3-0.36 0.23-0.59 0.73-1.11 0.61-0.51-0.12-0.47-0.63-0.65-1-0.31-0.62-0.84-0.87-1.45-0.76-0.3 0.05-0.59 0.13-0.87 0.24-0.56 0.22-1.1 0.44-1.65-0.05-0.46-0.41-0.81-0.87-0.85-1.49-0.01-0.58-0.09-1.18 0.02-1.75zm1.55 26.37c0.02 0.1-0.09 0.22-0.13 0.34-0.12-0.03-0.29-0.02-0.34-0.08-0.06-0.09-0.08-0.28-0.02-0.37 0.21-0.31 0.41-0.27 0.49 0.11zm0.26 51.3c-0.13-0.05-0.31-0.07-0.36-0.17-0.05-0.08 0.05-0.24 0.09-0.36 0.12 0.07 0.27 0.11 0.35 0.21 0.04 0.07-0.05 0.21-0.08 0.32zm2.11-1.4c0.48 0.16 0.97 0.33 1.45 0.49v0.05c0-0.01-0.01-0.02-0.01-0.04-0.59 0.04-1.12-0.01-1.44-0.5zm2.11-26.99c-0.37-0.24-0.33-0.44 0.03-0.44 0.07 0 0.13 0.25 0.23 0.34 0.12 0.12 0.25 0.22 0.37 0.32-0.23-0.06-0.45-0.1-0.63-0.22zm0.75 0.41c0.01-0.02 0.01-0.04 0.02-0.06 0.03 0.03 0.06 0.06 0.09 0.08-0.07-0.03-0.07-0.01-0.11-0.02zm-0.25-4.7c-0.09-0.06-0.12-0.2-0.16-0.31 0.09-0.06 0.17-0.12 0.23-0.11 0.22 0.06 0.44 0.19 0.62 0.32 0.04 0.03-0.05 0.22-0.08 0.33-0.21-0.06-0.43-0.11-0.61-0.23zm1.92 31.9c-0.01-0.04-0.01-0.07-0.02-0.11 0.06 0.05 0.09 0.06 0.15 0.11-0.07-0.01-0.09 0-0.13 0zm0.24-3.2c0.03 0.47 0.06 0.94 0.1 1.41-0.18-0.46-0.24-0.93-0.1-1.41zm2.85-2.68c0.11 0.19 0.22 0.37 0.33 0.56-0.35 0-0.67-0.03-0.33-0.56zm7.16-4.76c-0.04-0.02 0.04-0.29 0.06-0.29 0.43 0.02 0.42 0.29 0.43 0.55-0.17-0.08-0.34-0.16-0.49-0.26zm0.87-22.25h0.18c-0.06 0.02-0.12 0.01-0.18 0.03v-0.03zm0.94-1.69c0.09-0.07 0.18-0.14 0.27-0.2l-0.24 0.24c-0.01-0.01-0.02-0.03-0.03-0.04zm3.2 15.04c-0.11-0.05-0.25-0.08-0.3-0.16-0.04-0.06 0.05-0.2 0.08-0.3 0.1 0.06 0.24 0.09 0.29 0.18 0.03 0.05-0.04 0.18-0.07 0.28zm-1.09-12.41c-0.32-0.3-0.61-0.62-0.92-0.92-0.05-0.02-0.11-0.01-0.16-0.03h0.19c-0.4-0.53-0.8-1.07-1.19-1.62 0.4-0.09 0.8-0.18 1.18-0.27 0.59 0.7 1.1 1.38 1.7 1.98 0.28 0.28 0.72 0.41 1.06 0.63-0.24 0.12-0.48 0.23-0.71 0.37-0.42 0.27-0.8 0.18-1.15-0.14zm1.87-0.13c-0.01 0.36-0.04 0.72 0.02 1.07 0.09 0.48 0.13 0.94-0.04 1.38-0.74-0.83-0.38-1.64 0.02-2.45zm0.11 2.56c0.43-0.07 0.8 0.07 1.11 0.37-0.47 0.12-0.79-0.13-1.11-0.37zm1.21 0.46zm0.12 10.14c0.01 0.01 0.03 0.01 0.04 0.02-0.03 0-0.05-0.01-0.07-0.01 0 0 0.01 0 0.03-0.01zm0.63-24.08c-1.43-0.27-2.27 0.37-2.9 1.55-0.32 0.61-0.89 1.1-1.26 1.53-0.65-0.04-1.09-0.09-1.54-0.07-0.35 0.01-0.46 0.27-0.34 0.63-0.04-0.01-0.07-0.01-0.1-0.02v-0.1c-0.44 0.04-0.91 0-1.32 0.13-0.92 0.29-1.59 0.81-1.48 1.88 0.01 0.12-0.05 0.33-0.14 0.37-0.23 0.1-0.63 0.26-0.73 0.16-0.52-0.51-0.93-1.17-1.82-1.03-0.88 0.14-1.02 0.89-1.38 1.53-0.33 0.59-0.98 1.02-1.54 1.46-0.17 0.13-0.61 0.17-0.74 0.06-0.46-0.42-0.85-0.82-1.27 0.01-1.48 0.56-2.78 1.35-3.65 2.66-0.6-0.46-1.2-0.76-2.03-0.47-0.6 0.21-1.18-0.02-1.49-0.6-0.41-0.76-0.75-1.56-1.19-2.3-0.1-0.17-0.36-0.24-0.59-0.34-0.05-0.55-0.06-1.1-0.19-1.63-0.44-1.7-0.9-3.4-1.42-5.08-0.27-0.87-0.35-1.71-0.23-2.6 0.11-0.78 1.12-1.62 1.94-1.52 0.44 0.05 0.87 0.28 1.31 0.33 0.79 0.09 1.53-0.05 1.95-0.8 0.45-0.8 0.87-0.35 1.42-0.09 0.92 0.44 1.76 0.19 2.33-0.68 0.16-0.24 0.36-0.45 0.54-0.69 0.13 0.23 0.25 0.46 0.4 0.67 0.83 1.22 1.87 1.23 2.83 0.02 0.16-0.2 0.32-0.41 0.47-0.61 0.15 0.07 0.31 0.1 0.4 0.19 0.58 0.6 1.28 0.74 2.06 0.47 0.68-0.24 0.75-0.86 0.9-1.43 0.03-0.13 0.17-0.24 0.25-0.35 0.19 0.19 0.37 0.38 0.56 0.56 0.97 0.9 1.69 0.92 2.62-0.04 0.31-0.32 0.54-0.72 0.94-0.23 0.43 0.52 0.9 0.77 1.55 0.53 0.58-0.21 1.05-0.53 1.29-1.15 0.18-0.46-0.11-1.1 0.6-1.43 0.15 0.43 0.25 0.85 0.44 1.23 0.32 0.67 0.81 0.85 1.48 0.57 0.55-0.24 1.08-0.53 1.65-0.81 1.01 0.25 2.03 0.51 3.03 0.76 0.63 1.04 1.56 2.1 1.21 3.23-0.4 1.3 0.06 2.26 0.48 3.34 0.06 0.17-0.2 0.46-0.35 0.68-0.02 0.03-0.31-0.05-0.4-0.15-0.3-0.33-0.56-0.69-0.84-1.02-0.69-0.81-1.02-0.88-1.76-0.13-0.55 0.59-1.12 0.98-1.95 0.82zm2.83 14.38c0.36 0.13 0.71 0.27 1.07 0.41-0.44 0.03-0.79-0.12-1.07-0.41zm1.26 0.73c0.27 0.78 0.14 1.59 0.08 2.4l-0.01-0.01c-0.02-0.81-0.04-1.6-0.07-2.39zm0.53 3.26-0.13 0.25 0.08-0.16c0.09-0.38 0.02-0.71-0.35-0.93 1.86 0.03 2.12 0.36 1.61 2.02 0.03 0.02 0.06 0.05 0.1 0.07-0.02 0-0.04-0.01-0.06-0.01-0.18-0.62-0.64-1.01-1.25-1.24zm4.91-9.81-0.03-0.24 0.27 0.08-0.24 0.16zm0.69 6.81c-0.05-0.03-0.09-0.08-0.13-0.12 0.12 0.02 0.25 0.04 0.37 0.06-0.08 0.02-0.19 0.09-0.24 0.06zm2.04-1.81c0.49 0.1 1.02 0.11 1.34 0.52-0.45-0.18-0.9-0.35-1.34-0.52zm1.72 17.75c-0.23-0.09-0.24-0.24-0.12-0.43 0.08 0.07 0.18 0.13 0.23 0.21 0.02 0.04-0.11 0.22-0.11 0.22z"/>
<path class="st0" d="m234.65 60.55c-0.09 0-0.17-0.04-0.26-0.05 0.05 0.05 0.09 0.1 0.14 0.14l0.12-0.09z"/>
<path class="st0" d="m152.47 58.89c0-0.04 0.01-0.08 0.02-0.12-0.04 0-0.08 0.02-0.12 0.02l0.1 0.1z"/>
<path class="st0" d="m147.79 62.32c-0.01 0.04-0.02 0.08-0.03 0.11 0.04 0 0.07-0.02 0.12-0.02l-0.09-0.09z"/>
<path class="st0" d="m240.05 65.07c0.03-0.01 0.07-0.01 0.1-0.02v-0.08l-0.1 0.1z"/>
<path class="st2" d="m273.89 155.51c0 8.42-4.7 13.73-14.11 15.95l2.87 1.15c5.97 2.37 9.91 5.51 11.82 9.41 1.45 2.98 2.18 6.08 2.18 9.29 0 7.27-2.62 12.91-7.86 16.92-5.24 4.02-12.56 6.02-21.97 6.02-2.98 0-6.12-0.11-9.41-0.34l-8.15-0.57c-2.14-0.15-4.47-0.23-7-0.23-1.84 0-4.51 0.19-8.03 0.57s-6.04 0.57-7.57 0.57h-0.92c-2.45 0-4.42-0.76-5.91-2.29s-2.24-3.56-2.24-6.08c0-2.14 0.59-3.94 1.78-5.39 1.18-1.45 2.66-2.18 4.42-2.18 0.69 0 1.62 0.13 2.81 0.4 1.18 0.27 2.08 0.4 2.7 0.4 2.06 0 3.1-2.6 3.1-7.8v-31.78c0-5.12-1.03-7.69-3.1-7.69-0.61 0-1.51 0.13-2.7 0.4s-2.12 0.4-2.81 0.4c-1.76 0-3.23-0.73-4.42-2.18s-1.78-3.25-1.78-5.39c0-2.52 0.75-4.57 2.24-6.14s3.46-2.35 5.91-2.35h0.46c0.23 0.08 0.38 0.11 0.46 0.11l8.15 0.8c2.29 0.23 5.35 0.34 9.18 0.34 2.98 0 5.35-0.08 7.11-0.23l7.8-0.69c1.76-0.15 4.32-0.23 7.69-0.23 5.05 0 9.6 0.54 13.65 1.61s7.34 3.19 9.87 6.37c2.52 3.18 3.78 6.8 3.78 10.85zm-41.76 7.69c0 1.53 0.3 2.49 0.92 2.87 0.38 0.31 1.34 0.46 2.87 0.46h3.56c3.98 0 7.13-0.73 9.47-2.18 2.33-1.45 3.5-3.4 3.5-5.85 0-5.12-3.98-7.69-11.93-7.69-2.91 0-4.9 0.23-5.97 0.69-1.61 0.77-2.41 2.41-2.41 4.93v6.77zm23.06 27.31c0-3.14-1.42-5.66-4.25-7.57s-6.58-2.87-11.24-2.87h-3.44c-1.68 0-2.79 0.25-3.33 0.75s-0.8 1.43-0.8 2.81v8.37c0 2.91 0.84 4.92 2.52 6.02 1.68 1.11 4.74 1.66 9.18 1.66 3.37 0 6.1-0.84 8.2-2.52 2.11-1.68 3.16-3.9 3.16-6.65z"/>
</svg>