<?xml version="1.0" encoding="UTF-8"?>
<svg enable-background="new 0 0 595.28 183.32" version="1.1" viewBox="0 0 595.28 183.32" xml:space="preserve" xmlns="http://www.w3.org/2000/svg">
<style type="text/css">.st0{fill:#58595B;}.st1{fill:#BE1E2D;}.st2{fill:#BE1E2D;stroke:#58595B;stroke-width:0.8918;stroke-miterlimit:10;}</style>
<path d="m145.45 36.3c-0.02-0.14 0-0.34-0.08-0.4-0.76-0.6-1.53-1.18-2.3-1.75-0.11-0.08-0.29-0.08-0.43-0.11l0.06-0.05c0.59 0.64 1.18 1.29 1.79 1.92 0.27 0.27 0.62 0.39 1.02 0.34-0.01 0-0.06 0.05-0.06 0.05z"/>
<path d="m100.69 33.14c-0.67 0.01-1.2 0.21-1.41 0.89l-0.05-0.04c0.74 0.1 1.23-0.17 1.4-0.9l0.06 0.05z"/>
<path d="m153.92 29.97c-0.15 0.03-0.3 0.05-0.44 0.11-0.23 0.1-0.28 0.31-0.14 0.52 0.13 0.2 0.32 0.29 0.57 0.24l-0.06 0.05v-0.97l0.07 0.05z"/>
<path d="m148.72 91.72c0.31-0.01 0.48-0.16 0.48-0.47l0.05 0.04h-0.55l0.07-0.04v0.52l-0.05-0.05z"/>
<path d="m148.28 91.72c0.04 0.17 0.08 0.35 0.31 0.3 0.06-0.02 0.08-0.19 0.12-0.29l0.05 0.05h-0.54l0.06-0.06z"/>
<path d="m89.01 94.88c-0.03 0.16 0.02 0.23 0.15 0.18 0.01 0 0-0.11-0.02-0.12-0.05-0.02-0.11-0.01-0.17-0.02l0.04-0.04z"/>
<polygon points="101.1 96.31 101.07 96.2 101.16 96.26"/>
<path d="m86.59 97.23c0.05 0.03 0.1 0.07 0.15 0.08 0.02 0.01 0.08-0.07 0.08-0.07-0.09-0.11-0.18-0.09-0.26 0.04-0.01 0.01 0.03-0.05 0.03-0.05z"/>
<path d="m98.81 34.5c-0.31 0-0.46 0.15-0.47 0.45l-0.04-0.05c0.35 0.03 0.48-0.14 0.47-0.45l0.04 0.05z"/>
<path d="m99.29 34.03c-0.31 0.01-0.47 0.16-0.47 0.46l-0.05-0.05c0.32 0.01 0.5-0.12 0.47-0.45l0.05 0.04z"/>
<path d="m110 55.24c-0.09-0.2-0.18-0.43-0.46-0.4-0.26 0.03-0.34 0.25-0.38 0.47-0.01 0.07-0.02 0.15-0.04 0.22s-0.05 0.14-0.07 0.21l-0.05-0.07c0.35-0.16 0.69-0.32 1.04-0.48l-0.04 0.05z"/>
<path d="m98.37 52.48c-0.19 0-0.37 0-0.56 0.01 0.32 0.42 0.33 0.42 0.56-0.01z"/>
<path d="m94.16 50.23h-0.54c0.03 0.31 0.27 0.42 0.53 0.51 0-0.17 0-0.34 0.01-0.51z"/>
<path d="m102.49 82.76 0.04-0.04-0.06 0.1c0 0.01 0.02-0.06 0.02-0.06z"/>
<polygon points="100.22 84.5 100.27 84.61 100.16 84.55"/>
<path d="m138.51 45.35c0-0.33-0.01-0.66-0.01-0.99-0.13 0.07-0.27 0.13-0.38 0.22-0.2 0.17-0.2 0.36 0.01 0.55 0.1 0.09 0.25 0.14 0.38 0.22z"/>
<path d="m140.37 43.08v-0.98c-0.06 0.04-0.13 0.06-0.18 0.11-0.45 0.43-0.43 0.52 0.18 0.87z"/>
<path d="m143.17 85.41h-0.53c0 0.07 0.02 0.15 0 0.21-0.15 0.46 0.14 0.63 0.52 0.75 0-0.32 0.01-0.64 0.01-0.96z"/>
<path d="m141.37 84.62c-0.05-0.02-0.15-0.06-0.15-0.05-0.07 0.13-0.03 0.13 0.1-0.02 0 0.01 0.05 0.07 0.05 0.07z"/>
<path class="st0" d="m96.46 89.01c0.98 1.27 2.35 2.15 3.56 3.18 0.59 0.5 1.3 0.81 2.09 0.9l-0.07 0.05c-0.08-0.12-0.14-0.28-0.25-0.36-0.94-0.64-1.86-1.3-2.7-2.06-0.55-0.5-1.2-0.91-1.83-1.32-0.24-0.16-0.55-0.23-0.83-0.33l0.03-0.06z"/>
<path class="st1" d="m128.23 54.3c-0.17-0.02-0.37-0.12-0.49-0.06-0.39 0.19-0.63 0.06-0.91-0.2-0.21-0.2-0.46-0.13-0.55 0.11-0.08 0.21-0.12 0.43-0.21 0.64-0.04 0.08-0.16 0.16-0.25 0.17-0.1 0.01-0.25-0.04-0.3-0.11-0.11-0.19-0.17-0.41-0.27-0.61-0.04-0.08-0.17-0.19-0.24-0.18-0.21 0.04-0.21 0.22-0.2 0.39 0 0.06 0.02 0.11 0.02 0.17-0.01 0.09-0.01 0.18-0.01 0.27h0.02v-0.31c-0.29 0.03-0.59 0.03-0.88 0.1-0.22 0.05-0.44 0.17-0.5 0.43-0.07 0.34-0.14 0.67-0.23 1-0.11 0.4-0.26 0.46-0.82 0.42-0.11-0.01-0.23 0-0.41 0-0.05 0.19-0.09 0.41-0.19 0.61-0.07 0.14-0.19 0.34-0.33 0.37-0.52 0.11-1.02 0.25-1.52 0.43-0.07 0.02-0.23-0.08-0.28-0.16-0.09-0.14-0.17-0.31-0.17-0.48-0.02-0.34 0.02-0.68 0.03-1.02 0.01-0.33-0.3-0.5-0.63-0.34-0.1 0.05-0.18 0.15-0.28 0.21-0.21 0.12-0.48 0-0.54-0.23-0.04-0.16-0.1-0.33-0.1-0.5 0-0.23 0.05-0.46 0.06-0.68 0.01-0.18-0.08-0.32-0.26-0.4-0.15-0.06-0.37 0.04-0.43 0.2-0.08 0.21-0.14 0.44-0.21 0.65-0.05 0.13-0.35 0.12-0.46 0.02-0.23-0.22-0.24-0.51-0.28-0.79-0.07-0.45-0.17-0.52-0.54-0.29-0.23 0.14-0.41 0.15-0.65 0.04-0.54-0.24-0.55-0.23-0.91 0.29l0.08-0.06h-0.05c-0.06 0-0.12 0.01-0.18 0-1.06-0.2-1.09-0.21-1.25 0.76-0.07 0.44-0.33 0.56-0.69 0.62l0.03-0.05c-0.19 0.28-0.34 0.62-0.79 0.37l0.04 0.06c-0.48 0.07-0.74 0.32-0.73 0.8 0.01 0.38-0.32 0.4-0.62 0.54 0.02 0.55 0.03 1.12 0.07 1.68 0.05 0.85 0.16 1.7 0.02 2.56-0.04 0.23 0 0.48 0.2 0.63 0.42 0.33 0.46 0.76 0.46 1.23 0 0.16 0.06 0.37 0.18 0.45 0.35 0.26 0.43 0.69 0.69 0.97 0.38 0.41 0.51 1.04 1.12 1.26 0.32 0.41 0.64 0.82 0.98 1.25 0.15-0.16 0.29-0.34 0.46-0.48 0.04-0.04 0.27 0.03 0.28 0.08 0.06 0.28 0.09 0.56 0.11 0.84 0.02 0.33 0.24 0.5 0.49 0.66 0.31 0.2 0.51-0.16 0.81-0.16l0.3 0.78c0.37-0.19 0.52-0.21 0.57-0.04 0.19 0.57 0.51 1.01 1.18 1.08 0.22 0.02 0.27 0.19 0.37 0.33 0.1 0.13 0.23 0.25 0.36 0.36 0.21 0.16 0.45 0.11 0.56-0.11 0.27-0.52 0.27-0.52 0.9-0.42 0-0.12-0.23-0.23-0.01-0.34 0 0.11 0.01 0.22 0.01 0.32-0.29 0.65-0.29 0.66 0.44 1.05 0.09-0.34 0.17-0.67 0.28-0.98 0.03-0.08 0.19-0.16 0.28-0.16 0.07 0 0.17 0.13 0.2 0.22 0.06 0.22 0.06 0.45 0.12 0.67 0.04 0.14 0.16 0.14 0.29 0.1 0.33-0.11 0.39-0.38 0.49-0.65 0.1-0.28 0.22-0.28 0.53-0.06 0.09 0.06 0.18 0.12 0.29 0.18 0.21-0.19 0.43-0.39 0.65-0.58 0.13-0.12 0.27-0.23 0.46-0.18 0.32 0.09 0.58-0.05 0.83-0.21 0.29-0.19 0.22-0.5 0.27-0.78 0.04-0.24 0.11-0.26 0.46-0.09 0.19 0.09 0.35 0.06 0.47-0.06 0.53-0.53 1.07-1.05 1.63-1.56 0.12-0.11 0.25-0.27 0.27-0.43 0.06-0.39 0.19-0.65 0.65-0.63 0.39-0.42 0.86-0.79 0.84-1.43-0.01-0.4-0.01-0.8 0-1.2 0.01-0.21 0.07-0.42 0.12-0.66 0.45 0.39 0.2 0.92 0.45 1.31 0.02 0.03 0.09 0.06 0.14 0.06s0.14-0.03 0.15-0.06c0.15-0.77 0.77-1.42 0.64-2.27-0.05-0.29 0.14-0.55 0.37-0.75 0.16-0.13 0.21-0.3 0.17-0.46-0.12-0.45-0.1-0.88 0.01-1.34 0.13-0.58-0.06-1.12-0.41-1.62-0.29-0.42-0.7-0.8-0.65-1.38 0.01-0.17-0.07-0.32-0.27-0.39-0.17-0.05-0.34-0.1-0.49-0.18-0.21-0.11-0.4-0.25-0.65-0.41-0.02-0.3-0.04-0.63-0.07-1.01-0.33-0.08-0.66-0.16-0.99-0.23-0.01 0.02-0.01 0.03 0 0.04zm-8.76 12.83c0.07 0 0.15-0.01 0.22-0.01 0.07 0.26 0.14 0.52 0.19 0.79 0.01 0.04-0.06 0.13-0.07 0.13-0.09-0.03-0.25-0.05-0.26-0.11-0.03-0.27-0.05-0.54-0.08-0.8zm-1.36-2.05h0.06c0.01 0.16 0.02 0.33 0.03 0.49 0 0.05-0.02 0.11-0.03 0.16-0.03-0.08-0.08-0.16-0.09-0.25-0.01-0.12 0.02-0.26 0.03-0.4zm8.27 1.69c-0.04 0.13-0.14 0.2-0.25 0.14-0.08-0.05-0.13-0.18-0.13-0.27 0-0.13 0.13-0.2 0.24-0.13 0.08 0.04 0.1 0.17 0.14 0.26zm-12.79-11.04c-0.05-0.03-0.13-0.06-0.13-0.09-0.02-0.11-0.04-0.24 0.01-0.33 0.06-0.12 0.21-0.1 0.26 0.03 0.04 0.09 0.02 0.22 0 0.32 0 0.03-0.09 0.05-0.14 0.07zm10.56 7.18c0.03 0.01 0.09 0.01 0.1 0.02 0.05 0.17 0 0.23-0.09 0.14-0.04-0.03-0.01-0.11-0.01-0.16zm-8.82-0.71c0.01 0.05 0.04 0.1 0.03 0.15-0.02 0.17-0.08 0.18-0.14 0.02-0.02-0.04-0.01-0.1 0.01-0.15 0-0.02 0.06-0.01 0.1-0.02zm2-0.12c0.02-0.09 0.03-0.18 0.05-0.27 0.03 0.02 0.1 0.04 0.1 0.07 0 0.09-0.03 0.18-0.04 0.27-0.04-0.03-0.08-0.05-0.11-0.07zm5.4-0.94c0.02 0.04 0.06 0.08 0.07 0.13s-0.02 0.1-0.03 0.15c-0.03-0.04-0.07-0.08-0.07-0.13-0.01-0.05 0.02-0.1 0.03-0.15zm-1.87-2.2c-0.01-0.13 0.05-0.21 0.16-0.19 0.04 0.01 0.09 0.08 0.09 0.11-0.01 0.09-0.05 0.18-0.08 0.27-0.04-0.02-0.1-0.02-0.13-0.05s-0.03-0.09-0.04-0.14zm-2.08 9.79 0.04-0.13 0.07 0.1-0.11 0.03zm2.17-0.32 0.03-0.12 0.06 0.09-0.09 0.03zm2.11 0c0-0.04-0.02-0.11 0-0.13 0.09-0.08 0.16-0.04 0.17 0.08 0 0.03-0.04 0.09-0.07 0.1-0.02 0.01-0.07-0.03-0.1-0.05zm-5.73-1.07 0.1-0.08v0.15l-0.1-0.07zm-1.41-1.3c0-0.05-0.02-0.11 0-0.16 0-0.01 0.08-0.01 0.13-0.01 0 0.05 0.02 0.11 0.01 0.16-0.01 0.01-0.09 0-0.14 0.01zm4.42-0.06-0.11-0.03 0.07-0.11 0.04 0.14zm9.61-7.28-0.06 0.06v-0.11l0.06 0.05zm-11.13 4.76 0.07 0.13-0.11 0.02 0.04-0.15zm2.56-3.07-0.03 0.11-0.05-0.08 0.08-0.03z"/>
<path class="st0" d="m51.1 70.97c-0.01 0-0.03 0.01-0.04 0.01 0.1 0.02 0.16 0.01 0.04-0.01z"/>
<path class="st0" d="m51.1 70.97c0.21-0.04-0.21-0.05 0 0z"/>
<path class="st0" d="m36.21 48.4c0.15-0.07-0.83-0.05-1.08-0.01 0.37 0.19 0.7 0.19 1.08 0.01z"/>
<path class="st0" d="m101.15 96.1c0.02-0.02 0.04-0.04 0.06-0.05l-0.06 0.05z"/>
<path class="st0" d="m100.27 84.29c-0.02 0.01-0.03 0.02-0.05 0.02v0.03l0.05-0.05z"/>
<path class="st0" d="m102.1 92.93c0.02-0.02 0.05-0.03 0.07-0.05v-0.01l-0.07 0.06z"/>
<path class="st0" d="m96.52 88.8c-0.02 0-0.03 0.01-0.05 0.01 0 0.02 0.01 0.03 0.01 0.05l0.04-0.06z"/>
<path class="st0" d="m114.1 110.62 10.81 0.1c-0.02-0.14-0.04-0.28-0.06-0.43l-9.82-0.02c-0.01 0.06-0.03 0.11-0.04 0.17-0.3 0.05-0.61 0.09-0.89 0.18z"/>
<path class="st0" d="m153.97 29.76v0c-0.02-0.02-0.05-0.04-0.07-0.05l0.07 0.05z"/>
<path class="st0" d="m115.44 107.81c0.44-0.59-0.01-1.36 0.37-1.94 0.5-0.75 0.24-1.26-0.42-1.71-0.18-0.12-0.19-0.24-0.02-0.33 0.07-0.01 0.14-0.04 0.21-0.04 0.15-0.01 0.31 0.02 0.46 0 0.3-0.04 0.52-0.4 0.42-0.68-0.05-0.14-0.1-0.29-0.2-0.39-0.33-0.36-0.27-0.62 0.12-0.9 0.17-0.12 0.36-0.41 0.32-0.57-0.16-0.68 0.33-1.31 0.13-1.98-0.08-0.28-0.24-0.55 0.12-0.87 2.25-0.01 4.56-0.02 6.87-0.01l-0.08-0.71c-1.73 0.02-3.45 0.05-5.18 0.05-0.57 0-1.06-0.48-1.03-1 0.03-0.66-0.01-1.36 0.19-1.97 0.14-0.44 0.35-0.85 0.17-1.27-0.25-0.58 0.51-0.7 0.48-1.15-0.01-0.22 0.01-0.46-0.08-0.65-0.14-0.28-0.25-0.54-0.03-0.82 0.41-0.51 0.3-1.08 0.31-1.67 0-0.41 0.3-0.82 0.13-1.29-0.23-0.62 0.53-0.85 0.63-1.35 0.04-0.22 0.03-0.45 0.08-0.66 0.13-0.59-0.25-1.14-0.09-1.74 0.05-0.19-0.1-0.42-0.13-0.64-0.02-0.13-0.03-0.31 0.04-0.4 0.56-0.64 1.11-1.26 2.14-1.04 0.2 0.04 0.4 0.12 0.6 0.23l-0.11-0.97c-0.31 0.05-0.62 0.09-0.93 0.14 0-0.03-0.01-0.06-0.01-0.09-0.47 0-0.94 0.05-1.4-0.01-0.38-0.05-0.73-0.25-1.1-0.35-0.29-0.07-0.6-0.1-0.9-0.13s-0.62-0.01-0.91-0.07c-2.36-0.55-4.56-1.44-6.59-2.75-0.52-0.34-1.02-0.68-1.42-1.14-0.94-1.09-1.9-2.18-2.83-3.28-0.44-0.52-0.82-1.08-1.09-1.72-0.65-1.53-1.32-3.04-2.01-4.55-0.29-0.63-0.43-1.27-0.43-1.96 0-0.6 0.02-1.22-0.16-1.78-0.42-1.27-0.31-2.52-0.01-3.78 0.26-1.09 0.63-2.16 0.85-3.26 0.2-0.98 0.6-1.85 1.21-2.64 0.74-0.97 1.32-2.03 1.84-3.12 0.33-0.69 0.69-1.33 1.51-1.62 0.25-0.09 0.42-0.42 0.62-0.64 0.2-0.23 0.35-0.53 0.59-0.68 1.1-0.69 1.99-1.7 3.37-1.95 0.22-0.04 0.43-0.18 0.63-0.29 1.29-0.75 2.82-0.81 4.17-1.38 0.13-0.05 0.32-0.04 0.46 0 0.56 0.15 1.08-0.01 1.6-0.17 1.45-0.44 2.89-0.38 4.36-0.07 1.05 0.23 2.07 0.57 3.17 0.63 0.91 0.05 1.83 0.35 2.68 0.7 1.07 0.44 2.08 1.01 3.08 1.59 0.66 0.38 1.29 0.85 1.86 1.35 0.4 0.35 0.63 0.86 1.02 1.22 0.44 0.42 0.98 0.73 1.44 1.13 0.29 0.25 0.55 0.54 0.76 0.85 0.91 1.41 1.66 2.89 2.08 4.51 0.4 1.52 0.7 3.07 1.15 4.58 0.22 0.74 0.5 1.49 0.21 2.19-0.3 0.72-0.07 1.53-0.48 2.19-0.63 1-0.9 2.1-1.18 3.21l1.28 0.22c0.08-0.25 0.16-0.5 0.23-0.75 0.56-0.21 1.08 0 1.6 0.05 0.22 0.02 0.48 0.1 0.67 0.03 0.39-0.15 0.65-0.2 1 0.14 0.28 0.27 0.75 0.01 1.11 0.06 0.44 0.05 0.85 0.3 1.28 0.38 0.2 0.04 0.44-0.1 0.67-0.15 0.26-0.06 0.38 0.11 0.56 0.25 0.59 0.45 0.78 0.4 1.56-0.25 0.73 1.08 0.84 1.11 1.91 0.5 0.78 0.48 1.52 1.08 2.56 0.66 0.1-0.04 0.32 0.04 0.4 0.14 0.53 0.63 1.1 0.34 1.67 0.08 0.37 0.35 0.74 0.69 1.12 1.04-0.03 0.22-0.08 0.44-0.11 0.65l0.76 0.13c0.12-0.49 0.39-0.71 0.89-0.78 0.3-0.04 0.58-0.17 0.87-0.26 0.14-0.04 0.3-0.17 0.4-0.13 0.48 0.18 0.83 0.79 1.43 0.54 0.56-0.24 0.87 0.11 1.25 0.32 0.29 0.16 0.57 0.17 0.87 0.01 0.13-0.07 0.39-0.13 0.42-0.09 0.6 0.83 1.56 0.45 2.34 0.64 0.75 0.18 1.5 0.29 2.22 0.58 0.63 0.26 1.34 0.32 2.02 0.46 0.19 0.04 0.63-0.34 0.66-0.55 0.03-0.22 0.08-0.44 0.08-0.67 0.01-3.3 0.01-6.59 0.01-9.89 0-2.17-0.01-4.35-0.02-6.52 0-0.3-0.02-0.6-0.03-0.9-0.02-0.27-0.34-0.55-0.65-0.51-0.6 0.08-1.16 0.26-1.8 0.12-0.35-0.08-0.71 0.23-0.83 0.65-0.05 0.19-0.12 0.37-0.18 0.59-0.52-0.41-0.94-0.87-1.67-0.62-0.2 0.07-0.47 0.06-0.68 0-0.89-0.27-1.3 0.09-1.43 0.92-0.02 0.14-0.24 0.15-0.35 0.03-0.1-0.11-0.14-0.27-0.24-0.38-0.27-0.3-0.72-0.37-1.02-0.12-0.23 0.19-0.42 0.43-0.62 0.64-0.97-0.59-1.12-0.57-1.87 0.29-0.27-0.2-0.27-0.76-0.84-0.57-0.44 0.15-0.75-0.02-0.92-0.42-0.14-0.34-0.24-0.71-0.39-1.05-0.04-0.09-0.17-0.15-0.28-0.23-0.13-0.92-0.21-1.85-0.43-2.75-0.15-0.63-0.49-1.23-0.81-1.8-0.32-0.58-0.23-1.08 0.15-1.56 0.15 0.01 0.3 0.02 0.45 0.04 0.33 0.05 0.61-0.03 0.79-0.32 0.11-0.18 0.13-0.5 0.43-0.45 0.59 0.11 1.04-0.21 1.53-0.41 0.5-0.2 0.65-0.6 0.55-1.1-0.01-0.06 0.06-0.14 0.12-0.26 0.19 0.06 0.39 0.11 0.59 0.18 1.02 0.36 1.51 0.2 2.1-0.7 0.08-0.12 0.17-0.22 0.26-0.34 0.3 0.04 0.6 0.08 0.91 0.12 0.92-0.4 1.84-0.79 2.76-1.19 0.28-0.12 0.4-0.49 0.26-0.76-0.1-0.2-0.19-0.41-0.33-0.58-0.84-1.07-1.69-2.14-2.55-3.21s-1.64-2.18-2.36-3.34c-1-1.61-2.25-3.05-3.28-4.64-0.61-0.94-1.5-1.71-2.27-2.56-0.2-0.22-0.58-0.14-0.76 0.14-0.26 0.41-0.14 1.07-0.85 1.22-0.11 0.02-0.15 0.38-0.21 0.59 0.29 0.18 0.59 0.36 0.88 0.54-0.25 0.28-0.6 0.33-0.95 0.39l0.06-0.05c-0.31 0.32-0.62 0.26-1.02 0.1-0.51-0.22-0.73 0.03-0.7 0.7 0 0-0.09 0.1-0.09 0.1l0.03-0.15c-0.59 0.26-0.95 0.72-1.23 1.26 0.03 0 0.05-0.01 0.08-0.01 0.01 0.02 0.01 0.04 0.02 0.06-0.19-0.07-0.39-0.2-0.58-0.2-0.38 0-0.48 0.19-0.47 0.71h-0.06c0.01-0.02 0.01-0.04 0.02-0.07-0.03 0.02-0.06 0.05-0.09 0.07-0.02 0-0.03 0.01-0.03 0.02-0.48 0.33-0.88 0.75-1.23 1.2-0.01 0-0.01 0-0.02-0.01 0 0.01 0 0.02 0.01 0.02-0.02 0.02-0.03 0.04-0.05 0.06l0.06-0.03c0.01 0.02 0.02 0.05 0.02 0.07-0.43 0.11-0.67 0.54-1.16 0.6-0.37 0.05-0.71 0.26-0.94 0.58-0.24 0.34-0.65 0.26-0.98 0.36 0 0.13-0.01 0.26 0 0.4 0.01 0.46-0.06 0.87-0.54 1.11-0.65 0.32-0.9 0.94-1.2 1.5-0.13-0.01-0.31-0.07-0.36-0.02-0.33 0.36-0.63 0.75-0.93 1.14 0.01 0 0.16-0.05 0.16-0.05l-0.11 0.06c-0.14 0.04-0.37 0.04-0.42 0.14-0.15 0.26-0.22 0.51-0.59 0.61-0.52 0.15-0.99 0.43-1.22 0.96 0.19 0.09 0.39 0.15 0.56 0.27 0.1 0.07 0.19 0.24 0.17 0.35-0.01 0.08-0.2 0.15-0.32 0.19-0.13 0.04-0.28 0.05-0.42 0.07-0.05 0.67-0.1 0.71-0.5 0.45-0.06-0.04-0.11-0.1-0.17-0.14-0.35-0.21-0.6-0.2-0.75 0.08-0.17 0.32-0.29 0.67-0.42 1 0.15-0.03 0.29-0.08 0.41-0.16l0.02 0.02c-0.02 0.01-0.04 0.02-0.07 0.03 0.16 0.43-0.17 0.7-0.36 1.02-0.14 0.22-0.37 0.28-0.59 0.18-0.57-0.25-1.03-0.2-1.39 0.35-0.32 0.49-0.67 0.95-1 1.42-0.29 0.03-0.59 0.04-0.87 0.09-0.47 0.08-0.91 0.05-1.29-0.25-0.18-0.14-0.35-0.28-0.54-0.41-0.26-0.18-0.43-0.4-0.46-0.71-0.03-0.3 0.04-0.56 0.21-0.8 0.3-0.25 0.4-0.53 0.2-0.9-0.07-0.12-0.09-0.27-0.13-0.4h-0.17l0.11-0.03c0.39 0.09 0.71 0.01 0.89-0.37 0.15-0.31 0.3-0.61 0.45-0.91 0.24-0.17 0.54-0.3 0.67-0.52 0.32-0.56 0.89-1.09 0.46-1.85-0.03-0.06 0.09-0.26 0.19-0.32 0.77-0.48 0.95-1.32 1.35-2.03 0.14-0.25 0.16-0.56 0.23-0.85 0.09-0.41 0.6-0.42 0.78-0.76 0.33-0.58 0.74-1.13 0.63-1.85-0.02-0.12 0.05-0.29 0.14-0.38 0.53-0.53 0.95-1.18 1.76-1.37 0.7 0.16 1.23 0.61 1.77 1.01 0.22 0.16 0.45 0.26 0.71 0.29-0.7-0.73-1.4-1.45-2.15-2.22-0.13-0.6 0.28-1.23 0.12-1.88 0.38-0.11 0.61-0.39 0.71-0.74 0.13-0.46 0.37-0.74 0.8-1 0.44-0.27 0.41-0.68 0.1-1.32-0.12-0.25-0.01-0.34 0.24-0.43 0.83-0.33 0.85-0.41 0.64-1.32l0.08-0.08-0.03 0.14c0.21-0.05 0.42-0.1 0.62-0.17 0.24-0.08 0.26-0.27 0.05-0.48-0.08-0.08-0.19-0.13-0.29-0.18l0.06-0.06c0.02-0.01 0.03-0.02 0.02-0.02 0.22-0.25 0.46-0.48 0.63-0.76 0.32-0.5 0.58-1.01 1.1-1.4 0.5-0.38 0.38-1.07-0.14-1.32-1.45-0.71-2.88-1.47-4.38-2.06-1.43-0.56-2.95-0.92-4.42-1.37-1.03-0.32-2.05-0.66-3.09-0.97-1.4-0.42-2.81-0.82-4.23-1.21-0.21-0.06-0.46-0.01-0.69 0.01-0.34 0.03-0.62 0.24-0.69 0.52-0.15 0.57-0.23 1.17-0.28 1.76-0.01 0.19 0.16 0.41 0.28 0.59 0.38 0.6 0.39 0.6-0.28 0.75-0.35 0.08-0.51 0.3-0.41 0.62 0.04 0.14 0.11 0.28 0.17 0.42s0.11 0.28 0.16 0.42c-0.41 0.24-0.81 0.5-0.68 1.04 0.11 0.47 0.03 0.86-0.26 1.25-0.19 0.26-0.06 0.57 0.04 0.86 0.11 0.29 0.33 0.42 0.6 0.5l-0.51 0.39c-0.32 0.24-0.52 0.55-0.52 0.95 0 0.37 0 0.74-0.21 1.07-0.17 0.26-0.37 0.52-0.69 0.54-2.45 0.15-4.91 0.16-7.43 0.04-0.03-0.54-0.01-0.97-0.09-1.38-0.07-0.35-0.31-0.68-0.09-1.06-0.16-0.79-0.43-1.56-0.44-2.37-0.58-0.58-0.29-1.21-0.13-1.84 0.06-0.26-0.14-0.46-0.54-0.6-0.14-0.05-0.28-0.09-0.47-0.16 0.14-0.17 0.3-0.31 0.4-0.48 0.1-0.19 0.17-0.41 0.21-0.62 0.08-0.38-0.36-0.65-0.23-1.05 0.09-0.28 0.16-0.57 0.21-0.86 0.04-0.24-0.31-0.57-0.61-0.52-0.17 0.02-0.32 0.13-0.48 0.22 0.24-0.36 0.37-0.76 0.59-1.24-1.17 0.12-2.13 0.22-3.1 0.54-2.27 0.74-4.59 1.34-6.88 2.01-1.04 0.3-2.07 0.61-3.1 0.95-0.67 0.22-1.33 0.39-2.04 0.38-1.03-0.01-1.96 0.37-2.86 0.82-0.49 0.25-0.65 0.7-0.36 1.1 0.22 0.3 0.51 0.56 0.72 0.87 0.29 0.44 0.8 0.31 1.19 0.49-0.41 0.28-0.68 0.62-0.63 1.13 0.01 0.14 0.08 0.39 0.15 0.4 0.58 0.06 0.6 0.6 0.9 0.89 0.14 0.14 0.4 0.17 0.53 0.23-0.06 0.3-0.17 0.58-0.15 0.85 0.03 0.29 0.19 0.56 0.3 0.84 0.25 0.62 0.64 1.17 0.69 1.87 0.02 0.29 0.26 0.59 0.58 0.63 0.51 0.08 0.5 0.48 0.67 0.79 0.05 0.09 0.2 0.13 0.33 0.18-0.12 0.56-0.23 1.12-0.34 1.66-0.48 0.3-0.93 0.57-1.36 0.87-0.23 0.16-0.39 0.39-0.42 0.68 0.7-0.06 1.24-0.49 1.86-0.74 0.4-0.16 0.74-0.06 1.03 0.25 0.36 0.39 0.39 1.01 0.96 1.23 0.13 0 0.25 0.01 0.37 0.01-0.13 0-0.26 0.01-0.39 0.01 0.11 0.96 0.29 1.89 1.11 2.6 0.21-0.03 0.44-0.09 0.66-0.09 0.12 0 0.24 0.08 0.35 0.14 0.02 0.01 0 0.13-0.03 0.19-0.04 0.06-0.1 0.11-0.16 0.16-0.23 0.25-0.28 0.54-0.16 0.83 0.17 0.41 0.05 0.91 0.45 1.24 0.05 0.04 0.14 0.06 0.21 0.07 0.22 0.04 0.44 0.07 0.66 0.1-0.13 0.52-0.29 0.96 0.01 1.51 0.35 0.63 0.98 1.15 0.94 1.99-0.01 0.22 0.38 0.43 0.52 0.69 0.17 0.31 0.24 0.68 0.41 0.99 0.04 0.08 0.24 0.09 0.38 0.13 0.09 0.27 0.18 0.54 0.26 0.82 0.21 0.7 0.01 1.1-0.66 1.46-0.57 0.3-1.14 0.48-1.78 0.26-0.62-0.65-1.08-1.44-2.03-1.78-0.4-0.15-0.82-0.52-1-0.89-0.59-1.26-1.93-1.93-2.55-3.16-0.12-0.24-0.44-0.42-0.7-0.58-0.33-0.2-0.69-0.34-1.03-0.51 0.05 0.13 0.09 0.26 0.14 0.39 0.07 0.2 0.01 0.27-0.17 0.19-0.01-0.01 0.04-0.12 0.04-0.19 0-0.12-0.01-0.25-0.02-0.37 0-0.56-0.66-0.75-0.75-1.27-0.02-0.13-0.13-0.27-0.24-0.36-0.16-0.13-0.35-0.22-0.53-0.33-0.17-0.24-0.31-0.51-0.53-0.7-0.23-0.19-0.54-0.29-0.8-0.44-0.23-0.14-0.3-0.59-0.11-0.79 0.2-0.22 0.47-0.38 0.65-0.61 0.11-0.15 0.14-0.35 0.2-0.54-0.62 0.03-1.04 0.45-1.47 0.74-0.43 0.02-0.55-0.27-0.74-0.47-1.12-1.16-1.12-1.16-2.64-1.95-0.02 0.01-0.02 0.03-0.04 0.04-0.01 0-0.02-0.01-0.03-0.01 0.03-0.06 0.08-0.18 0.08-0.18-0.48-0.2-0.54-0.88-1.12-0.95-0.13-0.33-0.22-0.7-0.43-0.98-0.36-0.47-0.87-0.85-1.2-1.33-0.3-0.44-0.66-0.8-1.04-1.18-0.37-0.37-0.65-0.84-0.93-1.28-0.44-0.69-1.25-0.5-1.57-0.1-0.91 1.11-1.83 2.22-2.72 3.35s-1.76 2.28-2.63 3.42c-1.33 1.74-2.65 3.5-3.98 5.24-0.41 0.54-0.86 1.05-1.25 1.61-0.1 0.14-0.01 0.41-0.01 0.64 0.72-0.19 1.15-0.85 1.89-0.87-0.1-0.36 0.02-0.68 0.14-1-0.04 0.33-0.09 0.67-0.13 1-0.64 0.38-0.79 1.03-0.94 1.66-0.02 0.09 0.14 0.26 0.26 0.32 0.11 0.06 0.32 0.1 0.42 0.04 0.32-0.19 0.61-0.43 0.92-0.65l0.11 0.01-0.16 0.04c0.06 0.52 0.11 1.03 0.68 1.31 0.41 0.2 0.78 0.46 1.17 0.7 0.36 0.23 0.71 0.18 1.09 0.04 0.25-0.09 0.4 0.03 0.41 0.32 0 0.14 0.06 0.37 0.14 0.39 0.66 0.18 1.13 0.78 1.86 0.76 0.22-0.01 0.56-0.16 0.64-0.07 0.24 0.28 0.48 0.48 0.83 0.64 0.3 0.13 0.14 0.68 0.57 0.85 0.25 0.1 0.44 0.35 0.65 0.54-0.01 0.29 0.06 0.62-0.06 0.87-0.67 1.36-1.17 2.75-1.34 4.26-0.07 0.65-0.38 1.27-0.58 1.89-0.12 0-0.21 0.02-0.27 0-0.69-0.29-1.19-0.17-1.47 0.57-0.09 0.25-0.32 0.22-0.41-0.07-0.1-0.29-0.21-0.55-0.5-0.71-0.37-0.21-0.73-0.13-0.95 0.26-0.07 0.13-0.13 0.27-0.21 0.44-0.21-0.32-0.38-0.65-0.61-0.93-0.34-0.41-0.78-0.35-1.09 0.1-0.07 0.11-0.17 0.2-0.25 0.3-0.04-0.06-0.09-0.12-0.13-0.18-0.45-0.74-0.72-0.83-1.43-0.37-0.15 0.09-0.23 0.23-0.37 0.09-0.1-0.1-0.16-0.25-0.23-0.37-0.21-0.34-0.57-0.59-0.94-0.59-0.51 0.01-0.41 0.52-0.52 0.85-0.02 0.06-0.1 0.16-0.12 0.15-0.12-0.05-0.3-0.1-0.34-0.2-0.11-0.27-0.16-0.57-0.22-0.83-0.82-0.17-1.57-0.33-2.32-0.48-0.39-0.08-0.81 0.22-0.82 0.59-0.03 1.5-0.05 3-0.06 4.5 0 0.37 0.02 0.75 0.01 1.12-0.01 0.43-0.28 0.66-0.67 0.81-0.73 0.29-1.5 0.36-2.23 0.13-0.57-0.18-1.06-0.14-1.54 0.16-0.23 0.14-0.44 0.06-0.64-0.05-0.27-0.16-0.56-0.3-0.88-0.21-1.66 0.48-3.16 0.04-4.62-0.71-0.2-0.1-0.41-0.2-0.61-0.32-0.05-0.03-0.08-0.14-0.07-0.2 0.02-0.19 0.15-0.24 0.35-0.18 0.14 0.04 0.31 0.04 0.46 0.03 0.19-0.02 0.34-0.19 0.23-0.31-0.82-0.9-1.45-1.9-1.93-3-0.11-0.25-0.39-0.48-0.66-0.6-0.76-0.36-1.55-0.67-2.27-0.97-0.67 0.22-1.22 0.47-1.85 0.08-0.45-0.27-1-0.4-1.45-0.57h-0.01c0.01-0.02 0.02-0.03 0.01 0-0.63-0.72-1.81-0.88-2.83-0.87-0.37 0.01-0.79-0.07-1.1-0.25-0.89-0.5-1.93-0.56-2.85-0.95-0.27-0.12-0.62-0.19-0.9-0.14-0.65 0.13-1.22-0.03-1.79-0.28-0.14-0.06-0.3-0.11-0.45-0.1-0.44 0.04-0.86 0.33-1.33 0.05-0.39-0.23-0.84-0.55-1.26-0.55-0.58 0-1.13 0.33-1.78 0.01-0.67-0.34-1.35-0.78-2.19-0.55-0.65-0.24-1.3-0.49-1.95-0.71-0.04-0.01-0.01-0.02 0.05-0.03-0.01 0-0.01 0-0.02-0.01-0.27-0.15-0.55-0.29-0.84-0.38-0.21-0.06-0.5-0.12-0.67-0.02-0.54 0.3-1.03 0.23-1.54-0.03-0.34-0.18-0.69-0.34-1.04-0.5-0.26-0.12-0.7-0.03-0.84 0.18-0.17 0.28-0.21 0.61 0.01 0.84 0.28 0.28 0.54 0.51 0.36 0.95-0.05 0.12-0.06 0.37 0.01 0.42 0.62 0.41 0.26 1.12 0.53 1.57 0.3 0.5-0.14 1.15 0.45 1.48-0.02 0.28-0.05 0.57-0.08 0.88 0.4 0.68 0.52 0.18 1.01 0.76 0.04 0.05-0.97 0.03 0.2 0.41-0.14 0.04 0.39 0.45 0.26 0.42-0.37-0.07-0.73-0.2-1.1-0.27-0.08-0.01-0.28 0.25-0.27 0.26 0.54 0.6 0.45 0.6 0.46 1.37 0.01 0.33-0.68 1.23-0.43 1.4 0.16 0.11 0.35 0.2 0.52 0.29-0.02 0.01-0.03 0.03-0.05 0.04-0.04 0-0.05 0.02-0.04 0.04-0.36 0.33-0.66 0.67-0.45 1.24 0.15 0.42 0.13 0.91 0.34 1.3s0.09 0.66 0.01 1.02c-0.07 0.31-0.11 0.55-0.4 0.7-0.06 0.03-0.14 0.11-0.14 0.17-0.03 0.58-0.17 1.18 0.26 1.7 0.08 0.1 0.1 0.25 0.15 0.37-0.46 0.01 0.69 0.35 0.59 0.73-0.11 0.41 0.14 0.67 0.47 0.88-0.46 0.18-0.95 0.33-0.98 0.97-0.01 0.21 0.4 0.78 0.33 0.99-0.18 0.52-0.02 0.75 0.25 1.24 0.21 0.39 0.66 0.48 0.18 0.62-0.61 0.17-0.12 0.21 0.1 0.76 0.08 0.21-0.18 0.24-0.16 0.45 0.02 0.2 0.36 0.56 0.3 0.77 0 0-0.06-0.01-0.13-0.03-0.09-0.03-0.17-0.05-0.25-0.05-0.24-0.02-0.43 0.06-0.49 0.26-0.07 0.21-0.15 0.42-0.16 0.63-0.01 0.56 0.05 1.13-0.11 1.68-0.13 0.05-0.27 0.09-0.4 0.16-0.23 0.13-0.31 0.38-0.19 0.54 0.43 0.56 0.95 0.94 1.74 0.75 0.22-0.05 0.47-0.11 0.67-0.04 0.6 0.2 0.72-0.33 1.03-0.56 0 0.01 0.01 0.01 0.01 0.01 0.29-0.09 0.59-0.16 0.87-0.26 0.14-0.05 0.31-0.21 0.4-0.18 0.71 0.3 1.31-0.28 1.99-0.2 0.19 0.02 0.23-0.16 0.13-0.34-0.04-0.07-0.08-0.1-0.13-0.13 0.08-0.02 0.17-0.03 0.25-0.06 0.15-0.05-0.05-0.05-0.38-0.02-0.01-0.01-0.04-0.02-0.09-0.03v0.03c-0.43 0.03-1.03 0.1-1.42 0.14 0.33-0.08 0.65-0.24 0.98-0.26 0.76-0.06 1.55 0.12 2.24-0.37 0.7 0.03 1.3-0.34 1.95-0.29 0.03-0.37 0.04-0.59 0.06-0.82 0.14 0 0.28-0.02 0.41 0 0.37 0.07 0.76 0.48 1.07 0.24 0.34-0.26 0.68-0.26 1.03-0.35 0.1-0.02 0.14-0.24 0.23-0.35 0.09-0.1 0.27-0.24 0.33-0.22 0.6 0.28 1.18 0.17 1.79 0.05 0.21-0.04 0.44 0.08 0.67 0.11 0.04 0.01 0.14-0.09 0.14-0.1-0.07-0.12-0.13-0.25-0.23-0.35-0.02-0.02-0.06-0.03-0.11-0.03 0.19-0.06 0.38-0.14 0.57-0.13 1 0.06 1.85-0.06 2.96-0.35 0.34-0.09 0.01 0.01 0.34-0.09 0.28-0.08-0.49-0.17-0.18-0.21 0.21-0.03 0.4-0.15 0.6-0.21-0.16-0.02-0.42-0.1-0.26-0.22 0.21-0.16 0.57-0.14 0.79-0.3 0.14-0.1 0.17-0.36 0.23-0.55 0.35 0.1 0.69 0.23 1.04 0.3 0.24 0.05 0.43-0.08 0.42-0.35 0-0.2 0.09-0.28 0.29-0.24 0.36 0.07 0.72 0.16 1.09 0.18 0.16 0.01 0.21-0.17 0.15-0.34l0.1-0.06-0.05 0.12c0.35-0.08 0.79 0.08 1.05-0.27 0.21-0.28 0.49-0.35 0.78-0.23 0.65 0.27 1.32 0.19 2.01 0.14 0.23-0.26 0.47-0.54 0.71-0.82l-0.12 0.08 0.08-0.1c0.72 0.19 0.96 0.16 1.15-0.29 0.15-0.34 0.21-0.69 0.65-0.81 0.05-0.01 0.09-0.3 0.03-0.36-0.25-0.28-0.67-0.38-0.8-0.78 0.29-0.22 0.54 0.01 0.81 0.07 0.4 0.09 0.61 0 0.78-0.29 0.04-0.07 0.1-0.12 0.11-0.19 0.21-0.77 0.66-1.34 1.47-1.6 0.2-0.07 0.42-0.45 0.55-0.29 0.41 0.49 0.83-0.23 1.24 0.1 0.68 0.54 1.29 0.35 1.76-0.33 0.04-0.06 0.12-0.1 0.21-0.17 0.13 0.16 0.25 0.33 0.39 0.49 0.22 0.24 0.52 0.32 0.84 0.29 0.15-0.02 0.31-0.07 0.43-0.15 0.48-0.34 1.08 0.14 1.55-0.2 0.39 0.21 0.78 0.42 1.2 0.65 0.07 0.21 0.17 0.42 0.19 0.63 0.09 0.89 0.03 1.77 0.27 2.67 0.21 0.78 0.09 1.64 0.12 2.46 0.01 0.38 0.27 0.5 0.62 0.28 0.06-0.04 0.11-0.11 0.16-0.16 0.23-0.2 0.3-0.09 0.44 0.13 0.34 0.53 0.93 0.59 1.32 0.16 0.15-0.16 0.21-0.39 0.32-0.6 0.13 0.08 0.24 0.14 0.34 0.21 0.67 0.43 0.97 0.36 1.46-0.34 0.04-0.06 0.1-0.12 0.15-0.18 0.07 0.12 0.12 0.24 0.2 0.35 0.46 0.62 1.03 0.6 1.44-0.04 0.08-0.12 0.13-0.27 0.2-0.4 0.37 0.32 0.8 0.56 1.24 0.23 0.49-0.37 0.9-0.33 1.43-0.09 0.38 0.17 0.76 0.03 0.94-0.4 0.1-0.24 0.23-0.34 0.42-0.09 0.26 0.35 0.58 0.38 1.01 0.3 0.72-0.14 0.75-0.07 0.95 0.59 0.28 0.93 0.45 1.88 0.81 2.79 0.21 0.53 0.42 1.04 0.88 1.41-0.12 0.69 0.34 1.28 0.39 1.85-0.22 0.55-0.67 0.74-1.02 1.02-0.33 0.28-0.41 0.57-0.35 0.98 0.04 0.28-0.18 0.37-0.48 0.24-0.21-0.09-0.4-0.26-0.61-0.3-0.36-0.07-0.74-0.14-0.99 0.3-0.18 0.31-0.49 0.55-0.72 0.84-0.17 0.21-0.38 0.23-0.6 0.15-0.39-0.14-0.76-0.08-1.11 0.12-0.27 0.15-0.55 0.29-0.79 0.48-0.31 0.25-0.64 0.35-1.04 0.42-0.98 0.17-1.87 0.68-2.88 0.8-0.07 0.01-0.13 0.08-0.19 0.12-0.23 0.12-0.42 0.59-0.3 0.78 1.33 2.02 2.65 4.04 4.01 6.04 0.29 0.42 0.73 0.75 1.1 1.12 0.13 0.75 0.81 1.24 1.02 1.96 1.38 1.84 2.77 3.69 4.16 5.52 0.08 0.11 0.25 0.15 0.38 0.23l-0.04 0.06c0.14-0.16 0.26-0.35 0.44-0.46 0.34-0.23 1.79-1.59 2.02-1.95l-0.05 0.04c0.12-0.22 0.09-0.41-0.08-0.58 0.12 0 0.25-0.01 0.37-0.01 1.05 0.07 1.05 0.07 1.18-0.97 0.02-0.14 0.07-0.27 0.1-0.41 0.41 0.3 0.45 0.28 0.74-0.19 0.03-0.04 0.07-0.08 0.1-0.11 0.06-0.03 0.12-0.08 0.19-0.1 0.45-0.09 0.24-0.72 0.67-0.8 0.38-0.07 0.45-0.35 0.56-0.63 0.06-0.13 0.16-0.25 0.25-0.37-0.01-0.02-0.02-0.03-0.03-0.04h0.05c0.1 0.1 0.21 0.3 0.29 0.29 0.37-0.05 0.74-0.17 0.87-0.56 0.07-0.21 0.1-0.44 0.35-0.49 0.62-0.11 0.75-0.93 1.46-0.9 0.13 0.01 0.26-0.03 0.4-0.05-0.12-0.4-0.24-0.8-0.36-1.2 0.11 0.06 0.21 0.12 0.32 0.14 0.22 0.03 0.48 0.09 0.66 0.01 0.77-0.37 1.38-0.94 1.75-1.71 0.12-0.24 0.02-0.42-0.24-0.51 0-0.01 0.01-0.01 0.01-0.02 0.01 0.01 0.01 0.03 0.03 0.04 0.13-0.08 0.24-0.2 0.38-0.24 0.4-0.09 0.64-0.27 0.71-0.7 0.02-0.12 0.3-0.2 0.49-0.3l0.09-0.78c1.01 0.28 1.02 0.26 1.83-0.81 0.08-0.1 0.26-0.12 0.4-0.18l-0.02 0.07c0.22-0.23 0.15-0.67 0.65-0.71 0.35-0.03 0.32-0.34 0.34-0.6 0.36-0.24 0.83-0.27 1.13-0.66 0.31-0.4 0.87-0.61 0.95-1.19 0.82-0.14 0.99-0.8 1.22-1.41 0.35-0.15 0.72-0.27 0.99-0.54 0.42 0.18 0.85 0.33 1.24 0.56 0.25 0.15 0.45 0.39 0.65 0.61 0.1 0.11 0.22 0.28 0.19 0.38-0.22 0.68-0.02 1.47-0.59 2.05-0.15 0.15-0.32 0.29-0.48 0.44-0.46 0.43-0.68 1-0.78 1.57-0.06 0.3 0.23 0.66 0.41 1.09-0.47 0.13-0.98 0.19-1.33 0.65-0.41 0.54-0.46 1.06-0.3 1.66-0.22 0.16-0.44 0.33-0.66 0.49-0.12 0.09-0.3 0.13-0.38 0.24s-0.13 0.29-0.1 0.41c0.09 0.29 0.2 0.48-0.24 0.63-0.68 0.24-0.59 0.98-0.85 1.49-0.2 0.41 0.13 0.69 0.31 1 0.01 0.02-0.15 0.19-0.26 0.22-0.35 0.1-0.67-0.4-1.05-0.06-0.07 0.36-0.14 0.72-0.22 1.13-0.39 0.25-0.8 0.53-1.22 0.8 0.06 0.28 0.13 0.55 0.18 0.83 0.02 0.13 0.05 0.36-0.01 0.38-0.74 0.36-0.55 1.15-0.88 1.69-0.06 0.1-0.16 0.18-0.25 0.26 0.04 0.14 0.06 0.29 0.12 0.42 0.12 0.25 0.04 0.37-0.23 0.45-0.76 0.23-0.77 0.25-0.37 0.84 0.04 0.06 0.11 0.1 0.16 0.17 0.23 0.34 0.12 0.53-0.33 0.56-0.22 0.02-0.45 0-0.63 0-0.14 0.17-0.26 0.28-0.34 0.41-0.23 0.39-0.41 0.82-0.69 1.17-0.34 0.44-0.11 1.06-0.48 1.43-0.31 0.32-0.78 0.45-1.02 0.89-0.21 0.39-0.55 0.72-0.82 1.09-0.22 0.29-0.1 0.77 0.26 0.97 0.34 0.19 0.68 0.37 1.04 0.51 1.88 0.71 3.76 1.4 5.65 2.09 0.58 0.21 1.15 0.48 1.75 0.6 1.47 0.28 2.74 1.04 4.12 1.54 0.48 0.17 0.68 0.6 0.69 1.08l4.93 0.01c0.13-0.84 0.56-1.59 0.32-2.46zm45.51-65.92c-0.06-0.01-0.12-0.08-0.17-0.14-0.2-0.26-0.09-0.53-0.02-0.79-0.01 0.28 0.15 0.49 0.33 0.69 0.16 0.19 0.09 0.29-0.14 0.24zm-0.19-0.95c-0.02 0-0.04-0.01-0.06-0.01 0.02-0.01 0.04-0.01 0.06-0.02v0.03zm-0.95-0.21v0.01c-0.02 0-0.04-0.01-0.06-0.01h0.06zm-1.84 1.57c-0.29 0.03-0.29-0.13-0.27-0.31 0.11 0.04 0.21 0.08 0.31 0.13 0.02 0.02-0.01 0.18-0.04 0.18zm-0.39-0.54c0.02 0.04 0.03 0.09 0.05 0.13-0.16-0.03-0.18-0.07-0.05-0.13zm-1.77 5.53c-0.05 0.02-0.1 0.03-0.15 0.02-0.04-0.01-0.1-0.13-0.09-0.14 0.11-0.09 0.19-0.05 0.24 0.12zm-0.86-17.12-0.06 0.08c-0.01 0.01-0.02 0.01-0.02 0.02 0.01-0.02 0.08-0.1 0.08-0.1zm-4.79 7.29c0.01 0.04-0.05 0.09-0.08 0.13-0.05-0.03-0.1-0.07-0.14-0.1 0-0.06-0.03-0.15 0-0.18 0.1-0.08 0.19-0.02 0.22 0.15zm-1.53 13.3c0.13-0.02 0.16 0.05 0.14 0.17-0.05-0.01-0.1-0.02-0.14-0.04-0.03-0.01-0.01-0.13 0-0.13zm-3.14-4.33 0.01 0.1c-0.01 0-0.02-0.01-0.02-0.01l0.01-0.09zm-0.12-6.1-0.1 0.07-0.02-0.11 0.12 0.04zm-1.11-1.4c-0.14 0.05-0.29 0.1-0.43 0.15 0.11-0.07 0.21-0.14 0.32-0.2 0.02-0.01 0.07 0.03 0.11 0.05zm-3.61 14.95c-0.11 0.04-0.21 0.06-0.31 0.09 0.1-0.03 0.2-0.06 0.31-0.09zm0.02 0.05c0.08 0.19 0.14 0.39 0.25 0.54 0.16 0.21 0.47 0.23 0.61 0.07 0.2-0.22 0.38-0.46 0.56-0.69l-0.14 0.08 0.1-0.1c0.31 0.2 0.65 0.12 0.84-0.09 0.36-0.42 0.71-0.66 1.3-0.43 0.2 0.08 0.44-0.1 0.51-0.33 0.06-0.19 0.08-0.39 0.12-0.6 0.2 0.04 0.34 0.07 0.48 0.11 0.62 0.15 1.01 0.04 1.26-0.56 0.14-0.32 0.24-0.44 0.58-0.51 0.29-0.06 0.56-0.17 0.88-0.09 0.32 0.07 0.52-0.15 0.73-0.33 0.26-0.14 0.52-0.29 0.79-0.42s0.52-0.25 0.67-0.54c0.24-0.47 0.66 0 1-0.12 0.58-0.19 1.11-0.45 1.56-0.85 0.07-0.06 0.01-0.26 0.02-0.39 0.03 0.02 0.03 0.01 0.05 0.02-0.01 0.02-0.01 0.04-0.02 0.06 0.52 0.07 1.04 0.18 1.56 0.18 0.46 0 0.7 0.22 0.87 0.56 0.19 0.39 0.37 0.8 0.5 1.22 0.2 0.62 0.37 1.26 0.54 1.89 0.09 0.34 0.3 0.6 0.56 0.83-0.38 0.38-0.19 0.82-0.12 1.25 0.05 0.34-0.1 0.55-0.41 0.71-0.2 0.1-0.39 0.24-0.54 0.39-0.12 0.12-0.25 0.18-0.37 0.04-0.4-0.47-0.84-0.33-1.21-0.04-0.33 0.26-0.65 0.21-1.03 0.23-0.52 0.03-1.02 0.14-1.57 0.11-0.57-0.03-1.11 0.52-1.74 0.14-0.27 0.13-0.55 0.25-0.81 0.41-0.22 0.14-0.16 0.53-0.52 0.57-0.42-0.73-0.58-0.79-1.19-0.38-0.25 0.17-0.46 0.38-0.69 0.57-0.07-0.09-0.11-0.15-0.17-0.2-0.71-0.62-1.26-0.48-1.48 0.36-0.04 0.16 0.07 0.42-0.25 0.43-0.05-0.07-0.12-0.12-0.13-0.18-0.11-0.45-0.44-0.61-0.86-0.55-0.21 0.03-0.39 0.2-0.6 0.28-0.11 0.05-0.33 0.12-0.35 0.09-0.5-0.65-1.33-0.23-1.92-0.56-0.19-0.42-0.38-0.83-0.58-1.27 0.11-0.64 0.24-1.28 0.36-1.91zm-4.22-6.63c0.02 0.06 0 0.15-0.03 0.21-0.02 0.04-0.13 0.09-0.15 0.07-0.24-0.15-0.47-0.32-0.7-0.48 0.67-0.18 0.73-0.16 0.88 0.2zm7.03-23.26c0 0.01 0 0.03-0.01 0.04-0.02-0.01-0.04-0.02-0.05-0.03 0.03 0 0.04 0 0.06-0.01zm-3.02 5.6c-0.13 0.03-0.27 0.1-0.29-0.15 0.1 0.05 0.19 0.1 0.29 0.15zm-7.96 15.37c-0.04 0.02-0.08 0.04-0.12 0.03-0.06 0-0.11-0.06-0.17-0.1 0.1 0.02 0.19 0.04 0.29 0.07zm-5.42-21.32c-0.02 0.01-0.04 0.01-0.05 0.02v-0.04c0.02 0.01 0.03 0.01 0.05 0.02zm-0.05 2.18-0.13 0.07-0.02-0.12 0.15 0.05zm-9.16 6.21c0.58-0.43 0.76-0.92 0.25-1.52-0.2-0.24-0.03-0.41 0.08-0.59 0.22-0.34 0.26-0.7 0.12-1.07-0.08-0.21-0.21-0.4-0.28-0.61-0.09-0.27 0.15-0.67 0.4-0.71 0.31-0.04 0.61-0.11 0.92-0.11 1.71-0.01 3.42 0 5.13 0.02 0.23 0 0.45 0.08 0.68 0.13 0.24 0.63 0.47 1.25 0.71 1.86-0.22 0.06-0.52 0.05-0.64 0.18-0.2 0.21-0.36 0.51-0.41 0.8-0.05 0.3 0.21 0.51 0.47 0.7 0.24 0.18 0.21 0.21-0.14 0.34-0.14 0.05-0.37 0.08-0.4 0.17-0.07 0.2-0.06 0.43-0.03 0.65 0.04 0.35 0.53 0.52 0.44 0.93-0.08 0.05-0.14 0.11-0.21 0.12-0.42 0.06-0.75 0.21-0.73 0.69 0.02 0.45 0.07 0.9 0.15 1.34 0.07 0.37-0.16 0.53-0.4 0.73-0.43 0.35-0.47 0.77-0.13 1.18 0.27 0.33 0.05 0.5-0.13 0.75-0.31 0.44 0.01 1.01-0.35 1.49-0.31 0.42-0.31 0.98-0.34 1.51-0.03 0.51-0.23 1.01-0.36 1.51-0.07 0.25-0.37 0.46-0.71 0.49-0.08 0.01-0.15 0.02-0.23 0.02-0.66 0.03-1.19-0.08-1.49-0.78-0.18-0.42-0.38-0.79-0.31-1.26 0.03-0.21 0.01-0.54-0.12-0.64-0.56-0.4-0.34-0.89-0.31-1.39 0.02-0.35-0.31-0.75-0.21-1.05 0.19-0.58-0.05-1.01-0.21-1.51-0.15-0.49 0.04-1.06-0.3-1.52-0.24-0.33-0.26-0.66-0.19-1.06 0.07-0.43 0.02-0.87 0.02-1.3-0.32-0.09-0.6-0.18-0.9-0.27 0.07-0.1 0.1-0.18 0.16-0.22zm-2.62-16.07c0.02-0.03 0.01-0.04 0.02-0.06 0.02 0.01 0.03 0.01 0.05 0.02-0.02 0.01-0.05 0.02-0.07 0.04zm-11.78 13.62c-0.01 0.03-0.12 0.04-0.19 0.04-0.09 0-0.19-0.02-0.28-0.03 0.09-0.07 0.17-0.14 0.27-0.18 0.18-0.07 0.27 0.01 0.2 0.17zm-71.34 28.81c0-0.01 0-0.02 0.01-0.03 0.02 0.01 0.04 0.02 0.05 0.03h-0.06zm1.11 7.08-0.05 0.13h-0.03l0.08-0.13zm0.04 0.14c0.17-0.04 0.35-0.08 0.52-0.1 0.2-0.03 0.34 0.05 0.44 0.2-0.32-0.03-0.64-0.06-0.96-0.1zm1.19 10.08c-0.03 0-0.09-0.09-0.08-0.1 0.07-0.09 0.14-0.05 0.19 0.07-0.05 0.02-0.08 0.04-0.11 0.03zm0.25-19.55 0.05-0.14 0.09 0.12-0.14 0.02zm0.41 16.75c-0.03-0.01-0.04-0.09-0.05-0.14 0.06-0.02 0.12-0.03 0.19-0.05 0.01 0.05 0.03 0.11 0.04 0.16-0.07 0.01-0.13 0.04-0.18 0.03zm2.5 1.68c-0.02 0.02-0.03 0.01-0.04 0.02 0.01-0.01 0.02-0.02 0.04-0.02zm3.87-17.1c-0.04-0.02-0.05-0.13-0.03-0.19 0.03-0.13 0.09-0.25 0.11-0.35-0.67 0.27-0.76 0.27-1.12-0.11 0.38 0.03 0.76 0.07 1.14 0.1 0.03 0.13 0.06 0.25 0.1 0.38 0.06 0.19-0.01 0.25-0.2 0.17zm12.04-1.15-0.01 0.08 0.01-0.08zm-1.61-3.67-0.18-0.12h0.02c0.03 0.01 0.09 0.05 0.16 0.12zm1.18 1.05v-0.02c0.06 0.05 0.07 0.08 0 0.02zm0.8 2.9c-0.09-0.04-0.17-0.09-0.26-0.14 0.1 0 0.21-0.01 0.31-0.01-0.02 0.05-0.03 0.1-0.05 0.15zm25.6 28.54c0.05 0.12 0.08 0.26 0.11 0.39l-0.27-0.57c0.07 0.05 0.13 0.11 0.16 0.18zm-2.18-2.37c-0.16-0.14-0.28-0.35-0.35-0.55-0.03-0.09 0.09-0.29 0.19-0.35 0.1-0.07 0.36-0.08 0.4-0.03 0.38 0.55 0.74 1.11 1.07 1.69 0.16 0.28-0.01 0.56-0.16 0.81-0.25-0.61-0.65-1.12-1.15-1.57zm1.16 1.59c0.01 0.01 0.02 0.01 0.02 0.02h-0.02c0.01-0.01 0-0.02 0-0.02zm1.24 1.38c0.01 0.02 0.02 0.04 0.03 0.05-0.01-0.01-0.02-0.03-0.03-0.05zm1.13-3.7c-0.06-0.12-0.11-0.23-0.17-0.35 0.11 0.09 0.17 0.2 0.17 0.35zm-0.31-0.66v0.11c-0.13-0.06-0.13-0.1 0-0.11zm0.38 0.8c-0.01-0.02-0.02-0.04-0.03-0.05l0.14-0.04-0.11 0.09zm25.17-5.06c-0.03 0.14-0.05 0.28-0.08 0.42-0.02-0.27-0.05-0.55-0.07-0.82 0.13 0.1 0.18 0.23 0.15 0.4zm-0.99-0.88c0.01 0 0.02 0.01 0.03 0.01-0.02 0-0.03-0.01-0.05 0 0 0 0.01-0.01 0.02-0.01zm-2.16 1.21c-0.19-0.06-0.29-0.19-0.33-0.37 0.19 0.07 0.31 0.18 0.33 0.37zm-1.15-0.74c-0.07-0.2-0.13-0.4-0.2-0.6-0.03-0.1-0.06-0.21-0.08-0.32 0.07 0.02 0.16 0.02 0.19 0.07 0.08 0.12 0.16 0.25 0.18 0.38 0.01 0.14-0.05 0.29-0.08 0.42 0.03 0.01 0.05 0.03 0.08 0.04-0.03 0.01-0.06 0-0.09 0.01zm-9.51-41.56c0.04-0.04 0.15-0.06 0.2-0.03 0.15 0.08 0.18 0.22 0.05 0.34-0.1 0.08-0.25 0.12-0.38 0.16-0.02 0.01-0.08-0.09-0.12-0.15 0.08-0.11 0.16-0.23 0.25-0.32zm-0.47 13.33c-0.01 0-0.02-0.01-0.03-0.01 0.01-0.02 0.03-0.03 0.04-0.04-0.01 0.03 0 0.03-0.01 0.05zm-1.48-2.44c0.21 0 0.26 0.07 0.13 0.19-0.03 0.02-0.12-0.02-0.19-0.04l0.06-0.15zm-2.53 0.75c-0.02 0.01-0.03 0.03-0.05 0.04v-0.02c0.02 0 0.04-0.01 0.05-0.02zm-0.78-2.89h-0.02l0.04-0.04c0 0.01-0.01 0.03-0.02 0.04zm-0.39-0.74-0.01 0.01s0-0.01 0.01-0.01zm-0.41 0.49c0.11-0.15 0.23-0.28 0.35-0.42-0.03 0.32-0.05 0.65-0.08 0.96-0.03-0.03-0.05-0.07-0.11-0.09-0.23-0.09-0.32-0.23-0.16-0.45zm-0.04 9.76c0.18-0.88 0.43-1.74 0.59-2.62 0.11-0.6 0.33-1.15 0.58-1.69 0.37-0.8 0.9-1.39 1.87-1.56 0.39 0.66 1.09 0.97 1.82 1.21 0.27 0.09 0.52-0.04 0.72-0.24 0.03 0.2 0.06 0.39 0.1 0.59 0.05 0.22 0.15 0.41 0.44 0.3 0.33-0.12 0.51-0.02 0.65 0.3 0.14 0.33 0.47 0.24 0.75 0.22 0.23 0.23 0.27 0.26 0.39 0.08-0.02 0.03-0.03 0.05-0.03 0.08 0.03 0.13 0.09 0.26 0.14 0.39 0.21 0.06 0.42 0.19 0.62 0.16s0.38-0.22 0.58-0.31c0.23-0.11 0.43 0.06 0.38 0.31-0.04 0.21-0.14 0.42-0.16 0.63-0.05 0.4 0.3 0.64 0.75 0.52 0.14-0.04 0.26-0.15 0.4-0.2 0.25-0.09 0.4-0.01 0.44 0.26 0.06 0.41 0.41 0.33 0.68 0.37 0.18 0.16 0.36 0.24 0.49-0.05 0.18 0.34 0.4 0.67 0.85 0.59 0.39-0.07 0.51 0.19 0.75 0.36 0.13 0.1 0.42 0 0.64-0.01l0.13-0.01-0.18 0.04c0.08 0.2 0.13 0.42 0.24 0.6 0.06 0.09 0.23 0.11 0.35 0.17v0.04h-0.07c0.15 0.16 0.28 0.37 0.46 0.49 0.66 0.44 0.82 1.06 0.68 1.77-0.04 0.19-0.22 0.38-0.38 0.51-0.1 0.08-0.3 0.1-0.45 0.08-0.83-0.07-1.3 0.28-1.45 1.07-0.01 0.04-0.12 0.09-0.18 0.1-0.06 0-0.14-0.05-0.17-0.1-0.04-0.06-0.04-0.14-0.06-0.21-0.24-0.93-0.25-0.93-1.25-0.68-0.15 0.04-0.3 0.11-0.44 0.08-0.14-0.02-0.28-0.12-0.38-0.22-0.15-0.15-0.27-0.16-0.38 0.02s-0.21 0.36-0.34 0.58c-0.11-0.16-0.19-0.26-0.24-0.37-0.07-0.13-0.07-0.33-0.18-0.4-0.24-0.17-0.52-0.36-0.8-0.4-0.39-0.05-0.46 0.3-0.51 0.59-0.03 0.18-0.13 0.27-0.27 0.22-0.06-0.02-0.11-0.1-0.14-0.16-0.1-0.2-0.15-0.42-0.28-0.6-0.17-0.24-0.6-0.31-0.85-0.15-0.18 0.12-0.32 0.44-0.48 0.44-0.37 0-0.25-0.45-0.46-0.63-0.17-0.15-0.36-0.36-0.56-0.37-0.67-0.06-1.35-0.01-2.01-0.18-0.12-0.03-0.29 0.08-0.42 0.15-0.19 0.12-0.3 0.37-0.57 0.31-0.26-0.06-0.24-0.32-0.33-0.51-0.16-0.32-0.43-0.44-0.74-0.39-0.15 0.03-0.3 0.07-0.44 0.12-0.29 0.11-0.56 0.23-0.84-0.03-0.23-0.21-0.41-0.45-0.43-0.76-0.03-0.31-0.07-0.62-0.02-0.9zm0.8 13.47c0.01 0.05-0.04 0.11-0.07 0.17-0.06-0.01-0.15-0.01-0.17-0.04-0.03-0.05-0.04-0.14-0.01-0.19 0.1-0.16 0.21-0.13 0.25 0.06zm0.13 26.22c-0.06-0.03-0.16-0.04-0.18-0.08s0.03-0.12 0.04-0.18c0.06 0.03 0.14 0.06 0.18 0.11 0.02 0.02-0.02 0.09-0.04 0.15zm1.08-0.72c0.25 0.08 0.49 0.17 0.74 0.25v0.03-0.02c-0.31 0.02-0.58-0.01-0.74-0.26zm1.08-13.79c-0.19-0.12-0.17-0.23 0.01-0.23 0.04 0 0.06 0.13 0.12 0.18 0.06 0.06 0.13 0.11 0.19 0.17-0.12-0.04-0.23-0.06-0.32-0.12zm0.38 0.21c0-0.01 0.01-0.02 0.01-0.03 0.02 0.01 0.03 0.03 0.05 0.04-0.04-0.01-0.04-0.01-0.06-0.01zm-0.13-2.4c-0.04-0.03-0.06-0.1-0.08-0.16 0.04-0.03 0.09-0.06 0.12-0.05 0.11 0.03 0.22 0.1 0.32 0.17 0.02 0.01-0.03 0.11-0.04 0.17-0.11-0.05-0.23-0.07-0.32-0.13zm0.98 16.3c0-0.02-0.01-0.04-0.01-0.06 0.03 0.02 0.05 0.03 0.08 0.05-0.04 0-0.05 0.01-0.07 0.01zm0.13-1.64c0.02 0.24 0.03 0.48 0.05 0.72-0.09-0.23-0.12-0.47-0.05-0.72zm1.45-1.36c0.06 0.1 0.11 0.19 0.17 0.29-0.18-0.01-0.34-0.03-0.17-0.29zm3.66-2.44c-0.02-0.01 0.02-0.15 0.03-0.15 0.22 0.01 0.21 0.15 0.22 0.28-0.08-0.04-0.17-0.08-0.25-0.13zm0.44-11.37h0.09c-0.03 0.01-0.06 0.01-0.09 0.02 0.01-0.01 0-0.01 0-0.02zm0.49-0.86c0.05-0.03 0.09-0.07 0.14-0.1l-0.12 0.12-0.02-0.02zm1.63 7.68c-0.05-0.03-0.13-0.04-0.16-0.08-0.02-0.03 0.02-0.1 0.04-0.15 0.05 0.03 0.12 0.05 0.15 0.09 0.03 0.03-0.01 0.09-0.03 0.14zm-0.55-6.34c-0.16-0.15-0.31-0.31-0.47-0.47-0.03-0.01-0.05-0.01-0.08-0.01h0.1c-0.2-0.27-0.41-0.55-0.61-0.83 0.21-0.05 0.41-0.09 0.6-0.14 0.3 0.36 0.56 0.71 0.87 1.01 0.14 0.14 0.37 0.21 0.54 0.32-0.12 0.06-0.25 0.12-0.36 0.19-0.22 0.14-0.42 0.1-0.59-0.07zm0.95-0.06c0 0.18-0.02 0.37 0.01 0.55 0.05 0.24 0.07 0.48-0.02 0.7-0.38-0.43-0.19-0.84 0.01-1.25zm0.06 1.3c0.22-0.04 0.41 0.04 0.57 0.19-0.24 0.07-0.41-0.06-0.57-0.19zm0.62 0.24zm0.05 5.18c0.01 0 0.01 0.01 0.02 0.01h-0.04c0.01 0 0.02-0.01 0.02-0.01zm0.33-12.3c-0.73-0.14-1.16 0.19-1.48 0.79-0.17 0.31-0.46 0.56-0.64 0.78-0.33-0.02-0.56-0.05-0.79-0.04-0.18 0.01-0.23 0.14-0.18 0.32-0.02 0-0.03-0.01-0.05-0.01v-0.05c-0.23 0.02-0.46 0-0.67 0.07-0.47 0.15-0.81 0.41-0.76 0.96 0.01 0.06-0.03 0.17-0.07 0.19-0.12 0.05-0.32 0.13-0.37 0.08-0.27-0.26-0.48-0.6-0.93-0.53s-0.52 0.45-0.71 0.78c-0.17 0.3-0.5 0.52-0.79 0.74-0.08 0.07-0.31 0.09-0.38 0.03-0.24-0.22-0.43-0.42-0.65 0-0.76 0.29-1.42 0.69-1.87 1.36-0.31-0.23-0.61-0.39-1.04-0.24-0.31 0.11-0.6-0.01-0.76-0.31-0.21-0.39-0.38-0.8-0.61-1.18-0.05-0.08-0.18-0.12-0.3-0.17-0.03-0.28-0.03-0.56-0.1-0.83-0.22-0.87-0.46-1.74-0.72-2.6-0.14-0.44-0.18-0.88-0.12-1.33 0.06-0.4 0.57-0.83 0.99-0.78 0.23 0.03 0.44 0.15 0.67 0.17 0.4 0.05 0.78-0.03 1-0.41 0.23-0.41 0.44-0.18 0.73-0.04 0.47 0.22 0.9 0.1 1.19-0.35 0.08-0.12 0.18-0.23 0.28-0.35 0.07 0.12 0.13 0.24 0.2 0.34 0.42 0.62 0.95 0.63 1.45 0.01 0.08-0.1 0.16-0.21 0.24-0.31 0.08 0.04 0.16 0.05 0.21 0.1 0.3 0.31 0.66 0.38 1.05 0.24 0.35-0.12 0.38-0.44 0.46-0.73 0.02-0.07 0.08-0.12 0.13-0.18l0.29 0.29c0.5 0.46 0.86 0.47 1.34-0.02 0.16-0.16 0.28-0.37 0.48-0.12 0.22 0.27 0.46 0.39 0.79 0.27 0.29-0.11 0.54-0.27 0.66-0.59 0.09-0.23-0.06-0.56 0.31-0.73 0.08 0.22 0.13 0.43 0.22 0.63 0.16 0.34 0.42 0.44 0.76 0.29 0.28-0.12 0.55-0.27 0.84-0.41 0.52 0.13 1.04 0.26 1.55 0.39 0.32 0.53 0.8 1.07 0.62 1.65-0.21 0.66 0.03 1.15 0.24 1.71 0.03 0.09-0.1 0.24-0.18 0.35-0.01 0.02-0.16-0.03-0.21-0.08-0.15-0.17-0.28-0.35-0.43-0.52-0.35-0.41-0.52-0.45-0.9-0.07-0.28 0.32-0.57 0.52-0.99 0.44zm1.44 7.34 0.54 0.21c-0.21 0.02-0.39-0.06-0.54-0.21zm0.65 0.37c0.14 0.4 0.07 0.81 0.04 1.23h-0.01c0-0.42-0.01-0.82-0.03-1.23zm0.27 1.67-0.07 0.13 0.04-0.08c0.04-0.2 0.01-0.36-0.18-0.47 0.95 0.02 1.08 0.18 0.83 1.03 0.02 0.01 0.03 0.03 0.05 0.04h-0.03c-0.09-0.33-0.33-0.53-0.64-0.65zm2.51-5.01-0.02-0.12 0.14 0.04-0.12 0.08zm0.35 3.48c-0.03-0.01-0.05-0.04-0.07-0.06 0.06 0.01 0.13 0.02 0.19 0.03-0.04 0.01-0.09 0.04-0.12 0.03zm1.04-0.93c0.25 0.05 0.52 0.06 0.69 0.26-0.23-0.08-0.46-0.17-0.69-0.26zm0.88 9.07c-0.12-0.05-0.12-0.13-0.06-0.22 0.04 0.03 0.09 0.07 0.12 0.11 0.01 0.02-0.05 0.12-0.06 0.11z"/>
<path class="st0" d="m142.75 33.78c-0.05 0-0.09-0.02-0.13-0.03l0.07 0.07 0.06-0.04z"/>
<path class="st0" d="m100.74 32.93c0-0.02 0.01-0.04 0.01-0.06-0.02 0-0.04 0.01-0.06 0.01l0.05 0.05z"/>
<path class="st0" d="m98.35 34.68c-0.01 0.02-0.01 0.04-0.02 0.06 0.02 0 0.04-0.01 0.06-0.01l-0.04-0.05z"/>
<path class="st0" d="m145.5 36.09c0.02-0.01 0.03-0.01 0.05-0.01v-0.04l-0.05 0.05z"/>
<path class="st2" d="m162.8 82.31c0 4.3-2.4 7.02-7.21 8.15l1.47 0.59c3.05 1.21 5.06 2.81 6.04 4.81 0.74 1.52 1.11 3.11 1.11 4.75 0 3.71-1.34 6.6-4.02 8.65s-6.42 3.08-11.23 3.08c-1.52 0-3.13-0.06-4.81-0.18l-4.16-0.29c-1.09-0.08-2.29-0.12-3.58-0.12-0.94 0-2.31 0.1-4.1 0.29-1.8 0.2-3.09 0.29-3.87 0.29h-0.47c-1.25 0-2.26-0.39-3.02-1.17s-1.14-1.82-1.14-3.11c0-1.09 0.3-2.01 0.91-2.76 0.61-0.74 1.36-1.11 2.26-1.11 0.35 0 0.83 0.07 1.44 0.21s1.06 0.21 1.38 0.21c1.06 0 1.58-1.33 1.58-3.99v-16.25c0-2.62-0.53-3.93-1.58-3.93-0.31 0-0.77 0.07-1.38 0.21s-1.08 0.21-1.44 0.21c-0.9 0-1.65-0.37-2.26-1.11s-0.91-1.66-0.91-2.76c0-1.29 0.38-2.33 1.14-3.14 0.76-0.8 1.77-1.2 3.02-1.2h0.23c0.12 0.04 0.2 0.06 0.23 0.06l4.16 0.41c1.17 0.12 2.74 0.18 4.69 0.18 1.52 0 2.74-0.04 3.64-0.12l3.99-0.35c0.9-0.08 2.21-0.12 3.93-0.12 2.58 0 4.91 0.27 6.98 0.82s3.75 1.63 5.04 3.25 1.94 3.47 1.94 5.54zm-21.35 3.93c0 0.78 0.16 1.27 0.47 1.47 0.2 0.16 0.68 0.23 1.47 0.23h1.82c2.03 0 3.64-0.37 4.84-1.11 1.19-0.74 1.79-1.74 1.79-2.99 0-2.62-2.03-3.93-6.1-3.93-1.49 0-2.5 0.12-3.05 0.35-0.82 0.39-1.23 1.23-1.23 2.52v3.46zm11.79 13.95c0-1.6-0.72-2.89-2.17-3.87s-3.36-1.47-5.75-1.47h-1.76c-0.86 0-1.43 0.13-1.7 0.38s-0.41 0.73-0.41 1.44v4.28c0 1.49 0.43 2.51 1.29 3.08s2.42 0.85 4.69 0.85c1.72 0 3.12-0.43 4.19-1.29 1.08-0.85 1.62-1.99 1.62-3.4z"/>
<path class="st0" d="m203.08 89.52c-1.13 0.78-2.91 1.45-5.34 1.99 2.81 0.47 4.81 1.3 5.98 2.49s1.76 2.96 1.76 5.31c0 0.7-0.02 1.39-0.06 2.05v0.7c0 1.6 0.47 2.4 1.41 2.4 0.23 0 0.6-0.05 1.08-0.15 0.49-0.1 0.85-0.15 1.08-0.15 0.86 0 1.55 0.36 2.08 1.08s0.79 1.67 0.79 2.84c0 1.29-0.38 2.32-1.14 3.08s-1.77 1.14-3.02 1.14c-0.43 0-1.1-0.05-1.99-0.15-0.9-0.1-1.56-0.15-1.99-0.15-0.47 0-1.16 0.05-2.08 0.15s-1.61 0.15-2.08 0.15c-1.45 0-2.61-0.6-3.49-1.79s-1.32-2.77-1.32-4.72c0-0.2 0.02-0.33 0.06-0.41l0.12-3.4v-0.41c0-2.03-0.52-3.44-1.55-4.22-1.04-0.78-2.9-1.17-5.6-1.17-1.09 0-1.78 0.29-2.05 0.88-0.2 0.39-0.29 1.11-0.29 2.17v1.35c0 2.66 0.49 3.99 1.47 3.99 0.27 0 0.69-0.07 1.26-0.21s1.01-0.21 1.32-0.21c0.82 0 1.51 0.37 2.08 1.11s0.85 1.66 0.85 2.76c0 2.85-1.37 4.28-4.1 4.28-0.94 0-2.21-0.1-3.81-0.29-1.6-0.2-2.99-0.29-4.16-0.29-1.25 0-2.7 0.1-4.34 0.29s-3.03 0.29-4.16 0.29c-2.85 0-4.28-1.43-4.28-4.28 0-1.09 0.3-2.01 0.91-2.76 0.61-0.74 1.36-1.11 2.26-1.11 0.35 0 0.84 0.07 1.47 0.21 0.62 0.14 1.07 0.21 1.35 0.21 1.06 0 1.58-1.33 1.58-3.99v-16.22c0-1.25-0.04-2.05-0.12-2.4-0.2-1.02-0.68-1.52-1.47-1.52-0.31 0-0.77 0.07-1.38 0.21s-1.08 0.21-1.44 0.21c-0.9 0-1.65-0.37-2.26-1.11s-0.91-1.66-0.91-2.76c0-1.25 0.38-2.29 1.14-3.11s1.75-1.23 2.96-1.23c0.23 0 0.41 0.02 0.53 0.06l4.16 0.41c1.17 0.12 2.42 0.18 3.75 0.18 2.31 0 5.22-0.12 8.74-0.35 2.35-0.16 4.08-0.23 5.22-0.23 3.71 0 6.65 0.93 8.82 2.79s3.25 4.39 3.25 7.59c0 2.9-1.02 5.05-3.05 6.42zm-13.31-9.03c-1.56 0-2.58 0.1-3.05 0.29-0.86 0.39-1.29 1.23-1.29 2.52v3.52c0 0.9 0.15 1.49 0.44 1.76s0.85 0.41 1.67 0.41c5.08 0 7.62-1.5 7.62-4.52 0-2.65-1.8-3.98-5.39-3.98z"/>
<path class="st0" d="m241.6 99.9h-7.8c-2.23 0-3.34 1.33-3.34 3.99 0 0.63 0.33 0.94 1 0.94 0.2 0 0.49-0.03 0.88-0.09s0.68-0.09 0.88-0.09c1.45 0 2.17 1.15 2.17 3.46 0 1.25-0.33 2.27-1 3.05s-1.54 1.17-2.64 1.17c-0.55 0-1.76-0.14-3.64-0.41-0.82-0.12-1.97-0.18-3.46-0.18-1.6 0-2.85 0.06-3.75 0.18-2.07 0.27-3.3 0.41-3.69 0.41-1.21 0-2.2-0.37-2.96-1.11s-1.14-1.72-1.14-2.93c0-2.74 1.04-4.1 3.11-4.1 0.23 0 0.61 0.03 1.11 0.09 0.51 0.06 0.88 0.09 1.11 0.09 0.74 0 1.35-0.41 1.82-1.23 0.12-0.23 0.39-0.96 0.82-2.17l8.09-23.04c0.94-2.62 1.99-4.26 3.17-4.93 0.86-0.43 2.76-0.65 5.69-0.65 3.28 0 5.35 0.21 6.22 0.62 0.86 0.41 1.56 1.55 2.11 3.43l7.51 24.98c0.59 1.99 1.27 2.99 2.05 2.99 0.23 0 0.65-0.06 1.23-0.18h0.65c2.19 0 3.28 1.29 3.28 3.87 0 1.29-0.39 2.33-1.17 3.11s-1.8 1.17-3.05 1.17c-0.55 0-1.27-0.06-2.17-0.18-1.09-0.19-1.82-0.29-2.17-0.29-0.86-0.08-1.97-0.12-3.34-0.12-1.49 0-2.48 0.04-2.99 0.12-1.99 0.31-3.25 0.47-3.75 0.47-1.06 0-1.93-0.4-2.61-1.2s-1.03-1.81-1.03-3.02c0-2.31 0.74-3.46 2.23-3.46 0.2 0 0.49 0.03 0.88 0.09s0.68 0.09 0.88 0.09c0.74 0 1.11-0.41 1.11-1.23 0-1.06-0.22-1.94-0.65-2.64-0.44-0.72-0.98-1.07-1.65-1.07zm-0.88-8.97-2.81-12.02-3.64 12.49c-0.04 0.12-0.06 0.25-0.06 0.41 0 0.47 0.49 0.7 1.47 0.7h3.64c1.02 0 1.52-0.27 1.52-0.82 0 0.04-0.04-0.21-0.12-0.76z"/>
<path class="st0" d="m279.54 83.78v6.33l8.5-7.86c1.37-1.25 2.05-2.17 2.05-2.76 0-0.31-0.08-0.55-0.23-0.7-0.16-0.16-0.41-0.33-0.76-0.53-0.74-0.55-1.11-1.27-1.11-2.17 0-1.02 0.35-1.84 1.06-2.46 0.7-0.62 1.62-0.94 2.76-0.94 0.74 0 1.83 0.1 3.25 0.29 1.43 0.2 2.51 0.29 3.25 0.29 0.82 0 1.95-0.12 3.4-0.35 0.98-0.16 1.82-0.23 2.52-0.23 1.29 0 2.32 0.36 3.08 1.08s1.14 1.71 1.14 2.96c0 1.13-0.3 2.1-0.91 2.9s-1.32 1.2-2.14 1.2c-0.27 0-0.66-0.07-1.14-0.21-0.49-0.14-0.87-0.21-1.14-0.21-0.47 0-1.13 0.33-1.99 1l-1.06 0.82-5.69 4.98c-1.17 1.02-1.76 1.74-1.76 2.17 0 0.23 0.21 0.72 0.65 1.47l1.52 2.7 4.16 7.09c1.52 2.62 2.74 3.93 3.64 3.93 0.23 0 0.63-0.07 1.2-0.21s1.01-0.21 1.32-0.21c2.11 0 3.17 1.29 3.17 3.87 0 1.29-0.39 2.33-1.17 3.11s-1.82 1.17-3.11 1.17c-0.74 0-1.62-0.08-2.64-0.23-1.52-0.23-2.89-0.35-4.1-0.35-0.7 0-1.75 0.1-3.14 0.29-1.39 0.2-2.43 0.29-3.14 0.29-1.02 0-1.88-0.31-2.58-0.94-0.7-0.62-1.06-1.41-1.06-2.35 0-0.9 0.55-1.8 1.64-2.7 0.51-0.39 0.76-0.82 0.76-1.29 0-0.43-0.31-1.19-0.94-2.29l-3.11-5.39c-0.7-1.25-1.19-1.88-1.47-1.88-0.23 0-0.45 0.1-0.65 0.29l-0.57 0.63-3.46 2.87v1.99 2.05c0.12 0.82 0.51 1.23 1.17 1.23 0.04 0 0.14-0.02 0.29-0.06h0.35c0.12-0.04 0.29-0.06 0.53-0.06 1.72 0 2.58 1.21 2.58 3.64 0 1.29-0.35 2.33-1.06 3.11-0.7 0.78-1.66 1.17-2.87 1.17-0.55 0-1.35-0.08-2.4-0.23-1.21-0.16-2.03-0.25-2.46-0.29-0.59-0.04-1.27-0.06-2.05-0.06-0.9 0-2.2 0.1-3.9 0.29-1.7 0.2-2.98 0.29-3.84 0.29-1.25 0-2.27-0.39-3.05-1.17s-1.17-1.82-1.17-3.11c0-1.13 0.3-2.06 0.91-2.79 0.61-0.72 1.38-1.08 2.32-1.08 0.31 0 0.77 0.07 1.38 0.21s1.06 0.21 1.38 0.21c1.06 0 1.58-1.33 1.58-3.99v-16.24c0-1.25-0.04-2.05-0.12-2.4-0.2-1.02-0.68-1.52-1.47-1.52-0.31 0-0.77 0.07-1.38 0.21s-1.08 0.21-1.44 0.21c-0.9 0-1.65-0.37-2.26-1.11s-0.91-1.66-0.91-2.76c0-1.33 0.38-2.37 1.14-3.14s1.79-1.14 3.08-1.14c0.86 0 2.18 0.1 3.96 0.29 1.78 0.2 3.14 0.29 4.08 0.29 0.74 0 1.86-0.1 3.34-0.29 1.48-0.2 2.6-0.29 3.34-0.29 1.17 0 2.11 0.39 2.81 1.17s1.06 1.84 1.06 3.17c0 2.35-0.86 3.52-2.58 3.52h-0.53c-0.16-0.04-0.39-0.06-0.7-0.06-0.63 0-1 0.41-1.11 1.23v2.04z"/>
<path class="st0" d="m315.66 104.59c1.06 0 1.58-1.33 1.58-3.99v-16.24c0-2.62-0.53-3.93-1.58-3.93-0.31 0-0.77 0.07-1.38 0.21s-1.08 0.21-1.44 0.21c-0.9 0-1.65-0.37-2.26-1.11s-0.91-1.66-0.91-2.76c0-1.29 0.39-2.33 1.17-3.11s1.8-1.17 3.05-1.17c0.66 0 2.03 0.12 4.1 0.35 1.37 0.16 2.68 0.23 3.93 0.23 0.47 0 1.56-0.06 3.28-0.18l4.28-0.29c1.13-0.08 2.25-0.12 3.34-0.12 7.07 0 12.14 2.99 15.19 8.97 1.72 3.36 2.58 6.98 2.58 10.85s-0.82 7.43-2.46 10.67c-1.64 3.25-3.83 5.63-6.57 7.15-2.42 1.33-5.32 1.99-8.68 1.99-1.33 0-2.46-0.04-3.4-0.12l-4.28-0.35c-0.94-0.08-2.03-0.12-3.28-0.12-1.56 0-2.87 0.06-3.93 0.18l-2.35 0.23c-0.9 0.12-1.49 0.18-1.76 0.18-1.25 0-2.27-0.39-3.05-1.17s-1.17-1.82-1.17-3.11c0-1.09 0.3-2.01 0.91-2.76 0.61-0.74 1.36-1.11 2.26-1.11 0.35 0 0.84 0.07 1.47 0.21s1.08 0.21 1.36 0.21zm15.24-24.39c-1.33 0-2.22 0.21-2.67 0.62s-0.67 1.22-0.67 2.43v18.47c0 1.21 0.22 2.03 0.67 2.46s1.34 0.65 2.67 0.65c2.15 0 4.08-0.88 5.8-2.64 1.99-2.07 2.99-5.14 2.99-9.21 0-4.57-1-7.95-2.99-10.14-0.9-0.98-1.88-1.68-2.93-2.11-0.89-0.36-1.85-0.53-2.87-0.53z"/>
<path class="st0" d="m379.34 99.9h-7.8c-2.23 0-3.34 1.33-3.34 3.99 0 0.63 0.33 0.94 1 0.94 0.2 0 0.49-0.03 0.88-0.09s0.68-0.09 0.88-0.09c1.45 0 2.17 1.15 2.17 3.46 0 1.25-0.33 2.27-1 3.05s-1.54 1.17-2.64 1.17c-0.55 0-1.76-0.14-3.64-0.41-0.82-0.12-1.97-0.18-3.46-0.18-1.6 0-2.85 0.06-3.75 0.18-2.07 0.27-3.3 0.41-3.69 0.41-1.21 0-2.2-0.37-2.96-1.11s-1.14-1.72-1.14-2.93c0-2.74 1.04-4.1 3.11-4.1 0.23 0 0.61 0.03 1.11 0.09 0.51 0.06 0.88 0.09 1.11 0.09 0.74 0 1.35-0.41 1.82-1.23 0.12-0.23 0.39-0.96 0.82-2.17l8.09-23.04c0.94-2.62 1.99-4.26 3.17-4.93 0.86-0.43 2.76-0.65 5.69-0.65 3.28 0 5.35 0.21 6.22 0.62 0.86 0.41 1.56 1.55 2.11 3.43l7.51 24.98c0.59 1.99 1.27 2.99 2.05 2.99 0.23 0 0.65-0.06 1.23-0.18h0.65c2.19 0 3.28 1.29 3.28 3.87 0 1.29-0.39 2.33-1.17 3.11s-1.8 1.17-3.05 1.17c-0.55 0-1.27-0.06-2.17-0.18-1.09-0.19-1.82-0.29-2.17-0.29-0.86-0.08-1.97-0.12-3.34-0.12-1.49 0-2.48 0.04-2.99 0.12-1.99 0.31-3.25 0.47-3.75 0.47-1.06 0-1.93-0.4-2.61-1.2s-1.03-1.81-1.03-3.02c0-2.31 0.74-3.46 2.23-3.46 0.2 0 0.49 0.03 0.88 0.09s0.68 0.09 0.88 0.09c0.74 0 1.11-0.41 1.11-1.23 0-1.06-0.22-1.94-0.65-2.64-0.44-0.72-0.99-1.07-1.65-1.07zm-0.88-8.97-2.81-12.02-3.64 12.49c-0.04 0.12-0.06 0.25-0.06 0.41 0 0.47 0.49 0.7 1.47 0.7h3.64c1.02 0 1.52-0.27 1.52-0.82-0.01 0.04-0.05-0.21-0.12-0.76z"/>
<path class="st0" d="m417.27 83.78v6.33l8.5-7.86c1.37-1.25 2.05-2.17 2.05-2.76 0-0.31-0.08-0.55-0.23-0.7-0.16-0.16-0.41-0.33-0.76-0.53-0.74-0.55-1.11-1.27-1.11-2.17 0-1.02 0.35-1.84 1.06-2.46 0.7-0.62 1.62-0.94 2.76-0.94 0.74 0 1.83 0.1 3.25 0.29 1.43 0.2 2.51 0.29 3.25 0.29 0.82 0 1.95-0.12 3.4-0.35 0.98-0.16 1.82-0.23 2.52-0.23 1.29 0 2.32 0.36 3.08 1.08s1.14 1.71 1.14 2.96c0 1.13-0.3 2.1-0.91 2.9s-1.32 1.2-2.14 1.2c-0.27 0-0.66-0.07-1.14-0.21-0.49-0.14-0.87-0.21-1.14-0.21-0.47 0-1.13 0.33-1.99 1l-1.06 0.82-5.69 4.98c-1.17 1.02-1.76 1.74-1.76 2.17 0 0.23 0.21 0.72 0.65 1.47l1.52 2.7 4.16 7.09c1.52 2.62 2.74 3.93 3.64 3.93 0.23 0 0.63-0.07 1.2-0.21s1.01-0.21 1.32-0.21c2.11 0 3.17 1.29 3.17 3.87 0 1.29-0.39 2.33-1.17 3.11s-1.82 1.17-3.11 1.17c-0.74 0-1.62-0.08-2.64-0.23-1.52-0.23-2.89-0.35-4.1-0.35-0.7 0-1.75 0.1-3.14 0.29-1.39 0.2-2.43 0.29-3.14 0.29-1.02 0-1.88-0.31-2.58-0.94-0.7-0.62-1.06-1.41-1.06-2.35 0-0.9 0.55-1.8 1.64-2.7 0.51-0.39 0.76-0.82 0.76-1.29 0-0.43-0.31-1.19-0.94-2.29l-3.11-5.39c-0.7-1.25-1.19-1.88-1.47-1.88-0.23 0-0.45 0.1-0.65 0.29l-0.59 0.59-3.46 2.87v1.99 2.05c0.12 0.82 0.51 1.23 1.17 1.23 0.04 0 0.14-0.02 0.29-0.06h0.35c0.12-0.04 0.29-0.06 0.53-0.06 1.72 0 2.58 1.21 2.58 3.64 0 1.29-0.35 2.33-1.06 3.11-0.7 0.78-1.66 1.17-2.87 1.17-0.55 0-1.35-0.08-2.4-0.23-1.21-0.16-2.03-0.25-2.46-0.29-0.59-0.04-1.27-0.06-2.05-0.06-0.9 0-2.2 0.1-3.9 0.29-1.7 0.2-2.98 0.29-3.84 0.29-1.25 0-2.27-0.39-3.05-1.17s-1.17-1.82-1.17-3.11c0-1.13 0.3-2.06 0.91-2.79 0.61-0.72 1.38-1.08 2.32-1.08 0.31 0 0.77 0.07 1.38 0.21s1.06 0.21 1.38 0.21c1.06 0 1.58-1.33 1.58-3.99v-16.2c0-1.25-0.04-2.05-0.12-2.4-0.2-1.02-0.68-1.52-1.47-1.52-0.31 0-0.77 0.07-1.38 0.21s-1.08 0.21-1.44 0.21c-0.9 0-1.65-0.37-2.26-1.11s-0.91-1.66-0.91-2.76c0-1.33 0.38-2.37 1.14-3.14s1.79-1.14 3.08-1.14c0.86 0 2.18 0.1 3.96 0.29 1.78 0.2 3.14 0.29 4.08 0.29 0.74 0 1.86-0.1 3.34-0.29 1.48-0.2 2.6-0.29 3.34-0.29 1.17 0 2.11 0.39 2.81 1.17s1.06 1.84 1.06 3.17c0 2.35-0.86 3.52-2.58 3.52h-0.53c-0.16-0.04-0.39-0.06-0.7-0.06-0.63 0-1 0.41-1.11 1.23 0.02 0.02 0.02 0.71 0.02 2.04z"/>
<path class="st0" d="m465.29 83.78v6.33l8.5-7.86c1.37-1.25 2.05-2.17 2.05-2.76 0-0.31-0.08-0.55-0.23-0.7-0.16-0.16-0.41-0.33-0.76-0.53-0.74-0.55-1.11-1.27-1.11-2.17 0-1.02 0.35-1.84 1.06-2.46 0.7-0.62 1.62-0.94 2.76-0.94 0.74 0 1.83 0.1 3.25 0.29 1.43 0.2 2.51 0.29 3.25 0.29 0.82 0 1.95-0.12 3.4-0.35 0.98-0.16 1.82-0.23 2.52-0.23 1.29 0 2.32 0.36 3.08 1.08s1.14 1.71 1.14 2.96c0 1.13-0.3 2.1-0.91 2.9s-1.32 1.2-2.14 1.2c-0.27 0-0.66-0.07-1.14-0.21-0.49-0.14-0.87-0.21-1.14-0.21-0.47 0-1.13 0.33-1.99 1l-1.06 0.82-5.69 4.98c-1.17 1.02-1.76 1.74-1.76 2.17 0 0.23 0.21 0.72 0.65 1.47l1.52 2.7 4.16 7.09c1.52 2.62 2.74 3.93 3.64 3.93 0.23 0 0.63-0.07 1.2-0.21s1.01-0.21 1.32-0.21c2.11 0 3.17 1.29 3.17 3.87 0 1.29-0.39 2.33-1.17 3.11s-1.82 1.17-3.11 1.17c-0.74 0-1.62-0.08-2.64-0.23-1.52-0.23-2.89-0.35-4.1-0.35-0.7 0-1.75 0.1-3.14 0.29-1.39 0.2-2.43 0.29-3.14 0.29-1.02 0-1.88-0.31-2.58-0.94-0.7-0.62-1.06-1.41-1.06-2.35 0-0.9 0.55-1.8 1.64-2.7 0.51-0.39 0.76-0.82 0.76-1.29 0-0.43-0.31-1.19-0.94-2.29l-3.11-5.39c-0.7-1.25-1.19-1.88-1.47-1.88-0.23 0-0.45 0.1-0.65 0.29l-0.59 0.59-3.46 2.87v1.99 2.05c0.12 0.82 0.51 1.23 1.17 1.23 0.04 0 0.14-0.02 0.29-0.06h0.35c0.12-0.04 0.29-0.06 0.53-0.06 1.72 0 2.58 1.21 2.58 3.64 0 1.29-0.35 2.33-1.06 3.11-0.7 0.78-1.66 1.17-2.87 1.17-0.55 0-1.35-0.08-2.4-0.23-1.21-0.16-2.03-0.25-2.46-0.29-0.59-0.04-1.27-0.06-2.05-0.06-0.9 0-2.2 0.1-3.9 0.29-1.7 0.2-2.98 0.29-3.84 0.29-1.25 0-2.27-0.39-3.05-1.17s-1.17-1.82-1.17-3.11c0-1.13 0.3-2.06 0.91-2.79 0.61-0.72 1.38-1.08 2.32-1.08 0.31 0 0.77 0.07 1.38 0.21s1.06 0.21 1.38 0.21c1.06 0 1.58-1.33 1.58-3.99v-16.2c0-1.25-0.04-2.05-0.12-2.4-0.2-1.02-0.68-1.52-1.47-1.52-0.31 0-0.77 0.07-1.38 0.21s-1.08 0.21-1.44 0.21c-0.9 0-1.65-0.37-2.26-1.11s-0.91-1.66-0.91-2.76c0-1.33 0.38-2.37 1.14-3.14s1.79-1.14 3.08-1.14c0.86 0 2.18 0.1 3.96 0.29 1.78 0.2 3.14 0.29 4.08 0.29 0.74 0 1.86-0.1 3.34-0.29 1.48-0.2 2.6-0.29 3.34-0.29 1.17 0 2.11 0.39 2.81 1.17s1.06 1.84 1.06 3.17c0 2.35-0.86 3.52-2.58 3.52h-0.53c-0.16-0.04-0.39-0.06-0.7-0.06-0.63 0-1 0.41-1.11 1.23 0.02 0.02 0.02 0.71 0.02 2.04z"/>
<path class="st0" d="m501.41 104.59c0.78 0 1.27-0.51 1.47-1.52 0.08-0.39 0.12-1.21 0.12-2.46v-16.25c0-1.25-0.04-2.05-0.12-2.4-0.2-1.02-0.68-1.52-1.47-1.52-0.31 0-0.77 0.07-1.38 0.21s-1.08 0.21-1.44 0.21c-0.9 0-1.65-0.37-2.26-1.11s-0.91-1.66-0.91-2.76c0-1.33 0.38-2.37 1.14-3.14s1.79-1.14 3.08-1.14c0.59 0 1.95 0.12 4.1 0.35 1.45 0.16 2.85 0.23 4.22 0.23 1.09 0 2.67-0.1 4.72-0.29 2.05-0.2 3.41-0.29 4.08-0.29 2.85 0 4.28 1.43 4.28 4.28 0 1.1-0.3 2.01-0.91 2.76-0.61 0.74-1.36 1.11-2.26 1.11-0.31 0-0.78-0.07-1.41-0.21s-1.1-0.21-1.41-0.21c-1.06 0-1.58 1.31-1.58 3.93v16.24c0 2.66 0.53 3.99 1.58 3.99 0.31 0 0.78-0.07 1.41-0.21 0.62-0.14 1.09-0.21 1.41-0.21 0.9 0 1.65 0.37 2.26 1.11s0.91 1.66 0.91 2.76c0 1.25-0.38 2.29-1.14 3.11s-1.73 1.23-2.9 1.23c-0.23 0-0.41-0.02-0.53-0.06l-3.69-0.47c-0.94-0.12-1.97-0.18-3.11-0.18-1.76 0-3.6 0.1-5.51 0.29-2.31 0.23-3.81 0.35-4.51 0.35-1.25 0-2.27-0.39-3.05-1.17s-1.17-1.82-1.17-3.11c0-1.13 0.3-2.06 0.91-2.79 0.61-0.72 1.38-1.08 2.32-1.08 0.31 0 0.77 0.07 1.38 0.21 0.6 0.14 1.06 0.21 1.37 0.21z"/>
<path class="st0" d="m544.51 80.08c-1.29 0-2.15 0.12-2.58 0.35-0.59 0.35-0.88 1.13-0.88 2.35v3.28c0 0.67 0.09 1.16 0.26 1.5 0.18 0.33 0.64 0.5 1.38 0.5 1.72 0 2.58-0.62 2.58-1.88v-0.76c-0.04-0.23-0.06-0.53-0.06-0.88 0-1.64 0.96-2.46 2.87-2.46 1.99 0 2.99 1 2.99 2.99 0 0.55-0.04 1.15-0.12 1.82-0.16 1.29-0.23 2.48-0.23 3.58 0 1.02 0.08 2.31 0.23 3.87 0.16 1.56 0.23 2.66 0.23 3.28 0 2.31-1.04 3.46-3.11 3.46-1.96 0-2.93-1-2.93-2.99v-0.29c0-0.2 0.04-0.66 0.12-1.41 0-0.94-0.84-1.41-2.52-1.41-1.13 0-1.7 0.63-1.7 1.88v4.4c0 1.37 0.24 2.3 0.73 2.79s1.4 0.73 2.73 0.73h3.4c2.5 0 4.25-0.21 5.25-0.65 1-0.43 1.5-1.19 1.5-2.29 0-0.55-0.06-1.2-0.18-1.96s-0.18-1.4-0.18-1.91c0-1.45 0.41-2.58 1.23-3.4s1.94-1.23 3.34-1.23c2.85 0 4.28 1.56 4.28 4.69 0 1.02-0.06 2.09-0.18 3.23-0.2 1.88-0.29 3.05-0.29 3.52 0 0.43 0.1 1.27 0.29 2.52 0.12 0.74 0.18 1.51 0.18 2.29 0 1.84-1.15 2.76-3.46 2.76-0.74 0-1.97-0.06-3.69-0.18-2.85-0.19-7.41-0.33-13.66-0.41h-5.22c-1.96 0-3.58 0.06-4.87 0.18l-4.46 0.41c-0.04 0-0.12 0.02-0.23 0.06h-0.29c-1.21 0-2.2-0.41-2.96-1.23s-1.14-1.86-1.14-3.11c0-1.09 0.3-2.01 0.91-2.76 0.61-0.74 1.38-1.11 2.32-1.11 0.31 0 0.78 0.07 1.41 0.21 0.62 0.14 1.07 0.21 1.35 0.21 1.06 0 1.58-1.33 1.58-3.99v-16.27c0-2.62-0.53-3.93-1.58-3.93-0.23 0-0.7 0.08-1.41 0.23-0.51 0.12-0.96 0.18-1.35 0.18-0.9 0-1.66-0.37-2.29-1.11s-0.94-1.66-0.94-2.76c0-2.85 1.43-4.28 4.28-4.28 0.66 0 2.01 0.08 4.05 0.23 3.05 0.23 6 0.35 8.85 0.35 0.27 0 2.62-0.06 7.04-0.18 3.21-0.08 5.32-0.16 6.33-0.23 1.68-0.12 3.44-0.18 5.28-0.18 2.19 0 3.28 0.96 3.28 2.87 0 0.63-0.07 1.54-0.21 2.76-0.14 1.21-0.21 2.13-0.21 2.76s0.09 1.52 0.26 2.67c0.18 1.15 0.26 2.02 0.26 2.61 0 1.13-0.42 2.09-1.26 2.87s-1.89 1.17-3.14 1.17c-2.93 0-4.4-1.5-4.4-4.51 0-0.51 0.09-1.21 0.26-2.11 0.18-0.9 0.26-1.56 0.26-1.99 0-0.86-0.45-1.39-1.35-1.58-0.31-0.08-1.13-0.12-2.46-0.12h-5.77z"/>
<path class="st1" d="m408.79 133.87c0.12 0.55-0.1 1.13-0.67 1.75-1.07 0.65-1.98 1.17-2.72 1.56-0.2 0.1-0.45 0.15-0.75 0.15-0.5 0-0.78-0.1-0.86-0.3 0.05-0.15 0.52-0.5 1.42-1.04 0.07-0.05 0.18-0.12 0.32-0.2 0.14-0.09 0.23-0.14 0.28-0.17 0.6-0.52 0.88-0.94 0.86-1.27-0.07-0.2-0.34-0.3-0.78-0.3-0.2 0-0.33 0.01-0.41 0.04-2.14 0-4.82 1.52-8.05 4.55-1.96 1.84-3.06 3.43-3.28 4.77-0.1 0.3-0.16 0.51-0.19 0.63-0.07 0.2-0.06 0.41 0.04 0.63 0.05 0.3 0.27 0.45 0.67 0.45 1.09 0 2.6-0.75 4.51-2.24 0.42-0.32 0.89-0.71 1.42-1.16 2.11-1.79 3.82-2.68 5.14-2.68 0.6 0 0.94 0.22 1.04 0.67 0.1 0.42-0.21 1.23-0.93 2.42-0.15 0.25-0.52 0.79-1.12 1.64l-0.15 0.15-1.23 1.68c1.14-0.62 1.81-0.93 2.01-0.93 0.22 0 0.34 0.07 0.34 0.22 0 0.1-0.04 0.21-0.11 0.34-0.12 0.35-0.36 0.61-0.71 0.78l-1.42 0.71c-0.3 0.15-0.82 0.45-1.56 0.89-4.4 6.08-7.92 10.69-10.58 13.82-3.75 4.4-6.48 6.59-8.2 6.59-0.65 0-1.04-0.25-1.19-0.75-0.15-0.57 0.06-1.48 0.63-2.72 3.03-6.48 9.02-12.29 17.96-17.44 0.4-0.52 0.87-1.2 1.42-2.05l0.82-1.23c0.35-0.52 0.88-1.29 1.6-2.31 0.22-0.32 0.31-0.58 0.26-0.78-0.02-0.1-0.09-0.15-0.19-0.15-0.15 0-0.4 0.12-0.75 0.37-0.62 0.47-1.54 1.18-2.76 2.12-2.56 1.91-4.87 2.99-6.93 3.24-1.17 0.12-1.84-0.17-2.01-0.89-0.07-0.3-0.04-0.78 0.11-1.45 0.07-0.35 0.21-0.76 0.41-1.23 0.77-1.89 2.31-3.79 4.62-5.7 2.71-2.24 5.37-3.56 7.97-3.99 0.62-0.1 1.14-0.15 1.56-0.15 0.3 0 0.51 0.01 0.63 0.04 0.47 0.1 0.77 0.17 0.89 0.22 0.35 0.18 0.55 0.4 0.62 0.7zm-16.32 24.03c1.59-2.04 3.7-4.84 6.33-8.42-2.86 1.89-5.4 3.96-7.64 6.22-2.56 2.58-4.36 4.63-5.4 6.15-0.57 0.82-1.03 1.65-1.38 2.5-0.27 0.65-0.37 1.12-0.3 1.42 0.07 0.2 0.21 0.3 0.41 0.3 1.1-0.01 3.76-2.73 7.98-8.17z"/>
<path class="st1" d="m425.63 138.15c0.27-0.3 0.61-0.45 1.01-0.45 0.3 0 0.46 0.07 0.48 0.22 0.05 0.17-0.06 0.4-0.34 0.67-1.56 1.56-3.29 3.07-5.18 4.51-2.71 2.06-4.74 3.09-6.11 3.09-0.52 0-0.84-0.21-0.97-0.63-0.25-0.92 0.4-2.6 1.94-5.03 0.25-0.45 0.65-1.09 1.19-1.94l-4.36 3.91c-1.07 0.92-1.78 1.52-2.12 1.79-1.37 1.02-2.47 1.53-3.32 1.53-0.72 0-1.14-0.27-1.27-0.82-0.15-0.62 0.14-1.63 0.86-3.02 0.22-0.42 0.75-1.23 1.56-2.42 1.19-1.71 2.14-3.02 2.83-3.91l0.71-0.89c0.12-0.15 0.25-0.32 0.37-0.52-0.99 0.4-2.1 0.72-3.32 0.97-0.25 0.05-0.4 0.03-0.45-0.07-0.07-0.2 0.19-0.53 0.78-0.99 0.4-0.27 1.23-0.64 2.5-1.1 1.17-0.44 2.02-0.7 2.57-0.77 0.5-0.07 0.78-0.04 0.86 0.11 0.05 0.15-0.01 0.35-0.19 0.59-0.25 0.37-0.62 0.87-1.12 1.49-0.2 0.27-0.47 0.66-0.82 1.15-3.68 4.88-5.42 7.68-5.22 8.39 0.05 0.07 0.1 0.11 0.15 0.11 0.17 0 0.65-0.24 1.42-0.71 2.16-1.34 4.15-2.89 5.96-4.66l5.4-5.25c0.27-0.27 0.73-0.41 1.38-0.41 0.32 0 0.52 0.07 0.6 0.22-0.05 0.15-0.11 0.3-0.19 0.45-0.82 1.04-2.01 2.65-3.58 4.81-2.29 3.4-3.35 5.39-3.2 5.96 0 0.1 0.06 0.15 0.19 0.15 0.02-0.02 0.1-0.05 0.22-0.07 3.08-1.38 6-3.52 8.78-6.46z"/>
<path class="st1" d="m440.35 136.55c0.27-0.27 0.71-0.41 1.3-0.41 0.2 0 0.31 0.05 0.33 0.15 0 0.12-0.05 0.24-0.15 0.34-1.27 1.29-2.72 2.55-4.36 3.76l-4.66 3.43c-1.09 0.8-2.22 1.62-3.39 2.46-1.74 1.14-3.3 1.76-4.69 1.86-1.52 0.12-2.37-0.31-2.57-1.3-0.25-1.17 0.31-2.45 1.68-3.84 0.97-0.97 2.15-1.85 3.54-2.65-0.84 0.05-1.63-0.06-2.35-0.34-0.5-0.17-0.79-0.46-0.89-0.86-0.15-0.57 0.3-1.35 1.34-2.35 1.56-1.47 3.86-2.67 6.89-3.61 1.42-0.45 2.68-0.68 3.8-0.71 1.09-0.02 1.68 0.15 1.75 0.52 0.07 0.45-0.27 0.97-1.04 1.56-0.99 0.77-1.78 1.15-2.35 1.15-0.37 0-0.57-0.09-0.6-0.26-0.05-0.2 0.16-0.42 0.63-0.67 0.94-0.52 1.4-0.83 1.38-0.93 0-0.12-0.17-0.17-0.52-0.15-1.02 0.1-2.31 0.46-3.88 1.08-3.85 1.52-5.66 2.82-5.44 3.91 0.05 0.2 0.2 0.32 0.45 0.37 0.42 0.1 1.07 0.1 1.94 0 1.07-0.12 1.95-0.29 2.65-0.48 0.1-0.02 0.25-0.04 0.45-0.04 0.22 0 0.37 0.07 0.45 0.22 0.05 0.27-0.29 0.6-1.01 0.97-0.52 0.25-1.02 0.49-1.49 0.73s-1.18 0.69-2.12 1.36c-2.06 1.47-3.2 2.78-3.43 3.95 0 0.75 0.29 1.12 0.86 1.12 1.37 0 4.06-1.44 8.08-4.32 3.14-2.24 5.61-4.25 7.42-6.02z"/>
<path class="st1" d="m450.56 128.32c0.22-0.02 0.38 0.02 0.48 0.13s0.1 0.24 0 0.39c-0.67 1.52-1.66 2.65-2.98 3.39l-1.04 0.6-1.45 5.07c-0.4 1.39-0.67 2.31-0.82 2.76-0.02 0.17-0.09 0.43-0.19 0.78-0.17 0.42-0.46 1.03-0.86 1.83-1.27 2.04-3.13 3.02-5.59 2.94-1.02-0.02-1.6-0.31-1.75-0.86-0.2-0.79 0.62-1.94 2.46-3.43 0.27-0.22 0.6-0.34 0.97-0.34 0.25 0 0.4 0.06 0.45 0.19 0.02 0.1-0.17 0.35-0.6 0.75l-0.78 0.71c-0.57 0.52-0.83 0.91-0.78 1.15 0 0.07 0.07 0.11 0.22 0.11 0.35 0 0.79-0.17 1.34-0.52s0.97-0.68 1.27-1.01c0.82-0.92 1.54-2.05 2.16-3.39 0.27-0.62 0.75-1.88 1.42-3.76l0.56-1.6-4.92 4.17c-0.77 0.62-1.83 1.49-3.17 2.61-0.5 0.42-0.99 0.86-1.49 1.3-0.7 0.57-1.25 0.86-1.68 0.86-0.25 0-0.38-0.06-0.41-0.19-0.05-0.12 0.07-0.31 0.37-0.56l8.5-7.19c0.57-0.5 1.44-1.17 2.61-2.01l0.93-0.67 0.34-0.67c1.04-2.06 2.52-3.24 4.43-3.54z"/>
<path class="st1" d="m479.28 122.71 0.11 0.1c0.05 0.12-0.06 0.27-0.34 0.47-0.27 0.2-0.47 0.27-0.6 0.22-3.23-0.1-6.88-0.15-10.95-0.15h-2.76c-1.24 0-2.17 0.01-2.79 0.04l-5.81 7.54c-1.09 1.44-1.86 2.47-2.31 3.12l-6 8.91c0.52-0.45 1.03-0.67 1.53-0.67 0.25 0 0.4 0.07 0.45 0.22 0.07 0.22-0.6 0.94-2.01 2.16-1.19 1.02-2.1 1.53-2.72 1.53-0.17 0-0.3-0.06-0.37-0.19-0.2-0.35-0.07-0.87 0.37-1.56 2.09-3.06 4.23-6.3 6.45-9.72 0.67-0.94 1.66-2.29 2.98-4.02l0.82-1.08c0.97-1.27 2.57-3.35 4.81-6.26l-19.37 0.52-0.22-0.07c-0.05-0.12 0.06-0.29 0.32-0.48 0.26-0.2 0.47-0.3 0.61-0.3l19.34-0.52c1.19-1.64 2.52-3.39 3.99-5.25 0.15-0.25 0.55-0.48 1.19-0.71 0.35-0.12 0.58-0.19 0.71-0.19 0.17 0 0.26 0.05 0.26 0.15 0.02 0.1-0.01 0.22-0.11 0.37-0.77 1.07-2.17 2.93-4.21 5.59 0.65 0.02 1.59 0.04 2.83 0.04h2.79c4.03-0.01 7.71 0.06 11.01 0.19z"/>
<path class="st1" d="m478.65 137.93c0.25-0.25 0.75-0.37 1.49-0.37 0.35 0 0.52 0.06 0.52 0.19 0.02 0.07-0.02 0.17-0.15 0.3-3.11 2.83-5.86 4.98-8.27 6.45-0.87 0.52-1.61 0.94-2.24 1.27-2.58 1.32-4.6 1.98-6.04 1.98-1.52 0-2.42-0.68-2.72-2.05-0.02-0.22-0.06-0.52-0.11-0.89 0-1.04 0.62-2.38 1.86-4.02 0.84-1.09 2.05-2.32 3.61-3.69 2.26-1.96 4.58-3.34 6.97-4.14 0.82-0.27 1.5-0.41 2.05-0.41 1.19 0 1.92 0.42 2.2 1.27 0.22 0.97-0.89 2.3-3.35 3.99-0.25 0.17-0.62 0.26-1.12 0.26-0.47 0-0.75-0.06-0.82-0.19-0.03-0.1 0.11-0.25 0.41-0.45 1.37-0.92 2.33-1.83 2.91-2.72 0.25-0.4 0.34-0.68 0.26-0.86-0.07-0.37-0.58-0.42-1.53-0.15-1.71 0.47-3.64 1.52-5.77 3.13-3.45 2.61-5.5 5.12-6.15 7.53-0.12 0.45-0.15 0.83-0.07 1.15 0.12 0.57 0.61 0.86 1.45 0.86 1.54 0 4.1-1.12 7.68-3.35 3.18-2.01 5.49-3.7 6.93-5.09z"/>
<path class="st1" d="m492.96 137c0.94-0.62 1.66-0.93 2.16-0.93 0.1 0 0.17 0.02 0.22 0.07 0 0.07-0.07 0.19-0.22 0.33-1.12 1.04-2.4 2.01-3.84 2.91-0.87 0.52-1.75 0.98-2.65 1.36-0.89 0.39-1.66 0.59-2.31 0.61-0.37 0.37-0.93 0.84-1.68 1.42-2.78 2.41-5.27 3.61-7.45 3.61-1.34 0-2.16-0.55-2.46-1.64-0.12-0.5-0.07-1.08 0.15-1.75 0.62-1.79 2.21-3.84 4.77-6.15 2.93-2.63 4.99-3.95 6.18-3.95 0.4 0 0.63 0.1 0.71 0.3 0.07 0.3-0.19 0.56-0.78 0.78-1.59 0.62-3.37 1.89-5.33 3.8-1.59 1.54-2.58 2.67-2.98 3.39l-0.37 0.67c-0.03 0.03-0.11 0.24-0.26 0.63-0.4 0.97-0.55 1.63-0.45 1.98 0.12 0.42 0.45 0.63 0.97 0.63 0.84 0 1.99-0.41 3.43-1.23 1.32-0.75 2.31-1.48 2.98-2.2-1.39 0.12-2.2-0.26-2.42-1.16-0.15-0.57-0.07-1.2 0.22-1.9 0.37-0.92 1.18-1.89 2.42-2.91 2.06-1.69 3.81-2.53 5.25-2.53 0.89 0 1.4 0.26 1.53 0.78 0.27 1.27-0.65 3.12-2.76 5.55 0.57-0.07 1.55-0.46 2.94-1.15l2.03-1.32zm-9.32 2.24c0 0.15 0.02 0.29 0.07 0.41 0.15 0.55 0.63 0.77 1.45 0.67 0.79-0.89 1.4-1.65 1.83-2.27l1.12-1.68c0.15-0.35 0.24-0.6 0.26-0.75 0.07-0.25 0.09-0.46 0.04-0.63-0.05-0.25-0.2-0.37-0.45-0.37-0.82 0-1.89 0.82-3.2 2.46-0.72 0.89-1.09 1.61-1.12 2.16z"/>
<path class="st1" d="m523.96 122.71 0.11 0.1c0.05 0.12-0.06 0.27-0.34 0.47-0.27 0.2-0.47 0.27-0.6 0.22-3.23-0.1-6.88-0.15-10.95-0.15h-2.76c-1.24 0-2.17 0.01-2.79 0.04l-5.81 7.54c-1.09 1.44-1.86 2.47-2.31 3.12l-6 8.91c0.52-0.45 1.03-0.67 1.53-0.67 0.25 0 0.4 0.07 0.45 0.22 0.07 0.22-0.6 0.94-2.01 2.16-1.19 1.02-2.1 1.53-2.72 1.53-0.17 0-0.3-0.06-0.37-0.19-0.2-0.35-0.07-0.87 0.37-1.56 2.09-3.06 4.23-6.3 6.45-9.72 0.67-0.94 1.66-2.29 2.98-4.02l0.82-1.08c0.97-1.27 2.57-3.35 4.81-6.26l-19.37 0.52-0.22-0.07c-0.05-0.12 0.06-0.29 0.32-0.48 0.26-0.2 0.47-0.3 0.61-0.3l19.34-0.52c1.19-1.64 2.52-3.39 3.99-5.25 0.15-0.25 0.55-0.48 1.19-0.71 0.35-0.12 0.58-0.19 0.71-0.19 0.17 0 0.26 0.05 0.26 0.15 0.02 0.1-0.01 0.22-0.11 0.37-0.77 1.07-2.17 2.93-4.21 5.59 0.65 0.02 1.59 0.04 2.83 0.04h2.79c4.03-0.01 7.7 0.06 11.01 0.19z"/>
<path class="st1" d="m531.04 122.71 0.11 0.1c0.05 0.12-0.06 0.27-0.34 0.47-0.27 0.2-0.47 0.27-0.6 0.22-3.23-0.1-6.88-0.15-10.95-0.15h-2.76c-1.24 0-2.17 0.01-2.79 0.04l-5.81 7.54c-1.09 1.44-1.86 2.47-2.31 3.12l-6 8.91c0.52-0.45 1.03-0.67 1.53-0.67 0.25 0 0.4 0.07 0.45 0.22 0.07 0.22-0.6 0.94-2.01 2.16-1.19 1.02-2.1 1.53-2.72 1.53-0.17 0-0.3-0.06-0.37-0.19-0.2-0.35-0.07-0.87 0.37-1.56 2.09-3.06 4.23-6.3 6.45-9.72 0.67-0.94 1.66-2.29 2.98-4.02l0.82-1.08c0.97-1.27 2.57-3.35 4.81-6.26l-19.37 0.52-0.22-0.07c-0.05-0.12 0.06-0.29 0.32-0.48 0.26-0.2 0.47-0.3 0.61-0.3l19.34-0.52c1.19-1.64 2.52-3.39 3.99-5.25 0.15-0.25 0.55-0.48 1.19-0.71 0.35-0.12 0.58-0.19 0.71-0.19 0.17 0 0.26 0.05 0.26 0.15 0.02 0.1-0.01 0.22-0.11 0.37-0.77 1.07-2.17 2.93-4.21 5.59 0.65 0.02 1.59 0.04 2.83 0.04h2.79c4.03-0.01 7.7 0.06 11.01 0.19z"/>
<path class="st1" d="m522.54 140.16c0.22-0.15 0.61-0.22 1.15-0.22 0.4 0 0.65 0.05 0.75 0.15s-0.02 0.26-0.37 0.48c-3.03 1.88-5.35 3.37-6.95 4.48s-2.76 1.67-3.48 1.67c-1.02 0-1.53-0.5-1.53-1.51 0-0.69 0.31-1.61 0.93-2.77-3.65 2.61-6.19 3.91-7.6 3.91-0.99 0-1.58-0.42-1.75-1.27-0.25-1.12 0.65-2.93 2.68-5.44 3.4-4.2 7.2-6.64 11.4-7.34 0.6-0.1 1.09-0.15 1.49-0.15 1.09 0 1.64 0.34 1.64 1.01 0 0.92-0.47 1.65-1.42 2.2-0.25 0.15-0.51 0.22-0.78 0.22-0.47 0-0.73-0.11-0.78-0.34-0.02-0.2 0.14-0.38 0.48-0.56 0.4-0.32 0.56-0.65 0.48-0.97-0.07-0.35-0.42-0.47-1.04-0.37-0.97 0.15-2.31 0.71-4.02 1.68-1.61 0.92-3.18 2.1-4.69 3.54-1.66 1.59-2.83 3.13-3.5 4.62-0.3 0.7-0.42 1.19-0.37 1.49 0.05 0.22 0.22 0.34 0.52 0.34 0.84 0 2.4-0.76 4.68-2.29 2.27-1.53 4.24-3.15 5.91-4.86 0.3-0.3 0.61-0.65 0.93-1.04 0.35-0.27 0.88-0.41 1.6-0.41 0.27 0 0.43 0.06 0.48 0.19 0 0.12-0.05 0.23-0.15 0.33-1.54 1.53-2.68 2.81-3.43 3.82-1.07 1.46-1.52 2.88-1.34 4.27 0.99-0.52 2.45-1.34 4.36-2.48l3.72-2.38z"/>
<path class="st1" d="m538.11 133.87c0.12 0.55-0.1 1.13-0.67 1.75-1.07 0.65-1.98 1.17-2.72 1.56-0.2 0.1-0.45 0.15-0.75 0.15-0.5 0-0.78-0.1-0.86-0.3 0.05-0.15 0.52-0.5 1.42-1.04 0.07-0.05 0.18-0.12 0.32-0.2 0.14-0.09 0.23-0.14 0.28-0.17 0.6-0.52 0.88-0.94 0.86-1.27-0.07-0.2-0.34-0.3-0.78-0.3-0.2 0-0.33 0.01-0.41 0.04-2.14 0-4.82 1.52-8.05 4.55-1.96 1.84-3.06 3.43-3.28 4.77-0.1 0.3-0.16 0.51-0.19 0.63-0.07 0.2-0.06 0.41 0.04 0.63 0.05 0.3 0.27 0.45 0.67 0.45 1.09 0 2.6-0.75 4.51-2.24 0.42-0.32 0.89-0.71 1.42-1.16 2.11-1.79 3.82-2.68 5.14-2.68 0.6 0 0.94 0.22 1.04 0.67 0.1 0.42-0.21 1.23-0.93 2.42-0.15 0.25-0.52 0.79-1.12 1.64l-0.15 0.15-1.23 1.68c1.14-0.62 1.81-0.93 2.01-0.93 0.22 0 0.34 0.07 0.34 0.22 0 0.1-0.04 0.21-0.11 0.34-0.12 0.35-0.36 0.61-0.71 0.78l-1.42 0.71c-0.3 0.15-0.82 0.45-1.56 0.89-4.4 6.08-7.92 10.69-10.58 13.82-3.75 4.4-6.48 6.59-8.2 6.59-0.65 0-1.04-0.25-1.19-0.75-0.15-0.57 0.06-1.48 0.63-2.72 3.03-6.48 9.02-12.29 17.96-17.44 0.4-0.52 0.87-1.2 1.42-2.05l0.82-1.23c0.35-0.52 0.88-1.29 1.6-2.31 0.22-0.32 0.31-0.58 0.26-0.78-0.02-0.1-0.09-0.15-0.19-0.15-0.15 0-0.4 0.12-0.75 0.37-0.62 0.47-1.54 1.18-2.76 2.12-2.56 1.91-4.87 2.99-6.93 3.24-1.17 0.12-1.84-0.17-2.01-0.89-0.07-0.3-0.04-0.78 0.11-1.45 0.07-0.35 0.21-0.76 0.41-1.23 0.77-1.89 2.31-3.79 4.62-5.7 2.71-2.24 5.37-3.56 7.97-3.99 0.62-0.1 1.14-0.15 1.56-0.15 0.3 0 0.51 0.01 0.63 0.04 0.47 0.1 0.77 0.17 0.89 0.22 0.35 0.18 0.55 0.4 0.62 0.7zm-16.32 24.03c1.59-2.04 3.7-4.84 6.33-8.42-2.86 1.89-5.4 3.96-7.64 6.22-2.56 2.58-4.36 4.63-5.4 6.15-0.57 0.82-1.03 1.65-1.38 2.5-0.27 0.65-0.37 1.12-0.3 1.42 0.07 0.2 0.21 0.3 0.41 0.3 1.1-0.01 3.76-2.73 7.98-8.17z"/>
<path class="st1" d="m553.35 136.55c0.27-0.27 0.71-0.41 1.3-0.41 0.2 0 0.31 0.05 0.33 0.15 0 0.12-0.05 0.24-0.15 0.34-1.27 1.29-2.72 2.55-4.36 3.76l-4.66 3.43c-1.09 0.8-2.22 1.62-3.39 2.46-1.74 1.14-3.3 1.76-4.69 1.86-1.52 0.12-2.37-0.31-2.57-1.3-0.25-1.17 0.31-2.45 1.68-3.84 0.97-0.97 2.15-1.85 3.54-2.65-0.84 0.05-1.63-0.06-2.35-0.34-0.5-0.17-0.79-0.46-0.89-0.86-0.15-0.57 0.3-1.35 1.34-2.35 1.56-1.47 3.86-2.67 6.89-3.61 1.42-0.45 2.68-0.68 3.8-0.71 1.09-0.02 1.68 0.15 1.75 0.52 0.07 0.45-0.27 0.97-1.04 1.56-0.99 0.77-1.78 1.15-2.35 1.15-0.37 0-0.57-0.09-0.6-0.26-0.05-0.2 0.16-0.42 0.63-0.67 0.94-0.52 1.4-0.83 1.38-0.93 0-0.12-0.17-0.17-0.52-0.15-1.02 0.1-2.31 0.46-3.88 1.08-3.85 1.52-5.66 2.82-5.44 3.91 0.05 0.2 0.2 0.32 0.45 0.37 0.42 0.1 1.07 0.1 1.94 0 1.07-0.12 1.95-0.29 2.65-0.48 0.1-0.02 0.25-0.04 0.45-0.04 0.22 0 0.37 0.07 0.45 0.22 0.05 0.27-0.29 0.6-1.01 0.97-0.52 0.25-1.02 0.49-1.49 0.73s-1.18 0.69-2.12 1.36c-2.06 1.47-3.2 2.78-3.43 3.95 0 0.75 0.29 1.12 0.86 1.12 1.37 0 4.06-1.44 8.08-4.32 3.14-2.24 5.61-4.25 7.42-6.02z"/>
<path class="st1" d="m563.56 128.32c0.22-0.02 0.38 0.02 0.48 0.13s0.1 0.24 0 0.39c-0.67 1.52-1.66 2.65-2.98 3.39l-1.04 0.6-1.45 5.07c-0.4 1.39-0.67 2.31-0.82 2.76-0.02 0.17-0.09 0.43-0.19 0.78-0.17 0.42-0.46 1.03-0.86 1.83-1.27 2.04-3.13 3.02-5.59 2.94-1.02-0.02-1.6-0.31-1.75-0.86-0.2-0.79 0.62-1.94 2.46-3.43 0.27-0.22 0.6-0.34 0.97-0.34 0.25 0 0.4 0.06 0.45 0.19 0.02 0.1-0.17 0.35-0.6 0.75l-0.78 0.71c-0.57 0.52-0.83 0.91-0.78 1.15 0 0.07 0.07 0.11 0.22 0.11 0.35 0 0.79-0.17 1.34-0.52s0.97-0.68 1.27-1.01c0.82-0.92 1.54-2.05 2.16-3.39 0.27-0.62 0.75-1.88 1.42-3.76l0.56-1.6-4.92 4.17c-0.77 0.62-1.83 1.49-3.17 2.61-0.5 0.42-0.99 0.86-1.49 1.3-0.7 0.57-1.25 0.86-1.68 0.86-0.25 0-0.38-0.06-0.41-0.19-0.05-0.12 0.07-0.31 0.37-0.56l8.5-7.19c0.57-0.5 1.44-1.17 2.61-2.01l0.93-0.67 0.34-0.67c1.04-2.06 2.52-3.24 4.43-3.54z"/>
</svg>